ISO-10303-21;
HEADER;
/* Generated by software containing ST-Developer
 * from STEP Tools, Inc. (www.steptools.com) 
 */
/* OPTION: using custom renumber hook */

FILE_DESCRIPTION(
/* description */ ('STEP AP242 Edition 2',
'CAx-IF Rec.Pracs.---Representation and Presentation of Product Manufa
cturing Information (PMI)---4.0---2014-10-13',
'CAx-IF Rec.Pracs.---3D Tessellated Geometry---0.4---2014-09-14','2;1',
'CAx-IF Rec.Pracs.---User Defined Attributes---1.5---2016-08-15'),
/* implementation_level */ '2;1');

FILE_NAME(
/* name */ 'Part Studio 1',
/* time_stamp */ '2026-10-06T01:29:08Z',
/* author */ (''),
/* organization */ (''),
/* preprocessor_version */ 'ST-DEVELOPER v20',
/* originating_system */ 'ONSHAPE BY PTC INC, 1.221',
/* authorisation */ '  ');

FILE_SCHEMA (('AP242_MANAGED_MODEL_BASED_3D_ENGINEERING_MIM_LF { 1 0 10303 442 3 1 4 }'));
ENDSEC;

DATA;
#10=SHAPE_REPRESENTATION_RELATIONSHIP('','',#923,#11);
#11=ADVANCED_BREP_SHAPE_REPRESENTATION('',(#921),#1445);
#12=ORIENTED_EDGE('',*,*,#264,.F.);
#13=ORIENTED_EDGE('',*,*,#265,.F.);
#14=ORIENTED_EDGE('',*,*,#266,.F.);
#15=ORIENTED_EDGE('',*,*,#267,.T.);
#16=ORIENTED_EDGE('',*,*,#268,.F.);
#17=ORIENTED_EDGE('',*,*,#267,.F.);
#18=ORIENTED_EDGE('',*,*,#269,.F.);
#19=ORIENTED_EDGE('',*,*,#270,.T.);
#20=ORIENTED_EDGE('',*,*,#271,.F.);
#21=ORIENTED_EDGE('',*,*,#270,.F.);
#22=ORIENTED_EDGE('',*,*,#272,.F.);
#23=ORIENTED_EDGE('',*,*,#273,.T.);
#24=ORIENTED_EDGE('',*,*,#274,.F.);
#25=ORIENTED_EDGE('',*,*,#273,.F.);
#26=ORIENTED_EDGE('',*,*,#275,.F.);
#27=ORIENTED_EDGE('',*,*,#276,.T.);
#28=ORIENTED_EDGE('',*,*,#277,.F.);
#29=ORIENTED_EDGE('',*,*,#276,.F.);
#30=ORIENTED_EDGE('',*,*,#278,.F.);
#31=ORIENTED_EDGE('',*,*,#279,.T.);
#32=ORIENTED_EDGE('',*,*,#280,.F.);
#33=ORIENTED_EDGE('',*,*,#279,.F.);
#34=ORIENTED_EDGE('',*,*,#281,.F.);
#35=ORIENTED_EDGE('',*,*,#282,.T.);
#36=ORIENTED_EDGE('',*,*,#283,.F.);
#37=ORIENTED_EDGE('',*,*,#282,.F.);
#38=ORIENTED_EDGE('',*,*,#284,.F.);
#39=ORIENTED_EDGE('',*,*,#285,.T.);
#40=ORIENTED_EDGE('',*,*,#286,.F.);
#41=ORIENTED_EDGE('',*,*,#285,.F.);
#42=ORIENTED_EDGE('',*,*,#287,.F.);
#43=ORIENTED_EDGE('',*,*,#288,.T.);
#44=ORIENTED_EDGE('',*,*,#289,.F.);
#45=ORIENTED_EDGE('',*,*,#288,.F.);
#46=ORIENTED_EDGE('',*,*,#290,.F.);
#47=ORIENTED_EDGE('',*,*,#291,.T.);
#48=ORIENTED_EDGE('',*,*,#292,.F.);
#49=ORIENTED_EDGE('',*,*,#291,.F.);
#50=ORIENTED_EDGE('',*,*,#293,.F.);
#51=ORIENTED_EDGE('',*,*,#294,.T.);
#52=ORIENTED_EDGE('',*,*,#295,.F.);
#53=ORIENTED_EDGE('',*,*,#294,.F.);
#54=ORIENTED_EDGE('',*,*,#296,.F.);
#55=ORIENTED_EDGE('',*,*,#297,.T.);
#56=ORIENTED_EDGE('',*,*,#298,.F.);
#57=ORIENTED_EDGE('',*,*,#297,.F.);
#58=ORIENTED_EDGE('',*,*,#299,.F.);
#59=ORIENTED_EDGE('',*,*,#300,.T.);
#60=ORIENTED_EDGE('',*,*,#301,.F.);
#61=ORIENTED_EDGE('',*,*,#300,.F.);
#62=ORIENTED_EDGE('',*,*,#302,.F.);
#63=ORIENTED_EDGE('',*,*,#303,.T.);
#64=ORIENTED_EDGE('',*,*,#304,.F.);
#65=ORIENTED_EDGE('',*,*,#303,.F.);
#66=ORIENTED_EDGE('',*,*,#305,.F.);
#67=ORIENTED_EDGE('',*,*,#265,.T.);
#68=ORIENTED_EDGE('',*,*,#306,.F.);
#69=ORIENTED_EDGE('',*,*,#307,.F.);
#70=ORIENTED_EDGE('',*,*,#308,.T.);
#71=ORIENTED_EDGE('',*,*,#309,.T.);
#72=ORIENTED_EDGE('',*,*,#310,.F.);
#73=ORIENTED_EDGE('',*,*,#309,.F.);
#74=ORIENTED_EDGE('',*,*,#311,.T.);
#75=ORIENTED_EDGE('',*,*,#312,.T.);
#76=ORIENTED_EDGE('',*,*,#313,.F.);
#77=ORIENTED_EDGE('',*,*,#312,.F.);
#78=ORIENTED_EDGE('',*,*,#314,.T.);
#79=ORIENTED_EDGE('',*,*,#315,.T.);
#80=ORIENTED_EDGE('',*,*,#316,.F.);
#81=ORIENTED_EDGE('',*,*,#315,.F.);
#82=ORIENTED_EDGE('',*,*,#317,.T.);
#83=ORIENTED_EDGE('',*,*,#318,.T.);
#84=ORIENTED_EDGE('',*,*,#319,.F.);
#85=ORIENTED_EDGE('',*,*,#318,.F.);
#86=ORIENTED_EDGE('',*,*,#320,.T.);
#87=ORIENTED_EDGE('',*,*,#321,.T.);
#88=ORIENTED_EDGE('',*,*,#322,.F.);
#89=ORIENTED_EDGE('',*,*,#321,.F.);
#90=ORIENTED_EDGE('',*,*,#323,.T.);
#91=ORIENTED_EDGE('',*,*,#324,.T.);
#92=ORIENTED_EDGE('',*,*,#325,.F.);
#93=ORIENTED_EDGE('',*,*,#324,.F.);
#94=ORIENTED_EDGE('',*,*,#326,.T.);
#95=ORIENTED_EDGE('',*,*,#327,.T.);
#96=ORIENTED_EDGE('',*,*,#328,.F.);
#97=ORIENTED_EDGE('',*,*,#327,.F.);
#98=ORIENTED_EDGE('',*,*,#329,.T.);
#99=ORIENTED_EDGE('',*,*,#330,.T.);
#100=ORIENTED_EDGE('',*,*,#331,.F.);
#101=ORIENTED_EDGE('',*,*,#330,.F.);
#102=ORIENTED_EDGE('',*,*,#332,.T.);
#103=ORIENTED_EDGE('',*,*,#333,.T.);
#104=ORIENTED_EDGE('',*,*,#334,.F.);
#105=ORIENTED_EDGE('',*,*,#333,.F.);
#106=ORIENTED_EDGE('',*,*,#335,.T.);
#107=ORIENTED_EDGE('',*,*,#336,.T.);
#108=ORIENTED_EDGE('',*,*,#337,.F.);
#109=ORIENTED_EDGE('',*,*,#336,.F.);
#110=ORIENTED_EDGE('',*,*,#338,.T.);
#111=ORIENTED_EDGE('',*,*,#339,.T.);
#112=ORIENTED_EDGE('',*,*,#340,.F.);
#113=ORIENTED_EDGE('',*,*,#339,.F.);
#114=ORIENTED_EDGE('',*,*,#341,.T.);
#115=ORIENTED_EDGE('',*,*,#342,.T.);
#116=ORIENTED_EDGE('',*,*,#343,.F.);
#117=ORIENTED_EDGE('',*,*,#342,.F.);
#118=ORIENTED_EDGE('',*,*,#344,.T.);
#119=ORIENTED_EDGE('',*,*,#345,.T.);
#120=ORIENTED_EDGE('',*,*,#346,.F.);
#121=ORIENTED_EDGE('',*,*,#345,.F.);
#122=ORIENTED_EDGE('',*,*,#347,.T.);
#123=ORIENTED_EDGE('',*,*,#307,.T.);
#124=ORIENTED_EDGE('',*,*,#266,.T.);
#125=ORIENTED_EDGE('',*,*,#305,.T.);
#126=ORIENTED_EDGE('',*,*,#302,.T.);
#127=ORIENTED_EDGE('',*,*,#299,.T.);
#128=ORIENTED_EDGE('',*,*,#296,.T.);
#129=ORIENTED_EDGE('',*,*,#293,.T.);
#130=ORIENTED_EDGE('',*,*,#290,.T.);
#131=ORIENTED_EDGE('',*,*,#287,.T.);
#132=ORIENTED_EDGE('',*,*,#284,.T.);
#133=ORIENTED_EDGE('',*,*,#281,.T.);
#134=ORIENTED_EDGE('',*,*,#278,.T.);
#135=ORIENTED_EDGE('',*,*,#275,.T.);
#136=ORIENTED_EDGE('',*,*,#272,.T.);
#137=ORIENTED_EDGE('',*,*,#269,.T.);
#138=ORIENTED_EDGE('',*,*,#308,.F.);
#139=ORIENTED_EDGE('',*,*,#347,.F.);
#140=ORIENTED_EDGE('',*,*,#344,.F.);
#141=ORIENTED_EDGE('',*,*,#341,.F.);
#142=ORIENTED_EDGE('',*,*,#338,.F.);
#143=ORIENTED_EDGE('',*,*,#335,.F.);
#144=ORIENTED_EDGE('',*,*,#332,.F.);
#145=ORIENTED_EDGE('',*,*,#329,.F.);
#146=ORIENTED_EDGE('',*,*,#326,.F.);
#147=ORIENTED_EDGE('',*,*,#323,.F.);
#148=ORIENTED_EDGE('',*,*,#320,.F.);
#149=ORIENTED_EDGE('',*,*,#317,.F.);
#150=ORIENTED_EDGE('',*,*,#314,.F.);
#151=ORIENTED_EDGE('',*,*,#311,.F.);
#152=ORIENTED_EDGE('',*,*,#306,.T.);
#153=ORIENTED_EDGE('',*,*,#310,.T.);
#154=ORIENTED_EDGE('',*,*,#313,.T.);
#155=ORIENTED_EDGE('',*,*,#316,.T.);
#156=ORIENTED_EDGE('',*,*,#319,.T.);
#157=ORIENTED_EDGE('',*,*,#322,.T.);
#158=ORIENTED_EDGE('',*,*,#325,.T.);
#159=ORIENTED_EDGE('',*,*,#328,.T.);
#160=ORIENTED_EDGE('',*,*,#331,.T.);
#161=ORIENTED_EDGE('',*,*,#334,.T.);
#162=ORIENTED_EDGE('',*,*,#337,.T.);
#163=ORIENTED_EDGE('',*,*,#340,.T.);
#164=ORIENTED_EDGE('',*,*,#343,.T.);
#165=ORIENTED_EDGE('',*,*,#346,.T.);
#166=ORIENTED_EDGE('',*,*,#348,.F.);
#167=ORIENTED_EDGE('',*,*,#349,.F.);
#168=ORIENTED_EDGE('',*,*,#350,.F.);
#169=ORIENTED_EDGE('',*,*,#351,.F.);
#170=ORIENTED_EDGE('',*,*,#352,.F.);
#171=ORIENTED_EDGE('',*,*,#353,.F.);
#172=ORIENTED_EDGE('',*,*,#354,.F.);
#173=ORIENTED_EDGE('',*,*,#355,.F.);
#174=ORIENTED_EDGE('',*,*,#356,.F.);
#175=ORIENTED_EDGE('',*,*,#357,.F.);
#176=ORIENTED_EDGE('',*,*,#358,.F.);
#177=ORIENTED_EDGE('',*,*,#359,.F.);
#178=ORIENTED_EDGE('',*,*,#360,.F.);
#179=ORIENTED_EDGE('',*,*,#361,.F.);
#180=ORIENTED_EDGE('',*,*,#362,.T.);
#181=ORIENTED_EDGE('',*,*,#363,.T.);
#182=ORIENTED_EDGE('',*,*,#364,.T.);
#183=ORIENTED_EDGE('',*,*,#365,.T.);
#184=ORIENTED_EDGE('',*,*,#366,.T.);
#185=ORIENTED_EDGE('',*,*,#367,.T.);
#186=ORIENTED_EDGE('',*,*,#368,.T.);
#187=ORIENTED_EDGE('',*,*,#369,.T.);
#188=ORIENTED_EDGE('',*,*,#370,.T.);
#189=ORIENTED_EDGE('',*,*,#371,.T.);
#190=ORIENTED_EDGE('',*,*,#372,.T.);
#191=ORIENTED_EDGE('',*,*,#373,.T.);
#192=ORIENTED_EDGE('',*,*,#374,.T.);
#193=ORIENTED_EDGE('',*,*,#375,.T.);
#194=ORIENTED_EDGE('',*,*,#304,.T.);
#195=ORIENTED_EDGE('',*,*,#264,.T.);
#196=ORIENTED_EDGE('',*,*,#268,.T.);
#197=ORIENTED_EDGE('',*,*,#271,.T.);
#198=ORIENTED_EDGE('',*,*,#274,.T.);
#199=ORIENTED_EDGE('',*,*,#277,.T.);
#200=ORIENTED_EDGE('',*,*,#280,.T.);
#201=ORIENTED_EDGE('',*,*,#283,.T.);
#202=ORIENTED_EDGE('',*,*,#286,.T.);
#203=ORIENTED_EDGE('',*,*,#289,.T.);
#204=ORIENTED_EDGE('',*,*,#292,.T.);
#205=ORIENTED_EDGE('',*,*,#295,.T.);
#206=ORIENTED_EDGE('',*,*,#298,.T.);
#207=ORIENTED_EDGE('',*,*,#301,.T.);
#208=ORIENTED_EDGE('',*,*,#348,.T.);
#209=ORIENTED_EDGE('',*,*,#376,.F.);
#210=ORIENTED_EDGE('',*,*,#362,.F.);
#211=ORIENTED_EDGE('',*,*,#377,.T.);
#212=ORIENTED_EDGE('',*,*,#349,.T.);
#213=ORIENTED_EDGE('',*,*,#377,.F.);
#214=ORIENTED_EDGE('',*,*,#375,.F.);
#215=ORIENTED_EDGE('',*,*,#378,.T.);
#216=ORIENTED_EDGE('',*,*,#350,.T.);
#217=ORIENTED_EDGE('',*,*,#378,.F.);
#218=ORIENTED_EDGE('',*,*,#374,.F.);
#219=ORIENTED_EDGE('',*,*,#379,.T.);
#220=ORIENTED_EDGE('',*,*,#351,.T.);
#221=ORIENTED_EDGE('',*,*,#379,.F.);
#222=ORIENTED_EDGE('',*,*,#373,.F.);
#223=ORIENTED_EDGE('',*,*,#380,.T.);
#224=ORIENTED_EDGE('',*,*,#352,.T.);
#225=ORIENTED_EDGE('',*,*,#380,.F.);
#226=ORIENTED_EDGE('',*,*,#372,.F.);
#227=ORIENTED_EDGE('',*,*,#381,.T.);
#228=ORIENTED_EDGE('',*,*,#353,.T.);
#229=ORIENTED_EDGE('',*,*,#381,.F.);
#230=ORIENTED_EDGE('',*,*,#371,.F.);
#231=ORIENTED_EDGE('',*,*,#382,.T.);
#232=ORIENTED_EDGE('',*,*,#354,.T.);
#233=ORIENTED_EDGE('',*,*,#382,.F.);
#234=ORIENTED_EDGE('',*,*,#370,.F.);
#235=ORIENTED_EDGE('',*,*,#383,.T.);
#236=ORIENTED_EDGE('',*,*,#355,.T.);
#237=ORIENTED_EDGE('',*,*,#383,.F.);
#238=ORIENTED_EDGE('',*,*,#369,.F.);
#239=ORIENTED_EDGE('',*,*,#384,.T.);
#240=ORIENTED_EDGE('',*,*,#356,.T.);
#241=ORIENTED_EDGE('',*,*,#384,.F.);
#242=ORIENTED_EDGE('',*,*,#368,.F.);
#243=ORIENTED_EDGE('',*,*,#385,.T.);
#244=ORIENTED_EDGE('',*,*,#357,.T.);
#245=ORIENTED_EDGE('',*,*,#385,.F.);
#246=ORIENTED_EDGE('',*,*,#367,.F.);
#247=ORIENTED_EDGE('',*,*,#386,.T.);
#248=ORIENTED_EDGE('',*,*,#358,.T.);
#249=ORIENTED_EDGE('',*,*,#386,.F.);
#250=ORIENTED_EDGE('',*,*,#366,.F.);
#251=ORIENTED_EDGE('',*,*,#387,.T.);
#252=ORIENTED_EDGE('',*,*,#359,.T.);
#253=ORIENTED_EDGE('',*,*,#387,.F.);
#254=ORIENTED_EDGE('',*,*,#365,.F.);
#255=ORIENTED_EDGE('',*,*,#388,.T.);
#256=ORIENTED_EDGE('',*,*,#360,.T.);
#257=ORIENTED_EDGE('',*,*,#388,.F.);
#258=ORIENTED_EDGE('',*,*,#364,.F.);
#259=ORIENTED_EDGE('',*,*,#389,.T.);
#260=ORIENTED_EDGE('',*,*,#361,.T.);
#261=ORIENTED_EDGE('',*,*,#389,.F.);
#262=ORIENTED_EDGE('',*,*,#363,.F.);
#263=ORIENTED_EDGE('',*,*,#376,.T.);
#264=EDGE_CURVE('',#390,#391,#474,.T.);
#265=EDGE_CURVE('',#392,#390,#475,.T.);
#266=EDGE_CURVE('',#393,#392,#476,.F.);
#267=EDGE_CURVE('',#393,#391,#477,.T.);
#268=EDGE_CURVE('',#391,#394,#478,.T.);
#269=EDGE_CURVE('',#395,#393,#479,.F.);
#270=EDGE_CURVE('',#395,#394,#480,.T.);
#271=EDGE_CURVE('',#394,#396,#481,.T.);
#272=EDGE_CURVE('',#397,#395,#482,.F.);
#273=EDGE_CURVE('',#397,#396,#483,.T.);
#274=EDGE_CURVE('',#396,#398,#484,.T.);
#275=EDGE_CURVE('',#399,#397,#485,.F.);
#276=EDGE_CURVE('',#399,#398,#486,.T.);
#277=EDGE_CURVE('',#398,#400,#487,.T.);
#278=EDGE_CURVE('',#401,#399,#488,.F.);
#279=EDGE_CURVE('',#401,#400,#489,.T.);
#280=EDGE_CURVE('',#400,#402,#490,.T.);
#281=EDGE_CURVE('',#403,#401,#491,.F.);
#282=EDGE_CURVE('',#403,#402,#492,.T.);
#283=EDGE_CURVE('',#402,#404,#493,.T.);
#284=EDGE_CURVE('',#405,#403,#494,.T.);
#285=EDGE_CURVE('',#405,#404,#495,.T.);
#286=EDGE_CURVE('',#404,#406,#496,.T.);
#287=EDGE_CURVE('',#407,#405,#497,.T.);
#288=EDGE_CURVE('',#407,#406,#498,.T.);
#289=EDGE_CURVE('',#406,#408,#499,.T.);
#290=EDGE_CURVE('',#409,#407,#500,.F.);
#291=EDGE_CURVE('',#409,#408,#501,.T.);
#292=EDGE_CURVE('',#408,#410,#502,.T.);
#293=EDGE_CURVE('',#411,#409,#503,.F.);
#294=EDGE_CURVE('',#411,#410,#504,.T.);
#295=EDGE_CURVE('',#410,#412,#505,.T.);
#296=EDGE_CURVE('',#413,#411,#506,.F.);
#297=EDGE_CURVE('',#413,#412,#507,.T.);
#298=EDGE_CURVE('',#412,#414,#508,.T.);
#299=EDGE_CURVE('',#415,#413,#509,.T.);
#300=EDGE_CURVE('',#415,#414,#510,.T.);
#301=EDGE_CURVE('',#414,#416,#511,.T.);
#302=EDGE_CURVE('',#417,#415,#512,.F.);
#303=EDGE_CURVE('',#417,#416,#513,.T.);
#304=EDGE_CURVE('',#416,#390,#514,.T.);
#305=EDGE_CURVE('',#392,#417,#515,.F.);
#306=EDGE_CURVE('',#418,#419,#516,.F.);
#307=EDGE_CURVE('',#420,#418,#517,.T.);
#308=EDGE_CURVE('',#420,#421,#518,.F.);
#309=EDGE_CURVE('',#421,#419,#519,.T.);
#310=EDGE_CURVE('',#419,#422,#520,.F.);
#311=EDGE_CURVE('',#421,#423,#521,.F.);
#312=EDGE_CURVE('',#423,#422,#522,.T.);
#313=EDGE_CURVE('',#422,#424,#523,.F.);
#314=EDGE_CURVE('',#423,#425,#524,.F.);
#315=EDGE_CURVE('',#425,#424,#525,.T.);
#316=EDGE_CURVE('',#424,#426,#526,.T.);
#317=EDGE_CURVE('',#425,#427,#527,.T.);
#318=EDGE_CURVE('',#427,#426,#528,.T.);
#319=EDGE_CURVE('',#426,#428,#529,.F.);
#320=EDGE_CURVE('',#427,#429,#530,.F.);
#321=EDGE_CURVE('',#429,#428,#531,.T.);
#322=EDGE_CURVE('',#428,#430,#532,.F.);
#323=EDGE_CURVE('',#429,#431,#533,.F.);
#324=EDGE_CURVE('',#431,#430,#534,.T.);
#325=EDGE_CURVE('',#430,#432,#535,.F.);
#326=EDGE_CURVE('',#431,#433,#536,.F.);
#327=EDGE_CURVE('',#433,#432,#537,.T.);
#328=EDGE_CURVE('',#432,#434,#538,.T.);
#329=EDGE_CURVE('',#433,#435,#539,.T.);
#330=EDGE_CURVE('',#435,#434,#540,.T.);
#331=EDGE_CURVE('',#434,#436,#541,.T.);
#332=EDGE_CURVE('',#435,#437,#542,.T.);
#333=EDGE_CURVE('',#437,#436,#543,.T.);
#334=EDGE_CURVE('',#436,#438,#544,.F.);
#335=EDGE_CURVE('',#437,#439,#545,.F.);
#336=EDGE_CURVE('',#439,#438,#546,.T.);
#337=EDGE_CURVE('',#438,#440,#547,.F.);
#338=EDGE_CURVE('',#439,#441,#548,.F.);
#339=EDGE_CURVE('',#441,#440,#549,.T.);
#340=EDGE_CURVE('',#440,#442,#550,.F.);
#341=EDGE_CURVE('',#441,#443,#551,.F.);
#342=EDGE_CURVE('',#443,#442,#552,.T.);
#343=EDGE_CURVE('',#442,#444,#553,.F.);
#344=EDGE_CURVE('',#443,#445,#554,.F.);
#345=EDGE_CURVE('',#445,#444,#555,.T.);
#346=EDGE_CURVE('',#444,#418,#556,.F.);
#347=EDGE_CURVE('',#445,#420,#557,.F.);
#348=EDGE_CURVE('',#446,#447,#558,.F.);
#349=EDGE_CURVE('',#448,#446,#559,.F.);
#350=EDGE_CURVE('',#449,#448,#560,.F.);
#351=EDGE_CURVE('',#450,#449,#561,.F.);
#352=EDGE_CURVE('',#451,#450,#562,.F.);
#353=EDGE_CURVE('',#452,#451,#563,.F.);
#354=EDGE_CURVE('',#453,#452,#564,.T.);
#355=EDGE_CURVE('',#454,#453,#565,.T.);
#356=EDGE_CURVE('',#455,#454,#566,.F.);
#357=EDGE_CURVE('',#456,#455,#567,.F.);
#358=EDGE_CURVE('',#457,#456,#568,.F.);
#359=EDGE_CURVE('',#458,#457,#569,.T.);
#360=EDGE_CURVE('',#459,#458,#570,.F.);
#361=EDGE_CURVE('',#447,#459,#571,.F.);
#362=EDGE_CURVE('',#460,#461,#572,.F.);
#363=EDGE_CURVE('',#461,#462,#573,.F.);
#364=EDGE_CURVE('',#462,#463,#574,.F.);
#365=EDGE_CURVE('',#463,#464,#575,.T.);
#366=EDGE_CURVE('',#464,#465,#576,.F.);
#367=EDGE_CURVE('',#465,#466,#577,.F.);
#368=EDGE_CURVE('',#466,#467,#578,.F.);
#369=EDGE_CURVE('',#467,#468,#579,.T.);
#370=EDGE_CURVE('',#468,#469,#580,.T.);
#371=EDGE_CURVE('',#469,#470,#581,.F.);
#372=EDGE_CURVE('',#470,#471,#582,.F.);
#373=EDGE_CURVE('',#471,#472,#583,.F.);
#374=EDGE_CURVE('',#472,#473,#584,.F.);
#375=EDGE_CURVE('',#473,#460,#585,.F.);
#376=EDGE_CURVE('',#461,#447,#586,.T.);
#377=EDGE_CURVE('',#460,#446,#587,.T.);
#378=EDGE_CURVE('',#473,#448,#588,.T.);
#379=EDGE_CURVE('',#472,#449,#589,.T.);
#380=EDGE_CURVE('',#471,#450,#590,.T.);
#381=EDGE_CURVE('',#470,#451,#591,.T.);
#382=EDGE_CURVE('',#469,#452,#592,.T.);
#383=EDGE_CURVE('',#468,#453,#593,.T.);
#384=EDGE_CURVE('',#467,#454,#594,.T.);
#385=EDGE_CURVE('',#466,#455,#595,.T.);
#386=EDGE_CURVE('',#465,#456,#596,.T.);
#387=EDGE_CURVE('',#464,#457,#597,.T.);
#388=EDGE_CURVE('',#463,#458,#598,.T.);
#389=EDGE_CURVE('',#462,#459,#599,.T.);
#390=VERTEX_POINT('',#1191);
#391=VERTEX_POINT('',#1192);
#392=VERTEX_POINT('',#1194);
#393=VERTEX_POINT('',#1196);
#394=VERTEX_POINT('',#1200);
#395=VERTEX_POINT('',#1202);
#396=VERTEX_POINT('',#1206);
#397=VERTEX_POINT('',#1208);
#398=VERTEX_POINT('',#1212);
#399=VERTEX_POINT('',#1214);
#400=VERTEX_POINT('',#1218);
#401=VERTEX_POINT('',#1220);
#402=VERTEX_POINT('',#1224);
#403=VERTEX_POINT('',#1226);
#404=VERTEX_POINT('',#1230);
#405=VERTEX_POINT('',#1232);
#406=VERTEX_POINT('',#1236);
#407=VERTEX_POINT('',#1238);
#408=VERTEX_POINT('',#1242);
#409=VERTEX_POINT('',#1244);
#410=VERTEX_POINT('',#1248);
#411=VERTEX_POINT('',#1250);
#412=VERTEX_POINT('',#1254);
#413=VERTEX_POINT('',#1256);
#414=VERTEX_POINT('',#1260);
#415=VERTEX_POINT('',#1262);
#416=VERTEX_POINT('',#1266);
#417=VERTEX_POINT('',#1268);
#418=VERTEX_POINT('',#1275);
#419=VERTEX_POINT('',#1276);
#420=VERTEX_POINT('',#1278);
#421=VERTEX_POINT('',#1280);
#422=VERTEX_POINT('',#1284);
#423=VERTEX_POINT('',#1286);
#424=VERTEX_POINT('',#1290);
#425=VERTEX_POINT('',#1292);
#426=VERTEX_POINT('',#1296);
#427=VERTEX_POINT('',#1298);
#428=VERTEX_POINT('',#1302);
#429=VERTEX_POINT('',#1304);
#430=VERTEX_POINT('',#1308);
#431=VERTEX_POINT('',#1310);
#432=VERTEX_POINT('',#1314);
#433=VERTEX_POINT('',#1316);
#434=VERTEX_POINT('',#1320);
#435=VERTEX_POINT('',#1322);
#436=VERTEX_POINT('',#1326);
#437=VERTEX_POINT('',#1328);
#438=VERTEX_POINT('',#1332);
#439=VERTEX_POINT('',#1334);
#440=VERTEX_POINT('',#1338);
#441=VERTEX_POINT('',#1340);
#442=VERTEX_POINT('',#1344);
#443=VERTEX_POINT('',#1346);
#444=VERTEX_POINT('',#1350);
#445=VERTEX_POINT('',#1352);
#446=VERTEX_POINT('',#1360);
#447=VERTEX_POINT('',#1361);
#448=VERTEX_POINT('',#1363);
#449=VERTEX_POINT('',#1365);
#450=VERTEX_POINT('',#1367);
#451=VERTEX_POINT('',#1369);
#452=VERTEX_POINT('',#1371);
#453=VERTEX_POINT('',#1373);
#454=VERTEX_POINT('',#1375);
#455=VERTEX_POINT('',#1377);
#456=VERTEX_POINT('',#1379);
#457=VERTEX_POINT('',#1381);
#458=VERTEX_POINT('',#1383);
#459=VERTEX_POINT('',#1385);
#460=VERTEX_POINT('',#1389);
#461=VERTEX_POINT('',#1390);
#462=VERTEX_POINT('',#1392);
#463=VERTEX_POINT('',#1394);
#464=VERTEX_POINT('',#1396);
#465=VERTEX_POINT('',#1398);
#466=VERTEX_POINT('',#1400);
#467=VERTEX_POINT('',#1402);
#468=VERTEX_POINT('',#1404);
#469=VERTEX_POINT('',#1406);
#470=VERTEX_POINT('',#1408);
#471=VERTEX_POINT('',#1410);
#472=VERTEX_POINT('',#1412);
#473=VERTEX_POINT('',#1414);
#474=LINE('',#1190,#600);
#475=LINE('',#1193,#601);
#476=LINE('',#1195,#602);
#477=LINE('',#1197,#603);
#478=LINE('',#1199,#604);
#479=LINE('',#1201,#605);
#480=LINE('',#1203,#606);
#481=LINE('',#1205,#607);
#482=LINE('',#1207,#608);
#483=LINE('',#1209,#609);
#484=LINE('',#1211,#610);
#485=LINE('',#1213,#611);
#486=LINE('',#1215,#612);
#487=LINE('',#1217,#613);
#488=LINE('',#1219,#614);
#489=LINE('',#1221,#615);
#490=LINE('',#1223,#616);
#491=LINE('',#1225,#617);
#492=LINE('',#1227,#618);
#493=LINE('',#1229,#619);
#494=LINE('',#1231,#620);
#495=LINE('',#1233,#621);
#496=LINE('',#1235,#622);
#497=LINE('',#1237,#623);
#498=LINE('',#1239,#624);
#499=LINE('',#1241,#625);
#500=LINE('',#1243,#626);
#501=LINE('',#1245,#627);
#502=LINE('',#1247,#628);
#503=LINE('',#1249,#629);
#504=LINE('',#1251,#630);
#505=LINE('',#1253,#631);
#506=LINE('',#1255,#632);
#507=LINE('',#1257,#633);
#508=LINE('',#1259,#634);
#509=LINE('',#1261,#635);
#510=LINE('',#1263,#636);
#511=LINE('',#1265,#637);
#512=LINE('',#1267,#638);
#513=LINE('',#1269,#639);
#514=LINE('',#1271,#640);
#515=LINE('',#1272,#641);
#516=LINE('',#1274,#642);
#517=LINE('',#1277,#643);
#518=LINE('',#1279,#644);
#519=LINE('',#1281,#645);
#520=LINE('',#1283,#646);
#521=LINE('',#1285,#647);
#522=LINE('',#1287,#648);
#523=LINE('',#1289,#649);
#524=LINE('',#1291,#650);
#525=LINE('',#1293,#651);
#526=LINE('',#1295,#652);
#527=LINE('',#1297,#653);
#528=LINE('',#1299,#654);
#529=LINE('',#1301,#655);
#530=LINE('',#1303,#656);
#531=LINE('',#1305,#657);
#532=LINE('',#1307,#658);
#533=LINE('',#1309,#659);
#534=LINE('',#1311,#660);
#535=LINE('',#1313,#661);
#536=LINE('',#1315,#662);
#537=LINE('',#1317,#663);
#538=LINE('',#1319,#664);
#539=LINE('',#1321,#665);
#540=LINE('',#1323,#666);
#541=LINE('',#1325,#667);
#542=LINE('',#1327,#668);
#543=LINE('',#1329,#669);
#544=LINE('',#1331,#670);
#545=LINE('',#1333,#671);
#546=LINE('',#1335,#672);
#547=LINE('',#1337,#673);
#548=LINE('',#1339,#674);
#549=LINE('',#1341,#675);
#550=LINE('',#1343,#676);
#551=LINE('',#1345,#677);
#552=LINE('',#1347,#678);
#553=LINE('',#1349,#679);
#554=LINE('',#1351,#680);
#555=LINE('',#1353,#681);
#556=LINE('',#1355,#682);
#557=LINE('',#1356,#683);
#558=LINE('',#1359,#684);
#559=LINE('',#1362,#685);
#560=LINE('',#1364,#686);
#561=LINE('',#1366,#687);
#562=LINE('',#1368,#688);
#563=LINE('',#1370,#689);
#564=LINE('',#1372,#690);
#565=LINE('',#1374,#691);
#566=LINE('',#1376,#692);
#567=LINE('',#1378,#693);
#568=LINE('',#1380,#694);
#569=LINE('',#1382,#695);
#570=LINE('',#1384,#696);
#571=LINE('',#1386,#697);
#572=LINE('',#1388,#698);
#573=LINE('',#1391,#699);
#574=LINE('',#1393,#700);
#575=LINE('',#1395,#701);
#576=LINE('',#1397,#702);
#577=LINE('',#1399,#703);
#578=LINE('',#1401,#704);
#579=LINE('',#1403,#705);
#580=LINE('',#1405,#706);
#581=LINE('',#1407,#707);
#582=LINE('',#1409,#708);
#583=LINE('',#1411,#709);
#584=LINE('',#1413,#710);
#585=LINE('',#1415,#711);
#586=LINE('',#1417,#712);
#587=LINE('',#1418,#713);
#588=LINE('',#1420,#714);
#589=LINE('',#1422,#715);
#590=LINE('',#1424,#716);
#591=LINE('',#1426,#717);
#592=LINE('',#1428,#718);
#593=LINE('',#1430,#719);
#594=LINE('',#1432,#720);
#595=LINE('',#1434,#721);
#596=LINE('',#1436,#722);
#597=LINE('',#1438,#723);
#598=LINE('',#1440,#724);
#599=LINE('',#1442,#725);
#600=VECTOR('',#974,1.);
#601=VECTOR('',#975,1.);
#602=VECTOR('',#976,1.);
#603=VECTOR('',#977,1.);
#604=VECTOR('',#980,1.);
#605=VECTOR('',#981,1.);
#606=VECTOR('',#982,1.);
#607=VECTOR('',#985,1.);
#608=VECTOR('',#986,1.);
#609=VECTOR('',#987,1.);
#610=VECTOR('',#990,1.);
#611=VECTOR('',#991,1.);
#612=VECTOR('',#992,1.);
#613=VECTOR('',#995,1.);
#614=VECTOR('',#996,1.);
#615=VECTOR('',#997,1.);
#616=VECTOR('',#1000,1.);
#617=VECTOR('',#1001,1.);
#618=VECTOR('',#1002,1.);
#619=VECTOR('',#1005,1.);
#620=VECTOR('',#1006,1.);
#621=VECTOR('',#1007,1.);
#622=VECTOR('',#1010,1.);
#623=VECTOR('',#1011,1.);
#624=VECTOR('',#1012,1.);
#625=VECTOR('',#1015,1.);
#626=VECTOR('',#1016,1.);
#627=VECTOR('',#1017,1.);
#628=VECTOR('',#1020,1.);
#629=VECTOR('',#1021,1.);
#630=VECTOR('',#1022,1.);
#631=VECTOR('',#1025,1.);
#632=VECTOR('',#1026,1.);
#633=VECTOR('',#1027,1.);
#634=VECTOR('',#1030,1.);
#635=VECTOR('',#1031,1.);
#636=VECTOR('',#1032,1.);
#637=VECTOR('',#1035,1.);
#638=VECTOR('',#1036,1.);
#639=VECTOR('',#1037,1.);
#640=VECTOR('',#1040,1.);
#641=VECTOR('',#1041,1.);
#642=VECTOR('',#1044,1.);
#643=VECTOR('',#1045,1.);
#644=VECTOR('',#1046,1.);
#645=VECTOR('',#1047,1.);
#646=VECTOR('',#1050,1.);
#647=VECTOR('',#1051,1.);
#648=VECTOR('',#1052,1.);
#649=VECTOR('',#1055,1.);
#650=VECTOR('',#1056,1.);
#651=VECTOR('',#1057,1.);
#652=VECTOR('',#1060,1.);
#653=VECTOR('',#1061,1.);
#654=VECTOR('',#1062,1.);
#655=VECTOR('',#1065,1.);
#656=VECTOR('',#1066,1.);
#657=VECTOR('',#1067,1.);
#658=VECTOR('',#1070,1.);
#659=VECTOR('',#1071,1.);
#660=VECTOR('',#1072,1.);
#661=VECTOR('',#1075,1.);
#662=VECTOR('',#1076,1.);
#663=VECTOR('',#1077,1.);
#664=VECTOR('',#1080,1.);
#665=VECTOR('',#1081,1.);
#666=VECTOR('',#1082,1.);
#667=VECTOR('',#1085,1.);
#668=VECTOR('',#1086,1.);
#669=VECTOR('',#1087,1.);
#670=VECTOR('',#1090,1.);
#671=VECTOR('',#1091,1.);
#672=VECTOR('',#1092,1.);
#673=VECTOR('',#1095,1.);
#674=VECTOR('',#1096,1.);
#675=VECTOR('',#1097,1.);
#676=VECTOR('',#1100,1.);
#677=VECTOR('',#1101,1.);
#678=VECTOR('',#1102,1.);
#679=VECTOR('',#1105,1.);
#680=VECTOR('',#1106,1.);
#681=VECTOR('',#1107,1.);
#682=VECTOR('',#1110,1.);
#683=VECTOR('',#1111,1.);
#684=VECTOR('',#1116,1.);
#685=VECTOR('',#1117,1.);
#686=VECTOR('',#1118,1.);
#687=VECTOR('',#1119,1.);
#688=VECTOR('',#1120,1.);
#689=VECTOR('',#1121,1.);
#690=VECTOR('',#1122,1.);
#691=VECTOR('',#1123,1.);
#692=VECTOR('',#1124,1.);
#693=VECTOR('',#1125,1.);
#694=VECTOR('',#1126,1.);
#695=VECTOR('',#1127,1.);
#696=VECTOR('',#1128,1.);
#697=VECTOR('',#1129,1.);
#698=VECTOR('',#1132,1.);
#699=VECTOR('',#1133,1.);
#700=VECTOR('',#1134,1.);
#701=VECTOR('',#1135,1.);
#702=VECTOR('',#1136,1.);
#703=VECTOR('',#1137,1.);
#704=VECTOR('',#1138,1.);
#705=VECTOR('',#1139,1.);
#706=VECTOR('',#1140,1.);
#707=VECTOR('',#1141,1.);
#708=VECTOR('',#1142,1.);
#709=VECTOR('',#1143,1.);
#710=VECTOR('',#1144,1.);
#711=VECTOR('',#1145,1.);
#712=VECTOR('',#1148,1.);
#713=VECTOR('',#1149,1.);
#714=VECTOR('',#1152,1.);
#715=VECTOR('',#1155,1.);
#716=VECTOR('',#1158,1.);
#717=VECTOR('',#1161,1.);
#718=VECTOR('',#1164,1.);
#719=VECTOR('',#1167,1.);
#720=VECTOR('',#1170,1.);
#721=VECTOR('',#1173,1.);
#722=VECTOR('',#1176,1.);
#723=VECTOR('',#1179,1.);
#724=VECTOR('',#1182,1.);
#725=VECTOR('',#1185,1.);
#726=EDGE_LOOP('',(#12,#13,#14,#15));
#727=EDGE_LOOP('',(#16,#17,#18,#19));
#728=EDGE_LOOP('',(#20,#21,#22,#23));
#729=EDGE_LOOP('',(#24,#25,#26,#27));
#730=EDGE_LOOP('',(#28,#29,#30,#31));
#731=EDGE_LOOP('',(#32,#33,#34,#35));
#732=EDGE_LOOP('',(#36,#37,#38,#39));
#733=EDGE_LOOP('',(#40,#41,#42,#43));
#734=EDGE_LOOP('',(#44,#45,#46,#47));
#735=EDGE_LOOP('',(#48,#49,#50,#51));
#736=EDGE_LOOP('',(#52,#53,#54,#55));
#737=EDGE_LOOP('',(#56,#57,#58,#59));
#738=EDGE_LOOP('',(#60,#61,#62,#63));
#739=EDGE_LOOP('',(#64,#65,#66,#67));
#740=EDGE_LOOP('',(#68,#69,#70,#71));
#741=EDGE_LOOP('',(#72,#73,#74,#75));
#742=EDGE_LOOP('',(#76,#77,#78,#79));
#743=EDGE_LOOP('',(#80,#81,#82,#83));
#744=EDGE_LOOP('',(#84,#85,#86,#87));
#745=EDGE_LOOP('',(#88,#89,#90,#91));
#746=EDGE_LOOP('',(#92,#93,#94,#95));
#747=EDGE_LOOP('',(#96,#97,#98,#99));
#748=EDGE_LOOP('',(#100,#101,#102,#103));
#749=EDGE_LOOP('',(#104,#105,#106,#107));
#750=EDGE_LOOP('',(#108,#109,#110,#111));
#751=EDGE_LOOP('',(#112,#113,#114,#115));
#752=EDGE_LOOP('',(#116,#117,#118,#119));
#753=EDGE_LOOP('',(#120,#121,#122,#123));
#754=EDGE_LOOP('',(#124,#125,#126,#127,#128,#129,#130,#131,#132,#133,#134,
#135,#136,#137));
#755=EDGE_LOOP('',(#138,#139,#140,#141,#142,#143,#144,#145,#146,#147,#148,
#149,#150,#151));
#756=EDGE_LOOP('',(#152,#153,#154,#155,#156,#157,#158,#159,#160,#161,#162,
#163,#164,#165));
#757=EDGE_LOOP('',(#166,#167,#168,#169,#170,#171,#172,#173,#174,#175,#176,
#177,#178,#179));
#758=EDGE_LOOP('',(#180,#181,#182,#183,#184,#185,#186,#187,#188,#189,#190,
#191,#192,#193));
#759=EDGE_LOOP('',(#194,#195,#196,#197,#198,#199,#200,#201,#202,#203,#204,
#205,#206,#207));
#760=EDGE_LOOP('',(#208,#209,#210,#211));
#761=EDGE_LOOP('',(#212,#213,#214,#215));
#762=EDGE_LOOP('',(#216,#217,#218,#219));
#763=EDGE_LOOP('',(#220,#221,#222,#223));
#764=EDGE_LOOP('',(#224,#225,#226,#227));
#765=EDGE_LOOP('',(#228,#229,#230,#231));
#766=EDGE_LOOP('',(#232,#233,#234,#235));
#767=EDGE_LOOP('',(#236,#237,#238,#239));
#768=EDGE_LOOP('',(#240,#241,#242,#243));
#769=EDGE_LOOP('',(#244,#245,#246,#247));
#770=EDGE_LOOP('',(#248,#249,#250,#251));
#771=EDGE_LOOP('',(#252,#253,#254,#255));
#772=EDGE_LOOP('',(#256,#257,#258,#259));
#773=EDGE_LOOP('',(#260,#261,#262,#263));
#774=FACE_BOUND('',#726,.T.);
#775=FACE_BOUND('',#727,.T.);
#776=FACE_BOUND('',#728,.T.);
#777=FACE_BOUND('',#729,.T.);
#778=FACE_BOUND('',#730,.T.);
#779=FACE_BOUND('',#731,.T.);
#780=FACE_BOUND('',#732,.T.);
#781=FACE_BOUND('',#733,.T.);
#782=FACE_BOUND('',#734,.T.);
#783=FACE_BOUND('',#735,.T.);
#784=FACE_BOUND('',#736,.T.);
#785=FACE_BOUND('',#737,.T.);
#786=FACE_BOUND('',#738,.T.);
#787=FACE_BOUND('',#739,.T.);
#788=FACE_BOUND('',#740,.T.);
#789=FACE_BOUND('',#741,.T.);
#790=FACE_BOUND('',#742,.T.);
#791=FACE_BOUND('',#743,.T.);
#792=FACE_BOUND('',#744,.T.);
#793=FACE_BOUND('',#745,.T.);
#794=FACE_BOUND('',#746,.T.);
#795=FACE_BOUND('',#747,.T.);
#796=FACE_BOUND('',#748,.T.);
#797=FACE_BOUND('',#749,.T.);
#798=FACE_BOUND('',#750,.T.);
#799=FACE_BOUND('',#751,.T.);
#800=FACE_BOUND('',#752,.T.);
#801=FACE_BOUND('',#753,.T.);
#802=FACE_BOUND('',#754,.T.);
#803=FACE_BOUND('',#755,.T.);
#804=FACE_BOUND('',#756,.T.);
#805=FACE_BOUND('',#757,.T.);
#806=FACE_BOUND('',#758,.T.);
#807=FACE_BOUND('',#759,.T.);
#808=FACE_BOUND('',#760,.T.);
#809=FACE_BOUND('',#761,.T.);
#810=FACE_BOUND('',#762,.T.);
#811=FACE_BOUND('',#763,.T.);
#812=FACE_BOUND('',#764,.T.);
#813=FACE_BOUND('',#765,.T.);
#814=FACE_BOUND('',#766,.T.);
#815=FACE_BOUND('',#767,.T.);
#816=FACE_BOUND('',#768,.T.);
#817=FACE_BOUND('',#769,.T.);
#818=FACE_BOUND('',#770,.T.);
#819=FACE_BOUND('',#771,.T.);
#820=FACE_BOUND('',#772,.T.);
#821=FACE_BOUND('',#773,.T.);
#822=PLANE('',#925);
#823=PLANE('',#926);
#824=PLANE('',#927);
#825=PLANE('',#928);
#826=PLANE('',#929);
#827=PLANE('',#930);
#828=PLANE('',#931);
#829=PLANE('',#932);
#830=PLANE('',#933);
#831=PLANE('',#934);
#832=PLANE('',#935);
#833=PLANE('',#936);
#834=PLANE('',#937);
#835=PLANE('',#938);
#836=PLANE('',#939);
#837=PLANE('',#940);
#838=PLANE('',#941);
#839=PLANE('',#942);
#840=PLANE('',#943);
#841=PLANE('',#944);
#842=PLANE('',#945);
#843=PLANE('',#946);
#844=PLANE('',#947);
#845=PLANE('',#948);
#846=PLANE('',#949);
#847=PLANE('',#950);
#848=PLANE('',#951);
#849=PLANE('',#952);
#850=PLANE('',#953);
#851=PLANE('',#954);
#852=PLANE('',#955);
#853=PLANE('',#956);
#854=PLANE('',#957);
#855=PLANE('',#958);
#856=PLANE('',#959);
#857=PLANE('',#960);
#858=PLANE('',#961);
#859=PLANE('',#962);
#860=PLANE('',#963);
#861=PLANE('',#964);
#862=PLANE('',#965);
#863=PLANE('',#966);
#864=PLANE('',#967);
#865=PLANE('',#968);
#866=PLANE('',#969);
#867=ADVANCED_FACE('',(#774),#822,.F.);
#868=ADVANCED_FACE('',(#775),#823,.F.);
#869=ADVANCED_FACE('',(#776),#824,.F.);
#870=ADVANCED_FACE('',(#777),#825,.F.);
#871=ADVANCED_FACE('',(#778),#826,.F.);
#872=ADVANCED_FACE('',(#779),#827,.F.);
#873=ADVANCED_FACE('',(#780),#828,.F.);
#874=ADVANCED_FACE('',(#781),#829,.F.);
#875=ADVANCED_FACE('',(#782),#830,.F.);
#876=ADVANCED_FACE('',(#783),#831,.F.);
#877=ADVANCED_FACE('',(#784),#832,.F.);
#878=ADVANCED_FACE('',(#785),#833,.F.);
#879=ADVANCED_FACE('',(#786),#834,.F.);
#880=ADVANCED_FACE('',(#787),#835,.F.);
#881=ADVANCED_FACE('',(#788),#836,.T.);
#882=ADVANCED_FACE('',(#789),#837,.T.);
#883=ADVANCED_FACE('',(#790),#838,.T.);
#884=ADVANCED_FACE('',(#791),#839,.T.);
#885=ADVANCED_FACE('',(#792),#840,.T.);
#886=ADVANCED_FACE('',(#793),#841,.T.);
#887=ADVANCED_FACE('',(#794),#842,.T.);
#888=ADVANCED_FACE('',(#795),#843,.T.);
#889=ADVANCED_FACE('',(#796),#844,.T.);
#890=ADVANCED_FACE('',(#797),#845,.T.);
#891=ADVANCED_FACE('',(#798),#846,.T.);
#892=ADVANCED_FACE('',(#799),#847,.T.);
#893=ADVANCED_FACE('',(#800),#848,.T.);
#894=ADVANCED_FACE('',(#801),#849,.T.);
#895=ADVANCED_FACE('',(#802,#803),#850,.F.);
#896=ADVANCED_FACE('',(#804,#805),#851,.T.);
#897=ADVANCED_FACE('',(#806,#807),#852,.F.);
#898=ADVANCED_FACE('',(#808),#853,.F.);
#899=ADVANCED_FACE('',(#809),#854,.F.);
#900=ADVANCED_FACE('',(#810),#855,.F.);
#901=ADVANCED_FACE('',(#811),#856,.F.);
#902=ADVANCED_FACE('',(#812),#857,.F.);
#903=ADVANCED_FACE('',(#813),#858,.F.);
#904=ADVANCED_FACE('',(#814),#859,.F.);
#905=ADVANCED_FACE('',(#815),#860,.F.);
#906=ADVANCED_FACE('',(#816),#861,.F.);
#907=ADVANCED_FACE('',(#817),#862,.F.);
#908=ADVANCED_FACE('',(#818),#863,.F.);
#909=ADVANCED_FACE('',(#819),#864,.F.);
#910=ADVANCED_FACE('',(#820),#865,.F.);
#911=ADVANCED_FACE('',(#821),#866,.F.);
#912=CLOSED_SHELL('',(#867,#868,#869,#870,#871,#872,#873,#874,#875,#876,
#877,#878,#879,#880,#881,#882,#883,#884,#885,#886,#887,#888,#889,#890,#891,
#892,#893,#894,#895,#896,#897,#898,#899,#900,#901,#902,#903,#904,#905,#906,
#907,#908,#909,#910,#911));
#913=STYLED_ITEM('',(#914),#921);
#914=PRESENTATION_STYLE_ASSIGNMENT((#915));
#915=SURFACE_STYLE_USAGE(.BOTH.,#916);
#916=SURFACE_SIDE_STYLE('',(#917));
#917=SURFACE_STYLE_FILL_AREA(#918);
#918=FILL_AREA_STYLE('',(#919));
#919=FILL_AREA_STYLE_COLOUR('',#920);
#920=COLOUR_RGB('',0.615686274509804,0.811764705882353,0.929411764705882);
#921=MANIFOLD_SOLID_BREP('Part 1',#912);
#922=SHAPE_DEFINITION_REPRESENTATION(#1450,#923);
#923=SHAPE_REPRESENTATION('Part 1',(#924),#1445);
#924=AXIS2_PLACEMENT_3D('',#1188,#970,#971);
#925=AXIS2_PLACEMENT_3D('',#1189,#972,#973);
#926=AXIS2_PLACEMENT_3D('',#1198,#978,#979);
#927=AXIS2_PLACEMENT_3D('',#1204,#983,#984);
#928=AXIS2_PLACEMENT_3D('',#1210,#988,#989);
#929=AXIS2_PLACEMENT_3D('',#1216,#993,#994);
#930=AXIS2_PLACEMENT_3D('',#1222,#998,#999);
#931=AXIS2_PLACEMENT_3D('',#1228,#1003,#1004);
#932=AXIS2_PLACEMENT_3D('',#1234,#1008,#1009);
#933=AXIS2_PLACEMENT_3D('',#1240,#1013,#1014);
#934=AXIS2_PLACEMENT_3D('',#1246,#1018,#1019);
#935=AXIS2_PLACEMENT_3D('',#1252,#1023,#1024);
#936=AXIS2_PLACEMENT_3D('',#1258,#1028,#1029);
#937=AXIS2_PLACEMENT_3D('',#1264,#1033,#1034);
#938=AXIS2_PLACEMENT_3D('',#1270,#1038,#1039);
#939=AXIS2_PLACEMENT_3D('',#1273,#1042,#1043);
#940=AXIS2_PLACEMENT_3D('',#1282,#1048,#1049);
#941=AXIS2_PLACEMENT_3D('',#1288,#1053,#1054);
#942=AXIS2_PLACEMENT_3D('',#1294,#1058,#1059);
#943=AXIS2_PLACEMENT_3D('',#1300,#1063,#1064);
#944=AXIS2_PLACEMENT_3D('',#1306,#1068,#1069);
#945=AXIS2_PLACEMENT_3D('',#1312,#1073,#1074);
#946=AXIS2_PLACEMENT_3D('',#1318,#1078,#1079);
#947=AXIS2_PLACEMENT_3D('',#1324,#1083,#1084);
#948=AXIS2_PLACEMENT_3D('',#1330,#1088,#1089);
#949=AXIS2_PLACEMENT_3D('',#1336,#1093,#1094);
#950=AXIS2_PLACEMENT_3D('',#1342,#1098,#1099);
#951=AXIS2_PLACEMENT_3D('',#1348,#1103,#1104);
#952=AXIS2_PLACEMENT_3D('',#1354,#1108,#1109);
#953=AXIS2_PLACEMENT_3D('',#1357,#1112,#1113);
#954=AXIS2_PLACEMENT_3D('',#1358,#1114,#1115);
#955=AXIS2_PLACEMENT_3D('',#1387,#1130,#1131);
#956=AXIS2_PLACEMENT_3D('',#1416,#1146,#1147);
#957=AXIS2_PLACEMENT_3D('',#1419,#1150,#1151);
#958=AXIS2_PLACEMENT_3D('',#1421,#1153,#1154);
#959=AXIS2_PLACEMENT_3D('',#1423,#1156,#1157);
#960=AXIS2_PLACEMENT_3D('',#1425,#1159,#1160);
#961=AXIS2_PLACEMENT_3D('',#1427,#1162,#1163);
#962=AXIS2_PLACEMENT_3D('',#1429,#1165,#1166);
#963=AXIS2_PLACEMENT_3D('',#1431,#1168,#1169);
#964=AXIS2_PLACEMENT_3D('',#1433,#1171,#1172);
#965=AXIS2_PLACEMENT_3D('',#1435,#1174,#1175);
#966=AXIS2_PLACEMENT_3D('',#1437,#1177,#1178);
#967=AXIS2_PLACEMENT_3D('',#1439,#1180,#1181);
#968=AXIS2_PLACEMENT_3D('',#1441,#1183,#1184);
#969=AXIS2_PLACEMENT_3D('',#1443,#1186,#1187);
#970=DIRECTION('',(0.,0.,1.));
#971=DIRECTION('',(1.,0.,0.));
#972=DIRECTION('',(0.997750120557373,0.0670425009061194,0.));
#973=DIRECTION('',(-0.0670425009061194,0.997750120557373,0.));
#974=DIRECTION('',(-0.0670425009061194,0.997750120557373,0.));
#975=DIRECTION('',(0.,0.,-1.));
#976=DIRECTION('',(-0.0670425009061194,0.997750120557373,0.));
#977=DIRECTION('',(0.,0.,-1.));
#978=DIRECTION('',(0.321548625160197,-0.946893067699615,0.));
#979=DIRECTION('',(0.946893067699615,0.321548625160197,0.));
#980=DIRECTION('',(0.946893067699615,0.321548625160197,0.));
#981=DIRECTION('',(0.946893067699615,0.321548625160197,0.));
#982=DIRECTION('',(0.,0.,-1.));
#983=DIRECTION('',(-0.321552317832064,-0.946891813723631,0.));
#984=DIRECTION('',(0.946891813723631,-0.321552317832065,0.));
#985=DIRECTION('',(0.946891813723631,-0.321552317832064,0.));
#986=DIRECTION('',(0.946891813723631,-0.321552317832065,0.));
#987=DIRECTION('',(0.,0.,-1.));
#988=DIRECTION('',(-0.998083362170163,0.0618837794506952,0.));
#989=DIRECTION('',(-0.0618837794506952,-0.998083362170164,0.));
#990=DIRECTION('',(-0.0618837794506952,-0.998083362170163,0.));
#991=DIRECTION('',(-0.0618837794506952,-0.998083362170163,0.));
#992=DIRECTION('',(0.,0.,-1.));
#993=DIRECTION('',(-0.712072640008597,-0.702105800681911,0.));
#994=DIRECTION('',(0.702105800681911,-0.712072640008597,0.));
#995=DIRECTION('',(0.702105800681911,-0.712072640008597,0.));
#996=DIRECTION('',(0.702105800681911,-0.712072640008597,0.));
#997=DIRECTION('',(0.,0.,-1.));
#998=DIRECTION('',(-0.771624971488832,0.636077749473175,0.));
#999=DIRECTION('',(-0.636077749473175,-0.771624971488832,0.));
#1000=DIRECTION('',(-0.636077749473175,-0.771624971488832,0.));
#1001=DIRECTION('',(-0.636077749473175,-0.771624971488832,0.));
#1002=DIRECTION('',(0.,0.,-1.));
#1003=DIRECTION('',(0.3123210589323,0.949976608210648,0.));
#1004=DIRECTION('',(-0.949976608210648,0.3123210589323,0.));
#1005=DIRECTION('',(-0.949976608210648,0.3123210589323,0.));
#1006=DIRECTION('',(0.949976608210648,-0.3123210589323,0.));
#1007=DIRECTION('',(0.,0.,-1.));
#1008=DIRECTION('',(-0.953296959055555,0.302034613671068,0.));
#1009=DIRECTION('',(-0.302034613671068,-0.953296959055555,0.));
#1010=DIRECTION('',(-0.302034613671068,-0.953296959055555,0.));
#1011=DIRECTION('',(0.302034613671068,0.953296959055555,0.));
#1012=DIRECTION('',(0.,0.,-1.));
#1013=DIRECTION('',(-0.316227911817779,0.948683249450188,0.));
#1014=DIRECTION('',(-0.948683249450188,-0.316227911817779,0.));
#1015=DIRECTION('',(-0.948683249450188,-0.316227911817779,0.));
#1016=DIRECTION('',(-0.948683249450188,-0.316227911817779,0.));
#1017=DIRECTION('',(0.,0.,-1.));
#1018=DIRECTION('',(0.317117907794809,0.948386119972157,0.));
#1019=DIRECTION('',(-0.948386119972157,0.317117907794809,0.));
#1020=DIRECTION('',(-0.948386119972157,0.317117907794809,0.));
#1021=DIRECTION('',(-0.948386119972157,0.317117907794809,0.));
#1022=DIRECTION('',(0.,0.,-1.));
#1023=DIRECTION('',(0.950495351742625,0.310738775043706,0.));
#1024=DIRECTION('',(-0.310738775043706,0.950495351742625,0.));
#1025=DIRECTION('',(-0.310738775043706,0.950495351742626,0.));
#1026=DIRECTION('',(-0.310738775043706,0.950495351742626,0.));
#1027=DIRECTION('',(0.,0.,-1.));
#1028=DIRECTION('',(-0.311835677088968,0.950136048413313,0.));
#1029=DIRECTION('',(-0.950136048413313,-0.311835677088968,0.));
#1030=DIRECTION('',(-0.950136048413313,-0.311835677088968,0.));
#1031=DIRECTION('',(0.950136048413313,0.311835677088968,0.));
#1032=DIRECTION('',(0.,0.,-1.));
#1033=DIRECTION('',(0.774028312923549,0.633150985778847,0.));
#1034=DIRECTION('',(-0.633150985778847,0.774028312923549,0.));
#1035=DIRECTION('',(-0.633150985778847,0.774028312923549,0.));
#1036=DIRECTION('',(-0.633150985778847,0.774028312923549,0.));
#1037=DIRECTION('',(0.,0.,-1.));
#1038=DIRECTION('',(0.706224484360669,-0.707987978492225,0.));
#1039=DIRECTION('',(0.707987978492225,0.706224484360669,0.));
#1040=DIRECTION('',(0.707987978492225,0.706224484360669,0.));
#1041=DIRECTION('',(0.707987978492226,0.706224484360669,0.));
#1042=DIRECTION('',(0.997750120557373,0.0670425009061194,0.));
#1043=DIRECTION('',(-0.0670425009061194,0.997750120557373,0.));
#1044=DIRECTION('',(-0.0670425009061194,0.997750120557373,0.));
#1045=DIRECTION('',(0.,0.,-1.));
#1046=DIRECTION('',(-0.0670425009061194,0.997750120557373,0.));
#1047=DIRECTION('',(0.,0.,-1.));
#1048=DIRECTION('',(0.706224484360669,-0.707987978492225,0.));
#1049=DIRECTION('',(0.707987978492225,0.706224484360669,0.));
#1050=DIRECTION('',(0.707987978492226,0.706224484360669,0.));
#1051=DIRECTION('',(0.707987978492226,0.706224484360669,0.));
#1052=DIRECTION('',(0.,0.,-1.));
#1053=DIRECTION('',(0.774028312923549,0.633150985778847,0.));
#1054=DIRECTION('',(-0.633150985778847,0.774028312923549,0.));
#1055=DIRECTION('',(-0.633150985778847,0.774028312923549,0.));
#1056=DIRECTION('',(-0.633150985778847,0.774028312923549,0.));
#1057=DIRECTION('',(0.,0.,-1.));
#1058=DIRECTION('',(-0.311835677088968,0.950136048413313,0.));
#1059=DIRECTION('',(-0.950136048413313,-0.311835677088968,0.));
#1060=DIRECTION('',(0.950136048413313,0.311835677088968,0.));
#1061=DIRECTION('',(0.950136048413313,0.311835677088968,0.));
#1062=DIRECTION('',(0.,0.,-1.));
#1063=DIRECTION('',(0.950495351742625,0.310738775043706,0.));
#1064=DIRECTION('',(-0.310738775043706,0.950495351742625,0.));
#1065=DIRECTION('',(-0.310738775043706,0.950495351742626,0.));
#1066=DIRECTION('',(-0.310738775043706,0.950495351742626,0.));
#1067=DIRECTION('',(0.,0.,-1.));
#1068=DIRECTION('',(0.317117907794809,0.948386119972157,0.));
#1069=DIRECTION('',(-0.948386119972157,0.317117907794809,0.));
#1070=DIRECTION('',(-0.948386119972157,0.317117907794809,0.));
#1071=DIRECTION('',(-0.948386119972157,0.317117907794809,0.));
#1072=DIRECTION('',(0.,0.,-1.));
#1073=DIRECTION('',(-0.316227911817779,0.948683249450188,0.));
#1074=DIRECTION('',(-0.948683249450188,-0.316227911817779,0.));
#1075=DIRECTION('',(-0.948683249450188,-0.316227911817779,0.));
#1076=DIRECTION('',(-0.948683249450188,-0.316227911817779,0.));
#1077=DIRECTION('',(0.,0.,-1.));
#1078=DIRECTION('',(-0.953296959055555,0.302034613671068,0.));
#1079=DIRECTION('',(-0.302034613671068,-0.953296959055555,0.));
#1080=DIRECTION('',(0.302034613671068,0.953296959055555,0.));
#1081=DIRECTION('',(0.302034613671068,0.953296959055555,0.));
#1082=DIRECTION('',(0.,0.,-1.));
#1083=DIRECTION('',(0.3123210589323,0.949976608210648,0.));
#1084=DIRECTION('',(-0.949976608210648,0.3123210589323,0.));
#1085=DIRECTION('',(0.949976608210648,-0.3123210589323,0.));
#1086=DIRECTION('',(0.949976608210648,-0.3123210589323,0.));
#1087=DIRECTION('',(0.,0.,-1.));
#1088=DIRECTION('',(-0.771624971488832,0.636077749473175,0.));
#1089=DIRECTION('',(-0.636077749473175,-0.771624971488832,0.));
#1090=DIRECTION('',(-0.636077749473175,-0.771624971488832,0.));
#1091=DIRECTION('',(-0.636077749473175,-0.771624971488832,0.));
#1092=DIRECTION('',(0.,0.,-1.));
#1093=DIRECTION('',(-0.712072640008597,-0.702105800681911,0.));
#1094=DIRECTION('',(0.702105800681911,-0.712072640008597,0.));
#1095=DIRECTION('',(0.702105800681911,-0.712072640008597,0.));
#1096=DIRECTION('',(0.702105800681911,-0.712072640008597,0.));
#1097=DIRECTION('',(0.,0.,-1.));
#1098=DIRECTION('',(-0.998083362170163,0.0618837794506952,0.));
#1099=DIRECTION('',(-0.0618837794506952,-0.998083362170164,0.));
#1100=DIRECTION('',(-0.0618837794506952,-0.998083362170163,0.));
#1101=DIRECTION('',(-0.0618837794506952,-0.998083362170163,0.));
#1102=DIRECTION('',(0.,0.,-1.));
#1103=DIRECTION('',(-0.321552317832064,-0.946891813723631,0.));
#1104=DIRECTION('',(0.946891813723631,-0.321552317832065,0.));
#1105=DIRECTION('',(0.946891813723631,-0.321552317832065,0.));
#1106=DIRECTION('',(0.946891813723631,-0.321552317832065,0.));
#1107=DIRECTION('',(0.,0.,-1.));
#1108=DIRECTION('',(0.321548625160197,-0.946893067699615,0.));
#1109=DIRECTION('',(0.946893067699615,0.321548625160197,0.));
#1110=DIRECTION('',(0.946893067699615,0.321548625160197,0.));
#1111=DIRECTION('',(0.946893067699615,0.321548625160197,0.));
#1112=DIRECTION('',(0.,0.,-1.));
#1113=DIRECTION('',(-1.,0.,0.));
#1114=DIRECTION('',(0.,0.,-1.));
#1115=DIRECTION('',(-1.,0.,0.));
#1116=DIRECTION('',(-0.0670425009061195,0.997750120557373,0.));
#1117=DIRECTION('',(0.946893067699615,0.321548625160197,0.));
#1118=DIRECTION('',(0.946891813723631,-0.321552317832065,0.));
#1119=DIRECTION('',(-0.0618837794506952,-0.998083362170163,0.));
#1120=DIRECTION('',(0.702105800681911,-0.712072640008597,0.));
#1121=DIRECTION('',(-0.636077749473175,-0.771624971488832,0.));
#1122=DIRECTION('',(0.949976608210648,-0.3123210589323,0.));
#1123=DIRECTION('',(0.302034613671068,0.953296959055555,0.));
#1124=DIRECTION('',(-0.948683249450188,-0.316227911817779,0.));
#1125=DIRECTION('',(-0.948386119972157,0.317117907794809,0.));
#1126=DIRECTION('',(-0.310738775043706,0.950495351742626,0.));
#1127=DIRECTION('',(0.950136048413313,0.311835677088968,0.));
#1128=DIRECTION('',(-0.633150985778847,0.774028312923549,0.));
#1129=DIRECTION('',(0.707987978492225,0.706224484360669,0.));
#1130=DIRECTION('',(0.,0.,-1.));
#1131=DIRECTION('',(-1.,0.,0.));
#1132=DIRECTION('',(-0.0670425009061195,0.997750120557373,0.));
#1133=DIRECTION('',(0.707987978492225,0.706224484360669,0.));
#1134=DIRECTION('',(-0.633150985778847,0.774028312923549,0.));
#1135=DIRECTION('',(0.950136048413313,0.311835677088968,0.));
#1136=DIRECTION('',(-0.310738775043706,0.950495351742626,0.));
#1137=DIRECTION('',(-0.948386119972157,0.317117907794809,0.));
#1138=DIRECTION('',(-0.948683249450188,-0.316227911817779,0.));
#1139=DIRECTION('',(0.302034613671068,0.953296959055555,0.));
#1140=DIRECTION('',(0.949976608210648,-0.3123210589323,0.));
#1141=DIRECTION('',(-0.636077749473175,-0.771624971488832,0.));
#1142=DIRECTION('',(0.702105800681911,-0.712072640008597,0.));
#1143=DIRECTION('',(-0.0618837794506952,-0.998083362170163,0.));
#1144=DIRECTION('',(0.946891813723631,-0.321552317832065,0.));
#1145=DIRECTION('',(0.946893067699615,0.321548625160197,0.));
#1146=DIRECTION('',(0.997750120557373,0.0670425009061195,0.));
#1147=DIRECTION('',(-0.0670425009061195,0.997750120557373,0.));
#1148=DIRECTION('',(0.,0.,-1.));
#1149=DIRECTION('',(0.,0.,-1.));
#1150=DIRECTION('',(0.321548625160197,-0.946893067699615,0.));
#1151=DIRECTION('',(0.946893067699615,0.321548625160197,0.));
#1152=DIRECTION('',(0.,0.,-1.));
#1153=DIRECTION('',(-0.321552317832065,-0.946891813723631,0.));
#1154=DIRECTION('',(0.946891813723631,-0.321552317832065,0.));
#1155=DIRECTION('',(0.,0.,-1.));
#1156=DIRECTION('',(-0.998083362170163,0.0618837794506952,0.));
#1157=DIRECTION('',(-0.0618837794506952,-0.998083362170163,0.));
#1158=DIRECTION('',(0.,0.,-1.));
#1159=DIRECTION('',(-0.712072640008597,-0.702105800681911,0.));
#1160=DIRECTION('',(0.702105800681911,-0.712072640008597,0.));
#1161=DIRECTION('',(0.,0.,-1.));
#1162=DIRECTION('',(-0.771624971488832,0.636077749473175,0.));
#1163=DIRECTION('',(-0.636077749473175,-0.771624971488832,0.));
#1164=DIRECTION('',(0.,0.,-1.));
#1165=DIRECTION('',(0.3123210589323,0.949976608210648,0.));
#1166=DIRECTION('',(-0.949976608210648,0.3123210589323,0.));
#1167=DIRECTION('',(0.,0.,-1.));
#1168=DIRECTION('',(-0.953296959055555,0.302034613671068,0.));
#1169=DIRECTION('',(-0.302034613671068,-0.953296959055555,0.));
#1170=DIRECTION('',(0.,0.,-1.));
#1171=DIRECTION('',(-0.316227911817779,0.948683249450188,0.));
#1172=DIRECTION('',(-0.948683249450188,-0.316227911817779,0.));
#1173=DIRECTION('',(0.,0.,-1.));
#1174=DIRECTION('',(0.317117907794809,0.948386119972157,0.));
#1175=DIRECTION('',(-0.948386119972157,0.317117907794809,0.));
#1176=DIRECTION('',(0.,0.,-1.));
#1177=DIRECTION('',(0.950495351742625,0.310738775043706,0.));
#1178=DIRECTION('',(-0.310738775043706,0.950495351742625,0.));
#1179=DIRECTION('',(0.,0.,-1.));
#1180=DIRECTION('',(-0.311835677088968,0.950136048413313,0.));
#1181=DIRECTION('',(-0.950136048413313,-0.311835677088968,0.));
#1182=DIRECTION('',(0.,0.,-1.));
#1183=DIRECTION('',(0.774028312923549,0.633150985778847,0.));
#1184=DIRECTION('',(-0.633150985778847,0.774028312923549,0.));
#1185=DIRECTION('',(0.,0.,-1.));
#1186=DIRECTION('',(0.706224484360669,-0.707987978492225,0.));
#1187=DIRECTION('',(0.707987978492225,0.706224484360669,0.));
#1188=CARTESIAN_POINT('',(0.,0.,0.));
#1189=CARTESIAN_POINT('',(-0.0347215190099854,0.0228175465108861,0.0127));
#1190=CARTESIAN_POINT('',(-0.0347215190099854,0.0228175465108861,0.002032));
#1191=CARTESIAN_POINT('',(-0.0333599862458487,0.00255473618609811,0.002032));
#1192=CARTESIAN_POINT('',(-0.0356741415623462,0.0369948109866656,0.002032));
#1193=CARTESIAN_POINT('',(-0.0333599862458487,0.00255473618609811,0.0127));
#1194=CARTESIAN_POINT('',(-0.0333599862458487,0.00255473618609811,0.0127));
#1195=CARTESIAN_POINT('',(-0.0347215190099854,0.0228175465108861,0.0127));
#1196=CARTESIAN_POINT('',(-0.0356741415623462,0.0369948109866656,0.0127));
#1197=CARTESIAN_POINT('',(-0.0356741415623462,0.0369948109866656,0.0127));
#1198=CARTESIAN_POINT('',(-0.0174074852189457,0.0431978537946181,0.0127));
#1199=CARTESIAN_POINT('',(-0.0174074852189457,0.0431978537946181,0.002032));
#1200=CARTESIAN_POINT('',(4.18439934785075E-9,0.0491091382638714,0.002032));
#1201=CARTESIAN_POINT('',(-0.0174074852189457,0.0431978537946181,0.0127));
#1202=CARTESIAN_POINT('',(4.18439934785075E-9,0.0491091382638714,0.0127));
#1203=CARTESIAN_POINT('',(4.18439934785075E-9,0.0491091382638714,0.0127));
#1204=CARTESIAN_POINT('',(0.0194074370815647,0.042518622915858,0.0127));
#1205=CARTESIAN_POINT('',(0.0194074370815647,0.042518622915858,0.002032));
#1206=CARTESIAN_POINT('',(0.0356658164778281,0.0369974857560563,0.002032));
#1207=CARTESIAN_POINT('',(0.0194074370815647,0.042518622915858,0.0127));
#1208=CARTESIAN_POINT('',(0.0356658164778281,0.0369974857560563,0.0127));
#1209=CARTESIAN_POINT('',(0.0356658164778281,0.0369974857560563,0.0127));
#1210=CARTESIAN_POINT('',(0.0348113333259588,0.0232160809241982,0.0127));
#1211=CARTESIAN_POINT('',(0.0348113333259588,0.0232160809241982,0.002032));
#1212=CARTESIAN_POINT('',(0.033529926372478,0.00254909885246883,0.002032));
#1213=CARTESIAN_POINT('',(0.0348113333259588,0.0232160809241982,0.0127));
#1214=CARTESIAN_POINT('',(0.033529926372478,0.00254909885246883,0.0127));
#1215=CARTESIAN_POINT('',(0.033529926372478,0.00254909885246883,0.0127));
#1216=CARTESIAN_POINT('',(0.0426202752201172,-0.00667029329078188,0.0127));
#1217=CARTESIAN_POINT('',(0.0426202752201172,-0.00667029329078188,0.002032));
#1218=CARTESIAN_POINT('',(0.0446436886478072,-0.00872243036169725,0.002032));
#1219=CARTESIAN_POINT('',(0.0426202752201172,-0.00667029329078188,0.0127));
#1220=CARTESIAN_POINT('',(0.0446436886478072,-0.00872243036169725,0.0127));
#1221=CARTESIAN_POINT('',(0.0446436886478072,-0.00872243036169725,0.0127));
#1222=CARTESIAN_POINT('',(0.0373570143405026,-0.0175618841223093,0.0127));
#1223=CARTESIAN_POINT('',(0.0373570143405026,-0.0175618841223093,0.002032));
#1224=CARTESIAN_POINT('',(0.0289856897129065,-0.027717125572655,0.002032));
#1225=CARTESIAN_POINT('',(0.0373570143405026,-0.0175618841223093,0.0127));
#1226=CARTESIAN_POINT('',(0.0289856897129065,-0.027717125572655,0.0127));
#1227=CARTESIAN_POINT('',(0.0289856897129065,-0.027717125572655,0.0127));
#1228=CARTESIAN_POINT('',(0.0243567383733755,-0.026195278643359,0.0127));
#1229=CARTESIAN_POINT('',(0.0243567383733755,-0.026195278643359,0.002032));
#1230=CARTESIAN_POINT('',(0.0200530575086645,-0.024780369946286,0.002032));
#1231=CARTESIAN_POINT('',(0.0243567383733755,-0.026195278643359,0.0127));
#1232=CARTESIAN_POINT('',(0.0200530575086645,-0.024780369946286,0.0127));
#1233=CARTESIAN_POINT('',(0.0200530575086645,-0.024780369946286,0.0127));
#1234=CARTESIAN_POINT('',(0.0220644055283435,-0.018432051363004,0.0127));
#1235=CARTESIAN_POINT('',(0.0220644055283435,-0.018432051363004,0.002032));
#1236=CARTESIAN_POINT('',(0.0161680975895561,-0.0370422773877029,0.002032));
#1237=CARTESIAN_POINT('',(0.0220644055283435,-0.018432051363004,0.0127));
#1238=CARTESIAN_POINT('',(0.0161680975895561,-0.0370422773877029,0.0127));
#1239=CARTESIAN_POINT('',(0.0161680975895561,-0.0370422773877029,0.0127));
#1240=CARTESIAN_POINT('',(0.0085060283320914,-0.0395963017819309,0.0127));
#1241=CARTESIAN_POINT('',(0.0085060283320914,-0.0395963017819309,0.002032));
#1242=CARTESIAN_POINT('',(-1.00502120139491E-6,-0.0424319810190578,0.002032));
#1243=CARTESIAN_POINT('',(0.0085060283320914,-0.0395963017819309,0.0127));
#1244=CARTESIAN_POINT('',(-1.00502120139491E-6,-0.0424319810190578,0.0127));
#1245=CARTESIAN_POINT('',(-1.00502120139491E-6,-0.0424319810190578,0.0127));
#1246=CARTESIAN_POINT('',(-0.00875083514087396,-0.0395062445888452,0.0127));
#1247=CARTESIAN_POINT('',(-0.00875083514087396,-0.0395062445888452,0.002032));
#1248=CARTESIAN_POINT('',(-0.0161120352261275,-0.0370448332282876,0.002032));
#1249=CARTESIAN_POINT('',(-0.00875083514087396,-0.0395062445888452,0.0127));
#1250=CARTESIAN_POINT('',(-0.0161120352261275,-0.0370448332282876,0.0127));
#1251=CARTESIAN_POINT('',(-0.0161120352261275,-0.0370448332282876,0.0127));
#1252=CARTESIAN_POINT('',(-0.0170315217967218,-0.0342322852570319,0.0127));
#1253=CARTESIAN_POINT('',(-0.0170315217967218,-0.0342322852570319,0.002032));
#1254=CARTESIAN_POINT('',(-0.020123802269618,-0.0247735422489894,0.002032));
#1255=CARTESIAN_POINT('',(-0.0170315217967218,-0.0342322852570319,0.0127));
#1256=CARTESIAN_POINT('',(-0.020123802269618,-0.0247735422489894,0.0127));
#1257=CARTESIAN_POINT('',(-0.020123802269618,-0.0247735422489894,0.0127));
#1258=CARTESIAN_POINT('',(-0.0244541374878307,-0.026194762943698,0.0127));
#1259=CARTESIAN_POINT('',(-0.0244541374878307,-0.026194762943698,0.002032));
#1260=CARTESIAN_POINT('',(-0.0290962216831625,-0.0277182999893375,0.002032));
#1261=CARTESIAN_POINT('',(-0.0244541374878307,-0.026194762943698,0.0127));
#1262=CARTESIAN_POINT('',(-0.0290962216831625,-0.0277182999893375,0.0127));
#1263=CARTESIAN_POINT('',(-0.0290962216831625,-0.0277182999893375,0.0127));
#1264=CARTESIAN_POINT('',(-0.0370681562049614,-0.0179725945142767,0.0127));
#1265=CARTESIAN_POINT('',(-0.0370681562049614,-0.0179725945142767,0.002032));
#1266=CARTESIAN_POINT('',(-0.0446484774450936,-0.00870563703856424,0.002032));
#1267=CARTESIAN_POINT('',(-0.0370681562049614,-0.0179725945142767,0.0127));
#1268=CARTESIAN_POINT('',(-0.0446484774450936,-0.00870563703856424,0.0127));
#1269=CARTESIAN_POINT('',(-0.0446484774450936,-0.00870563703856424,0.0127));
#1270=CARTESIAN_POINT('',(-0.0417485627835406,-0.00581294563876572,0.0127));
#1271=CARTESIAN_POINT('',(-0.0417485627835406,-0.00581294563876572,0.002032));
#1272=CARTESIAN_POINT('',(-0.0417485627835406,-0.00581294563876572,0.0127));
#1273=CARTESIAN_POINT('',(-0.0326940907650127,0.0229537768727273,0.0127));
#1274=CARTESIAN_POINT('',(-0.0326940907650127,0.0229537768727273,0.));
#1275=CARTESIAN_POINT('',(-0.0335420146584511,0.0355728790163994,0.));
#1276=CARTESIAN_POINT('',(-0.0312705954092145,0.00176881742663685,0.));
#1277=CARTESIAN_POINT('',(-0.0335420146584511,0.0355728790163994,0.0127));
#1278=CARTESIAN_POINT('',(-0.0335420146584511,0.0355728790163994,0.0127));
#1279=CARTESIAN_POINT('',(-0.0326940907650127,0.0229537768727273,0.0127));
#1280=CARTESIAN_POINT('',(-0.0312705954092145,0.00176881742663685,0.0127));
#1281=CARTESIAN_POINT('',(-0.0312705954092145,0.00176881742663685,0.0127));
#1282=CARTESIAN_POINT('',(-0.0403135146313198,-0.00725157721106193,0.0127));
#1283=CARTESIAN_POINT('',(-0.0403135146313198,-0.00725157721106193,0.));
#1284=CARTESIAN_POINT('',(-0.04191,-0.00884408596903084,0.));
#1285=CARTESIAN_POINT('',(-0.0403135146313198,-0.00725157721106193,0.0127));
#1286=CARTESIAN_POINT('',(-0.04191,-0.00884408596903084,0.0127));
#1287=CARTESIAN_POINT('',(-0.04191,-0.00884408596903084,0.0127));
#1288=CARTESIAN_POINT('',(-0.0354953306731008,-0.0166860317111742,0.0127));
#1289=CARTESIAN_POINT('',(-0.0354953306731008,-0.0166860317111742,0.));
#1290=CARTESIAN_POINT('',(-0.02840575809112,-0.0253530479967595,0.));
#1291=CARTESIAN_POINT('',(-0.0354953306731008,-0.0166860317111742,0.0127));
#1292=CARTESIAN_POINT('',(-0.02840575809112,-0.0253530479967595,0.0127));
#1293=CARTESIAN_POINT('',(-0.02840575809112,-0.0253530479967595,0.0127));
#1294=CARTESIAN_POINT('',(-0.0250877875836755,-0.0242640864933221,0.0127));
#1295=CARTESIAN_POINT('',(-0.0250877875836755,-0.0242640864933221,0.));
#1296=CARTESIAN_POINT('',(-0.018824546144636,-0.022208483889699,0.));
#1297=CARTESIAN_POINT('',(-0.0250877875836755,-0.0242640864933221,0.0127));
#1298=CARTESIAN_POINT('',(-0.018824546144636,-0.022208483889699,0.0127));
#1299=CARTESIAN_POINT('',(-0.018824546144636,-0.022208483889699,0.0127));
#1300=CARTESIAN_POINT('',(-0.0151001152419808,-0.0336008640661431,0.0127));
#1301=CARTESIAN_POINT('',(-0.0151001152419808,-0.0336008640661431,0.));
#1302=CARTESIAN_POINT('',(-0.0144982523968188,-0.0354418568313122,0.));
#1303=CARTESIAN_POINT('',(-0.0151001152419808,-0.0336008640661431,0.0127));
#1304=CARTESIAN_POINT('',(-0.0144982523968188,-0.0354418568313122,0.0127));
#1305=CARTESIAN_POINT('',(-0.0144982523968188,-0.0354418568313122,0.0127));
#1306=CARTESIAN_POINT('',(-0.0081064515522349,-0.0375791239930617,0.0127));
#1307=CARTESIAN_POINT('',(-0.0081064515522349,-0.0375791239930617,0.));
#1308=CARTESIAN_POINT('',(8.67361737988404E-18,-0.0402897298336029,0.));
#1309=CARTESIAN_POINT('',(-0.0081064515522349,-0.0375791239930617,0.0127));
#1310=CARTESIAN_POINT('',(8.67361737988404E-18,-0.0402897298336029,0.0127));
#1311=CARTESIAN_POINT('',(8.67361737988404E-18,-0.0402897298336029,0.0127));
#1312=CARTESIAN_POINT('',(0.00786345321527768,-0.0376685774190481,0.0127));
#1313=CARTESIAN_POINT('',(0.00786345321527768,-0.0376685774190481,0.));
#1314=CARTESIAN_POINT('',(0.0145436115562916,-0.0354418568313122,0.));
#1315=CARTESIAN_POINT('',(0.00786345321527768,-0.0376685774190481,0.0127));
#1316=CARTESIAN_POINT('',(0.0145436115562916,-0.0354418568313122,0.0127));
#1317=CARTESIAN_POINT('',(0.0145436115562916,-0.0354418568313122,0.0127));
#1318=CARTESIAN_POINT('',(0.0201273061075426,-0.0178183170280244,0.0127));
#1319=CARTESIAN_POINT('',(0.0201273061075426,-0.0178183170280244,0.));
#1320=CARTESIAN_POINT('',(0.0187363624572754,-0.022208483889699,0.));
#1321=CARTESIAN_POINT('',(0.0201273061075426,-0.0178183170280244,0.0127));
#1322=CARTESIAN_POINT('',(0.0187363624572754,-0.022208483889699,0.0127));
#1323=CARTESIAN_POINT('',(0.0187363624572754,-0.022208483889699,0.0127));
#1324=CARTESIAN_POINT('',(0.0249913747651259,-0.024264926175475,0.0127));
#1325=CARTESIAN_POINT('',(0.0249913747651259,-0.024264926175475,0.));
#1326=CARTESIAN_POINT('',(0.028301078826189,-0.0253530479967594,0.));
#1327=CARTESIAN_POINT('',(0.0249913747651259,-0.024264926175475,0.0127));
#1328=CARTESIAN_POINT('',(0.028301078826189,-0.0253530479967594,0.0127));
#1329=CARTESIAN_POINT('',(0.028301078826189,-0.0253530479967594,0.0127));
#1330=CARTESIAN_POINT('',(0.0357890723984373,-0.0162693741353798,0.0127));
#1331=CARTESIAN_POINT('',(0.0357890723984373,-0.0162693741353798,0.));
#1332=CARTESIAN_POINT('',(0.04191,-0.00884408596903084,0.));
#1333=CARTESIAN_POINT('',(0.0357890723984373,-0.0162693741353798,0.0127));
#1334=CARTESIAN_POINT('',(0.04191,-0.00884408596903084,0.0127));
#1335=CARTESIAN_POINT('',(0.04191,-0.00884408596903084,0.0127));
#1336=CARTESIAN_POINT('',(0.0411733436156198,-0.00809697227776752,0.0127));
#1337=CARTESIAN_POINT('',(0.0411733436156198,-0.00809697227776752,0.));
#1338=CARTESIAN_POINT('',(0.0314456447958946,0.00176881742663682,0.));
#1339=CARTESIAN_POINT('',(0.0411733436156198,-0.00809697227776752,0.0127));
#1340=CARTESIAN_POINT('',(0.0314456447958946,0.00176881742663682,0.0127));
#1341=CARTESIAN_POINT('',(0.0314456447958946,0.00176881742663682,0.0127));
#1342=CARTESIAN_POINT('',(0.0327832279340291,0.0233418287640421,0.0127));
#1343=CARTESIAN_POINT('',(0.0327832279340291,0.0233418287640421,0.));
#1344=CARTESIAN_POINT('',(0.033541585046226,0.0355728790163995,0.));
#1345=CARTESIAN_POINT('',(0.0327832279340291,0.0233418287640421,0.0127));
#1346=CARTESIAN_POINT('',(0.033541585046226,0.0355728790163995,0.0127));
#1347=CARTESIAN_POINT('',(0.033541585046226,0.0355728790163995,0.0127));
#1348=CARTESIAN_POINT('',(0.0187540427717299,0.0405945387503717,0.0127));
#1349=CARTESIAN_POINT('',(0.0187540427717299,0.0405945387503717,0.));
#1350=CARTESIAN_POINT('',(1.38777878078145E-17,0.0469631711902879,0.));
#1351=CARTESIAN_POINT('',(0.0187540427717299,0.0405945387503717,0.0127));
#1352=CARTESIAN_POINT('',(1.38777878078145E-17,0.0469631711902879,0.0127));
#1353=CARTESIAN_POINT('',(1.38777878078145E-17,0.0469631711902879,0.0127));
#1354=CARTESIAN_POINT('',(-0.0167540984126202,0.0412737670810525,0.0127));
#1355=CARTESIAN_POINT('',(-0.0167540984126202,0.0412737670810525,0.));
#1356=CARTESIAN_POINT('',(-0.0167540984126202,0.0412737670810525,0.0127));
#1357=CARTESIAN_POINT('',(0.,0.,0.0127));
#1358=CARTESIAN_POINT('',(0.,0.,0.));
#1359=CARTESIAN_POINT('',(-0.0374748756462642,0.018330272316915,0.));
#1360=CARTESIAN_POINT('',(-0.038872331918189,0.0391277089420647,0.));
#1361=CARTESIAN_POINT('',(-0.0364940725008002,0.00373361432528991,0.));
#1362=CARTESIAN_POINT('',(-0.0184044743450394,0.0460782418872577,0.));
#1363=CARTESIAN_POINT('',(1.04609983713616E-8,0.0523280888742467,0.));
#1364=CARTESIAN_POINT('',(0.0184042782976999,0.0460782355170597,0.));
#1365=CARTESIAN_POINT('',(0.0388521636252312,0.0391343958655417,0.));
#1366=CARTESIAN_POINT('',(0.0375638784008848,0.0183564786219086,0.));
#1367=CARTESIAN_POINT('',(0.0366563487373531,0.00371952099121683,0.));
#1368=CARTESIAN_POINT('',(0.040295151409191,2.90631962671069E-5,0.));
#1369=CARTESIAN_POINT('',(0.048744221619518,-0.00853994695069683,0.));
#1370=CARTESIAN_POINT('',(0.0390253942682578,-0.0203298419502189,0.));
#1371=CARTESIAN_POINT('',(0.0300126060429826,-0.0312632419364985,0.));
#1372=CARTESIAN_POINT('',(0.0219321296623562,-0.0286066471129393,0.));
#1373=CARTESIAN_POINT('',(0.0220281000857482,-0.0286381990311665,0.));
#1374=CARTESIAN_POINT('',(0.0214827355587857,-0.0303595061979546,0.));
#1375=CARTESIAN_POINT('',(0.0186048266394529,-0.0394429082222889,0.));
#1376=CARTESIAN_POINT('',(0.00887824357018012,-0.0426851042396645,0.));
#1377=CARTESIAN_POINT('',(-2.51255300353411E-6,-0.0456453577972401,0.));
#1378=CARTESIAN_POINT('',(-0.00886008517000705,-0.0426835948219161,0.));
#1379=CARTESIAN_POINT('',(-0.0185327094700903,-0.0394492978237507,0.));
#1380=CARTESIAN_POINT('',(-0.02148991565758,-0.0304037233377276,0.));
#1381=CARTESIAN_POINT('',(-0.0220726864570909,-0.0286211297879251,0.));
#1382=CARTESIAN_POINT('',(-0.022031026878266,-0.0286074570691689,0.));
#1383=CARTESIAN_POINT('',(-0.0301319170712263,-0.0312661779782046,0.));
#1384=CARTESIAN_POINT('',(-0.0390899428752116,-0.0203149739906517,0.));
#1385=CARTESIAN_POINT('',(-0.048756193612734,-0.0084979636428643,0.));
#1386=CARTESIAN_POINT('',(-0.0401779180851594,5.89446595435127E-5,0.));
#1387=CARTESIAN_POINT('',(0.,0.,0.002032));
#1388=CARTESIAN_POINT('',(-0.0374748756462642,0.018330272316915,0.002032));
#1389=CARTESIAN_POINT('',(-0.038872331918189,0.0391277089420647,0.002032));
#1390=CARTESIAN_POINT('',(-0.0364940725008002,0.00373361432528991,0.002032));
#1391=CARTESIAN_POINT('',(-0.0401779180851594,5.89446595435127E-5,0.002032));
#1392=CARTESIAN_POINT('',(-0.048756193612734,-0.0084979636428643,0.002032));
#1393=CARTESIAN_POINT('',(-0.0390899428752116,-0.0203149739906517,0.002032));
#1394=CARTESIAN_POINT('',(-0.0301319170712263,-0.0312661779782046,0.002032));
#1395=CARTESIAN_POINT('',(-0.022031026878266,-0.0286074570691689,0.002032));
#1396=CARTESIAN_POINT('',(-0.0220726864570909,-0.0286211297879251,0.002032));
#1397=CARTESIAN_POINT('',(-0.02148991565758,-0.0304037233377276,0.002032));
#1398=CARTESIAN_POINT('',(-0.0185327094700903,-0.0394492978237507,0.002032));
#1399=CARTESIAN_POINT('',(-0.00886008517000705,-0.0426835948219161,0.002032));
#1400=CARTESIAN_POINT('',(-2.51255300353411E-6,-0.0456453577972401,0.002032));
#1401=CARTESIAN_POINT('',(0.00887824357018012,-0.0426851042396645,0.002032));
#1402=CARTESIAN_POINT('',(0.0186048266394529,-0.0394429082222889,0.002032));
#1403=CARTESIAN_POINT('',(0.0214827355587857,-0.0303595061979546,0.002032));
#1404=CARTESIAN_POINT('',(0.0220281000857482,-0.0286381990311665,0.002032));
#1405=CARTESIAN_POINT('',(0.0219321296623562,-0.0286066471129393,0.002032));
#1406=CARTESIAN_POINT('',(0.0300126060429826,-0.0312632419364985,0.002032));
#1407=CARTESIAN_POINT('',(0.0390253942682578,-0.0203298419502189,0.002032));
#1408=CARTESIAN_POINT('',(0.048744221619518,-0.00853994695069683,0.002032));
#1409=CARTESIAN_POINT('',(0.040295151409191,2.90631962671069E-5,0.002032));
#1410=CARTESIAN_POINT('',(0.0366563487373531,0.00371952099121683,0.002032));
#1411=CARTESIAN_POINT('',(0.0375638784008848,0.0183564786219086,0.002032));
#1412=CARTESIAN_POINT('',(0.0388521636252312,0.0391343958655417,0.002032));
#1413=CARTESIAN_POINT('',(0.0184042782976999,0.0460782355170597,0.002032));
#1414=CARTESIAN_POINT('',(1.04609983713616E-8,0.0523280888742467,0.002032));
#1415=CARTESIAN_POINT('',(-0.0184044743450394,0.0460782418872577,0.002032));
#1416=CARTESIAN_POINT('',(-0.0374748756462642,0.018330272316915,0.002032));
#1417=CARTESIAN_POINT('',(-0.0364940725008002,0.00373361432528991,0.002032));
#1418=CARTESIAN_POINT('',(-0.038872331918189,0.0391277089420647,0.002032));
#1419=CARTESIAN_POINT('',(-0.0184044743450394,0.0460782418872577,0.002032));
#1420=CARTESIAN_POINT('',(1.04609983713616E-8,0.0523280888742467,0.002032));
#1421=CARTESIAN_POINT('',(0.0184042782976999,0.0460782355170597,0.002032));
#1422=CARTESIAN_POINT('',(0.0388521636252312,0.0391343958655417,0.002032));
#1423=CARTESIAN_POINT('',(0.0375638784008848,0.0183564786219086,0.002032));
#1424=CARTESIAN_POINT('',(0.0366563487373531,0.00371952099121683,0.002032));
#1425=CARTESIAN_POINT('',(0.040295151409191,2.90631962671069E-5,0.002032));
#1426=CARTESIAN_POINT('',(0.048744221619518,-0.00853994695069683,0.002032));
#1427=CARTESIAN_POINT('',(0.0390253942682578,-0.0203298419502189,0.002032));
#1428=CARTESIAN_POINT('',(0.0300126060429826,-0.0312632419364985,0.002032));
#1429=CARTESIAN_POINT('',(0.0219321296623562,-0.0286066471129393,0.002032));
#1430=CARTESIAN_POINT('',(0.0220281000857482,-0.0286381990311665,0.002032));
#1431=CARTESIAN_POINT('',(0.0214827355587857,-0.0303595061979546,0.002032));
#1432=CARTESIAN_POINT('',(0.0186048266394529,-0.0394429082222889,0.002032));
#1433=CARTESIAN_POINT('',(0.00887824357018012,-0.0426851042396645,0.002032));
#1434=CARTESIAN_POINT('',(-2.51255300353411E-6,-0.0456453577972401,0.002032));
#1435=CARTESIAN_POINT('',(-0.00886008517000705,-0.0426835948219161,0.002032));
#1436=CARTESIAN_POINT('',(-0.0185327094700903,-0.0394492978237507,0.002032));
#1437=CARTESIAN_POINT('',(-0.02148991565758,-0.0304037233377276,0.002032));
#1438=CARTESIAN_POINT('',(-0.0220726864570909,-0.0286211297879251,0.002032));
#1439=CARTESIAN_POINT('',(-0.022031026878266,-0.0286074570691689,0.002032));
#1440=CARTESIAN_POINT('',(-0.0301319170712263,-0.0312661779782046,0.002032));
#1441=CARTESIAN_POINT('',(-0.0390899428752116,-0.0203149739906517,0.002032));
#1442=CARTESIAN_POINT('',(-0.048756193612734,-0.0084979636428643,0.002032));
#1443=CARTESIAN_POINT('',(-0.0401779180851594,5.89446595435127E-5,0.002032));
#1444=MECHANICAL_DESIGN_GEOMETRIC_PRESENTATION_REPRESENTATION('',(#913),
#1445);
#1445=(
GEOMETRIC_REPRESENTATION_CONTEXT(3)
GLOBAL_UNCERTAINTY_ASSIGNED_CONTEXT((#1446))
GLOBAL_UNIT_ASSIGNED_CONTEXT((#1449,#1448,#1447))
REPRESENTATION_CONTEXT('Part 1','TOP_LEVEL_ASSEMBLY_PART')
);
#1446=UNCERTAINTY_MEASURE_WITH_UNIT(LENGTH_MEASURE(1.E-8),#1449,
'DISTANCE_ACCURACY_VALUE','Maximum Tolerance applied to model');
#1447=(
NAMED_UNIT(*)
SI_UNIT($,.STERADIAN.)
SOLID_ANGLE_UNIT()
);
#1448=(
NAMED_UNIT(*)
PLANE_ANGLE_UNIT()
SI_UNIT($,.RADIAN.)
);
#1449=(
LENGTH_UNIT()
NAMED_UNIT(*)
SI_UNIT($,.METRE.)
);
#1450=PRODUCT_DEFINITION_SHAPE('','',#1451);
#1451=PRODUCT_DEFINITION('','',#1453,#1452);
#1452=PRODUCT_DEFINITION_CONTEXT('',#1459,'design');
#1453=PRODUCT_DEFINITION_FORMATION_WITH_SPECIFIED_SOURCE('','',#1455,
 .NOT_KNOWN.);
#1454=PRODUCT_RELATED_PRODUCT_CATEGORY('','',(#1455));
#1455=PRODUCT('Part 1','Part 1','Part 1',(#1457));
#1456=PRODUCT_CATEGORY('','');
#1457=PRODUCT_CONTEXT('',#1459,'mechanical');
#1458=APPLICATION_PROTOCOL_DEFINITION('international standard',
'ap242_managed_model_based_3d_engineering',2020,#1459);
#1459=APPLICATION_CONTEXT('managed model based 3d engineering');
ENDSEC;
END-ISO-10303-21;
