ISO-10303-21;
HEADER;
/* Generated by software containing ST-Developer
 * from STEP Tools, Inc. (www.steptools.com) 
 */
/* OPTION: using custom renumber hook */

FILE_DESCRIPTION(
/* description */ ('STEP AP242 Edition 2',
'CAx-IF Rec.Pracs.---Representation and Presentation of Product Manufa
cturing Information (PMI)---4.0---2014-10-13',
'CAx-IF Rec.Pracs.---3D Tessellated Geometry---0.4---2014-09-14','2;1',
'CAx-IF Rec.Pracs.---User Defined Attributes---1.5---2016-08-15'),
/* implementation_level */ '2;1');

FILE_NAME(
/* name */ 'Part Studio 1 - Part 1',
/* time_stamp */ '2026-10-07T02:09:46Z',
/* author */ (''),
/* organization */ (''),
/* preprocessor_version */ 'ST-DEVELOPER v20',
/* originating_system */ 'ONSHAPE BY PTC INC, 1.221',
/* authorisation */ '  ');

FILE_SCHEMA (('AP242_MANAGED_MODEL_BASED_3D_ENGINEERING_MIM_LF { 1 0 10303 442 3 1 4 }'));
ENDSEC;

DATA;
#10=SHAPE_REPRESENTATION_RELATIONSHIP('','',#155,#11);
#11=ADVANCED_BREP_SHAPE_REPRESENTATION('',(#153),#945);
#12=PLANE('',#157);
#13=PLANE('',#158);
#14=PLANE('',#159);
#15=B_SPLINE_CURVE_WITH_KNOTS('',3,(#222,#223,#224,#225,#226,#227,#228,
#229,#230),.UNSPECIFIED.,.F.,.F.,(4,1,1,1,1,1,4),(0.,0.167689661545628,
0.350143675922857,0.516118924022293,0.679513618358445,0.849956732000477,
0.99854210003781),.UNSPECIFIED.);
#16=B_SPLINE_CURVE_WITH_KNOTS('',3,(#234,#235,#236,#237,#238,#239,#240,
#241,#242),.UNSPECIFIED.,.F.,.F.,(4,1,1,1,1,1,4),(0.,0.167689661545628,
0.350143675922857,0.516118924022293,0.679513618358445,0.849956732000477,
0.99854210003781),.UNSPECIFIED.);
#17=B_SPLINE_CURVE_WITH_KNOTS('',3,(#293,#294,#295,#296,#297,#298,#299,
#300,#301,#302,#303,#304,#305,#306,#307,#308,#309,#310,#311,#312,#313,#314,
#315,#316,#317,#318,#319,#320,#321,#322,#323,#324,#325,#326,#327,#328,#329,
#330,#331,#332,#333,#334,#335),.UNSPECIFIED.,.F.,.F.,(4,1,1,1,1,1,1,1,1,
1,1,1,1,1,1,1,1,1,1,1,1,1,1,1,1,1,1,1,1,1,1,1,1,1,1,1,1,1,1,1,4),(-0.0980255826995607,
-0.0637109350874138,-0.0293962874752668,-0.0122389636691933,-0.0036603017661566,
0.00491836013688014,0.0220756839429536,0.0392330077490271,0.0735476553611741,
0.107862302973321,0.125019626779394,0.142176950585468,0.159334274391541,
0.176491598197615,0.210806245809762,0.245120893421909,0.279435541034056,
0.313750188646202,0.330907512452276,0.348064836258349,0.365222160064423,
0.382379483870497,0.416694131482644,0.451008779094791,0.485323426706937,
0.519638074319084,0.553952721931231,0.588267369543378,0.622582017155525,
0.656896664767672,0.674053988573746,0.691211312379819,0.725525959991966,
0.759840607604113,0.79415525521626,0.828469902828407,0.84562722663448,0.862784550440554,
0.897099198052701,0.931413845664848,1.00004314088914),.UNSPECIFIED.);
#18=B_SPLINE_CURVE_WITH_KNOTS('',3,(#340,#341,#342,#343,#344,#345,#346,
#347,#348,#349,#350,#351,#352,#353,#354,#355,#356,#357,#358,#359,#360,#361,
#362,#363,#364,#365,#366,#367,#368,#369,#370,#371,#372,#373,#374,#375,#376,
#377,#378,#379,#380,#381,#382),.UNSPECIFIED.,.F.,.F.,(4,1,1,1,1,1,1,1,1,
1,1,1,1,1,1,1,1,1,1,1,1,1,1,1,1,1,1,1,1,1,1,1,1,1,1,1,1,1,1,1,4),(-0.0980255826995607,
-0.0637109350874138,-0.0293962874752668,-0.0122389636691933,-0.0036603017661566,
0.00491836013688014,0.0220756839429536,0.0392330077490271,0.0735476553611741,
0.107862302973321,0.125019626779394,0.142176950585468,0.159334274391541,
0.176491598197615,0.210806245809762,0.245120893421909,0.279435541034056,
0.313750188646202,0.330907512452276,0.348064836258349,0.365222160064423,
0.382379483870497,0.416694131482644,0.451008779094791,0.485323426706937,
0.519638074319084,0.553952721931231,0.588267369543378,0.622582017155525,
0.656896664767672,0.674053988573746,0.691211312379819,0.725525959991966,
0.759840607604113,0.79415525521626,0.828469902828407,0.84562722663448,0.862784550440554,
0.897099198052701,0.931413845664848,1.00004314088914),.UNSPECIFIED.);
#19=B_SPLINE_CURVE_WITH_KNOTS('',3,(#435,#436,#437,#438,#439,#440,#441,
#442,#443,#444,#445,#446,#447,#448,#449,#450,#451,#452,#453,#454,#455,#456,
#457,#458,#459,#460,#461,#462,#463,#464,#465,#466,#467,#468,#469,#470,#471,
#472,#473,#474,#475,#476,#477),.UNSPECIFIED.,.F.,.F.,(4,1,1,1,1,1,1,1,1,
1,1,1,1,1,1,1,1,1,1,1,1,1,1,1,1,1,1,1,1,1,1,1,1,1,1,1,1,1,1,1,4),(-0.0980255826995607,
-0.0637109350874138,-0.0293962874752668,-0.0122389636691933,-0.0036603017661566,
0.00491836013688014,0.0220756839429536,0.0392330077490271,0.0735476553611741,
0.107862302973321,0.125019626779394,0.142176950585468,0.159334274391541,
0.176491598197615,0.210806245809762,0.245120893421909,0.279435541034056,
0.313750188646202,0.330907512452276,0.348064836258349,0.365222160064423,
0.382379483870497,0.416694131482644,0.451008779094791,0.485323426706937,
0.519638074319084,0.553952721931231,0.588267369543378,0.622582017155525,
0.656896664767672,0.674053988573746,0.691211312379819,0.725525959991966,
0.759840607604113,0.79415525521626,0.828469902828407,0.84562722663448,0.862784550440554,
0.897099198052701,0.931413845664848,1.00004314088914),.UNSPECIFIED.);
#20=B_SPLINE_CURVE_WITH_KNOTS('',3,(#478,#479,#480,#481,#482,#483,#484,
#485,#486,#487,#488,#489,#490,#491,#492,#493,#494,#495,#496,#497,#498,#499,
#500,#501,#502,#503,#504,#505,#506,#507,#508,#509,#510,#511,#512,#513,#514,
#515,#516,#517,#518,#519,#520),.UNSPECIFIED.,.F.,.F.,(4,1,1,1,1,1,1,1,1,
1,1,1,1,1,1,1,1,1,1,1,1,1,1,1,1,1,1,1,1,1,1,1,1,1,1,1,1,1,1,1,4),(-0.0980255826995607,
-0.0637109350874138,-0.0293962874752668,-0.0122389636691933,-0.0036603017661566,
0.00491836013688014,0.0220756839429536,0.0392330077490271,0.0735476553611741,
0.107862302973321,0.125019626779394,0.142176950585468,0.159334274391541,
0.176491598197615,0.210806245809762,0.245120893421909,0.279435541034056,
0.313750188646202,0.330907512452276,0.348064836258349,0.365222160064423,
0.382379483870497,0.416694131482644,0.451008779094791,0.485323426706937,
0.519638074319084,0.553952721931231,0.588267369543378,0.622582017155525,
0.656896664767672,0.674053988573746,0.691211312379819,0.725525959991966,
0.759840607604113,0.79415525521626,0.828469902828407,0.84562722663448,0.862784550440554,
0.897099198052701,0.931413845664848,1.00004314088914),.UNSPECIFIED.);
#21=B_SPLINE_CURVE_WITH_KNOTS('',3,(#565,#566,#567,#568,#569,#570,#571,
#572,#573),.UNSPECIFIED.,.F.,.F.,(4,1,1,1,1,1,4),(0.,0.167689661545628,
0.350143675922857,0.516118924022293,0.679513618358445,0.849956732000477,
0.998542099915835),.UNSPECIFIED.);
#22=B_SPLINE_CURVE_WITH_KNOTS('',3,(#574,#575,#576,#577,#578,#579,#580,
#581,#582),.UNSPECIFIED.,.F.,.F.,(4,1,1,1,1,1,4),(0.,0.167689661545628,
0.350143675922857,0.516118924022293,0.679513618358445,0.849956732000477,
0.998542099915835),.UNSPECIFIED.);
#23=B_SPLINE_CURVE_WITH_KNOTS('',3,(#585,#586,#587,#588,#589,#590,#591,
#592,#593,#594,#595,#596,#597,#598,#599,#600,#601,#602,#603,#604,#605,#606,
#607,#608,#609,#610,#611,#612,#613,#614,#615,#616,#617,#618,#619,#620,#621,
#622,#623,#624,#625,#626,#627,#628,#629,#630,#631,#632,#633,#634,#635,#636,
#637,#638,#639,#640,#641,#642,#643),.UNSPECIFIED.,.F.,.F.,(4,1,1,1,1,1,
1,1,1,1,1,1,1,1,1,1,1,1,1,1,1,1,1,1,1,1,1,1,1,1,1,1,1,1,1,1,1,1,1,1,1,1,
1,1,1,1,1,1,1,1,1,1,1,1,1,1,4),(-0.242748391803243,-0.164935414522516,-0.126028925882152,
-0.0871224372417889,-0.0482159486014255,-0.0287627042812438,-0.00930945996106203,
0.000417162199028834,0.0101437843591197,0.0295970286793014,0.0490502729994831,
0.0685035173196649,0.0879567616398466,0.107410005960028,0.12686325028021,
0.146316494600392,0.156043116760483,0.165769738920573,0.175496361080664,
0.185222983240755,0.204676227560937,0.224129471881119,0.263035960521482,
0.301942449161845,0.321395693482027,0.340848937802209,0.360302182122391,
0.379755426442572,0.399208670762754,0.418661915082936,0.457568403723299,
0.496474892363663,0.535381381004026,0.57428786964439,0.613194358284753,
0.632647602604935,0.652100846925117,0.671554091245298,0.681280713405389,
0.69100733556548,0.710460579885662,0.729913824205843,0.749367068526025,
0.768820312846207,0.788273557166389,0.80772680148657,0.827180045806752,
0.836906667966843,0.846633290126934,0.866086534447116,0.885539778767297,
0.904993023087479,0.924446267407661,0.963352756048024,0.982806000368206,
0.992532622528297,1.00225924468839),.UNSPECIFIED.);
#24=B_SPLINE_CURVE_WITH_KNOTS('',3,(#646,#647,#648,#649,#650,#651,#652,
#653,#654,#655,#656,#657,#658,#659,#660,#661,#662,#663,#664,#665,#666,#667,
#668,#669,#670,#671,#672,#673,#674,#675,#676,#677,#678,#679,#680,#681,#682,
#683,#684,#685,#686,#687,#688,#689,#690,#691,#692,#693,#694,#695,#696,#697,
#698,#699,#700,#701,#702,#703,#704),.UNSPECIFIED.,.F.,.F.,(4,1,1,1,1,1,
1,1,1,1,1,1,1,1,1,1,1,1,1,1,1,1,1,1,1,1,1,1,1,1,1,1,1,1,1,1,1,1,1,1,1,1,
1,1,1,1,1,1,1,1,1,1,1,1,1,1,4),(-0.242748391803243,-0.164935414522516,-0.126028925882153,
-0.0871224372417893,-0.0482159486014259,-0.0287627042812443,-0.00930945996106255,
0.00041716219902829,0.0101437843591191,0.0295970286793008,0.0490502729994825,
0.0685035173196642,0.0879567616398458,0.107410005960027,0.126863250280209,
0.146316494600391,0.156043116760482,0.165769738920572,0.175496361080663,
0.185222983240754,0.204676227560936,0.224129471881118,0.263035960521481,
0.301942449161844,0.321395693482026,0.340848937802208,0.36030218212239,
0.379755426442571,0.399208670762752,0.418661915082934,0.457568403723298,
0.496474892363661,0.535381381004024,0.574287869644388,0.613194358284751,
0.632647602604933,0.652100846925114,0.671554091245296,0.681280713405387,
0.691007335565478,0.71046057988566,0.729913824205841,0.749367068526023,
0.768820312846205,0.788273557166386,0.807726801486568,0.82718004580675,
0.83690666796684,0.846633290126931,0.866086534447113,0.885539778767295,
0.904993023087476,0.924446267407658,0.963352756048021,0.982806000368203,
0.992532622528294,1.00225924468838),.UNSPECIFIED.);
#25=B_SPLINE_CURVE_WITH_KNOTS('',3,(#765,#766,#767,#768,#769,#770,#771,
#772,#773,#774,#775,#776,#777,#778,#779,#780,#781,#782,#783,#784,#785,#786,
#787,#788,#789,#790,#791,#792,#793,#794,#795,#796,#797,#798,#799,#800,#801,
#802,#803,#804,#805,#806,#807,#808,#809,#810,#811,#812,#813,#814,#815,#816,
#817,#818,#819,#820,#821,#822,#823),.UNSPECIFIED.,.F.,.F.,(4,1,1,1,1,1,
1,1,1,1,1,1,1,1,1,1,1,1,1,1,1,1,1,1,1,1,1,1,1,1,1,1,1,1,1,1,1,1,1,1,1,1,
1,1,1,1,1,1,1,1,1,1,1,1,1,1,4),(-0.242748391803243,-0.164935414522516,-0.126028925882152,
-0.0871224372417889,-0.0482159486014255,-0.0287627042812438,-0.00930945996106203,
0.000417162199028834,0.0101437843591197,0.0295970286793014,0.0490502729994831,
0.0685035173196649,0.0879567616398466,0.107410005960028,0.12686325028021,
0.146316494600392,0.156043116760483,0.165769738920573,0.175496361080664,
0.185222983240755,0.204676227560937,0.224129471881119,0.263035960521482,
0.301942449161845,0.321395693482027,0.340848937802209,0.360302182122391,
0.379755426442572,0.399208670762754,0.418661915082936,0.457568403723299,
0.496474892363663,0.535381381004026,0.57428786964439,0.613194358284753,
0.632647602604935,0.652100846925117,0.671554091245298,0.681280713405389,
0.69100733556548,0.710460579885662,0.729913824205843,0.749367068526025,
0.768820312846207,0.788273557166389,0.80772680148657,0.827180045806752,
0.836906667966843,0.846633290126934,0.866086534447116,0.885539778767297,
0.904993023087479,0.924446267407661,0.963352756048024,0.982806000368206,
0.992532622528297,1.00225924468839),.UNSPECIFIED.);
#26=B_SPLINE_CURVE_WITH_KNOTS('',3,(#884,#885,#886,#887,#888,#889,#890,
#891,#892,#893,#894,#895,#896,#897,#898,#899,#900,#901,#902,#903,#904,#905,
#906,#907,#908,#909,#910,#911,#912,#913,#914,#915,#916,#917,#918,#919,#920,
#921,#922,#923,#924,#925,#926,#927,#928,#929,#930,#931,#932,#933,#934,#935,
#936,#937,#938,#939,#940,#941,#942),.UNSPECIFIED.,.F.,.F.,(4,1,1,1,1,1,
1,1,1,1,1,1,1,1,1,1,1,1,1,1,1,1,1,1,1,1,1,1,1,1,1,1,1,1,1,1,1,1,1,1,1,1,
1,1,1,1,1,1,1,1,1,1,1,1,1,1,4),(-0.242748391803243,-0.164935414522516,-0.126028925882153,
-0.0871224372417893,-0.0482159486014259,-0.0287627042812443,-0.00930945996106255,
0.00041716219902829,0.0101437843591191,0.0295970286793008,0.0490502729994825,
0.0685035173196642,0.0879567616398458,0.107410005960027,0.126863250280209,
0.146316494600391,0.156043116760482,0.165769738920572,0.175496361080663,
0.185222983240754,0.204676227560936,0.224129471881118,0.263035960521481,
0.301942449161844,0.321395693482026,0.340848937802208,0.36030218212239,
0.379755426442571,0.399208670762752,0.418661915082934,0.457568403723298,
0.496474892363661,0.535381381004024,0.574287869644388,0.613194358284751,
0.632647602604933,0.652100846925114,0.671554091245296,0.681280713405387,
0.691007335565478,0.71046057988566,0.729913824205841,0.749367068526023,
0.768820312846205,0.788273557166386,0.807726801486568,0.82718004580675,
0.83690666796684,0.846633290126931,0.866086534447113,0.885539778767295,
0.904993023087476,0.924446267407658,0.963352756048021,0.982806000368203,
0.992532622528294,1.00225924468838),.UNSPECIFIED.);
#27=ORIENTED_EDGE('',*,*,#63,.T.);
#28=ORIENTED_EDGE('',*,*,#64,.T.);
#29=ORIENTED_EDGE('',*,*,#65,.F.);
#30=ORIENTED_EDGE('',*,*,#66,.F.);
#31=ORIENTED_EDGE('',*,*,#67,.F.);
#32=ORIENTED_EDGE('',*,*,#68,.F.);
#33=ORIENTED_EDGE('',*,*,#69,.T.);
#34=ORIENTED_EDGE('',*,*,#70,.T.);
#35=ORIENTED_EDGE('',*,*,#71,.F.);
#36=ORIENTED_EDGE('',*,*,#70,.F.);
#37=ORIENTED_EDGE('',*,*,#72,.T.);
#38=ORIENTED_EDGE('',*,*,#68,.T.);
#39=ORIENTED_EDGE('',*,*,#65,.T.);
#40=ORIENTED_EDGE('',*,*,#73,.T.);
#41=ORIENTED_EDGE('',*,*,#63,.F.);
#42=ORIENTED_EDGE('',*,*,#74,.F.);
#43=ORIENTED_EDGE('',*,*,#69,.F.);
#44=ORIENTED_EDGE('',*,*,#72,.F.);
#45=ORIENTED_EDGE('',*,*,#66,.T.);
#46=ORIENTED_EDGE('',*,*,#74,.T.);
#47=ORIENTED_EDGE('',*,*,#75,.F.);
#48=ORIENTED_EDGE('',*,*,#76,.F.);
#49=ORIENTED_EDGE('',*,*,#71,.T.);
#50=ORIENTED_EDGE('',*,*,#67,.T.);
#51=ORIENTED_EDGE('',*,*,#75,.T.);
#52=ORIENTED_EDGE('',*,*,#77,.F.);
#53=ORIENTED_EDGE('',*,*,#78,.F.);
#54=ORIENTED_EDGE('',*,*,#79,.T.);
#55=ORIENTED_EDGE('',*,*,#76,.T.);
#56=ORIENTED_EDGE('',*,*,#79,.F.);
#57=ORIENTED_EDGE('',*,*,#80,.F.);
#58=ORIENTED_EDGE('',*,*,#77,.T.);
#59=ORIENTED_EDGE('',*,*,#78,.T.);
#60=ORIENTED_EDGE('',*,*,#80,.T.);
#61=ORIENTED_EDGE('',*,*,#64,.F.);
#62=ORIENTED_EDGE('',*,*,#73,.F.);
#63=EDGE_CURVE('',#81,#82,#93,.T.);
#64=EDGE_CURVE('',#82,#83,#15,.F.);
#65=EDGE_CURVE('',#84,#83,#94,.T.);
#66=EDGE_CURVE('',#81,#84,#16,.F.);
#67=EDGE_CURVE('',#85,#86,#17,.F.);
#68=EDGE_CURVE('',#87,#85,#95,.T.);
#69=EDGE_CURVE('',#87,#88,#18,.F.);
#70=EDGE_CURVE('',#88,#86,#96,.T.);
#71=EDGE_CURVE('',#86,#85,#19,.T.);
#72=EDGE_CURVE('',#88,#87,#20,.T.);
#73=EDGE_CURVE('',#83,#82,#21,.T.);
#74=EDGE_CURVE('',#84,#81,#22,.T.);
#75=EDGE_CURVE('',#89,#90,#23,.F.);
#76=EDGE_CURVE('',#90,#89,#24,.T.);
#77=EDGE_CURVE('',#91,#90,#97,.T.);
#78=EDGE_CURVE('',#92,#91,#25,.F.);
#79=EDGE_CURVE('',#92,#89,#98,.T.);
#80=EDGE_CURVE('',#91,#92,#26,.T.);
#81=VERTEX_POINT('',#220);
#82=VERTEX_POINT('',#221);
#83=VERTEX_POINT('',#231);
#84=VERTEX_POINT('',#233);
#85=VERTEX_POINT('',#336);
#86=VERTEX_POINT('',#337);
#87=VERTEX_POINT('',#339);
#88=VERTEX_POINT('',#383);
#89=VERTEX_POINT('',#644);
#90=VERTEX_POINT('',#645);
#91=VERTEX_POINT('',#764);
#92=VERTEX_POINT('',#824);
#93=LINE('',#219,#99);
#94=LINE('',#232,#100);
#95=LINE('',#338,#101);
#96=LINE('',#384,#102);
#97=LINE('',#763,#103);
#98=LINE('',#825,#104);
#99=VECTOR('',#162,1.);
#100=VECTOR('',#163,1.);
#101=VECTOR('',#164,1.);
#102=VECTOR('',#165,1.);
#103=VECTOR('',#170,1.);
#104=VECTOR('',#171,1.);
#105=EDGE_LOOP('',(#27,#28,#29,#30));
#106=EDGE_LOOP('',(#31,#32,#33,#34));
#107=EDGE_LOOP('',(#35,#36,#37,#38));
#108=EDGE_LOOP('',(#39,#40,#41,#42));
#109=EDGE_LOOP('',(#43,#44));
#110=EDGE_LOOP('',(#45,#46));
#111=EDGE_LOOP('',(#47,#48));
#112=EDGE_LOOP('',(#49,#50));
#113=EDGE_LOOP('',(#51,#52,#53,#54));
#114=EDGE_LOOP('',(#55,#56,#57,#58));
#115=EDGE_LOOP('',(#59,#60));
#116=EDGE_LOOP('',(#61,#62));
#117=FACE_BOUND('',#105,.T.);
#118=FACE_BOUND('',#106,.T.);
#119=FACE_BOUND('',#107,.T.);
#120=FACE_BOUND('',#108,.T.);
#121=FACE_BOUND('',#109,.T.);
#122=FACE_BOUND('',#110,.T.);
#123=FACE_BOUND('',#111,.T.);
#124=FACE_BOUND('',#112,.T.);
#125=FACE_BOUND('',#113,.T.);
#126=FACE_BOUND('',#114,.T.);
#127=FACE_BOUND('',#115,.T.);
#128=FACE_BOUND('',#116,.T.);
#129=B_SPLINE_SURFACE_WITH_KNOTS('',3,1,((#175,#176),(#177,#178),(#179,
#180),(#181,#182),(#183,#184),(#185,#186),(#187,#188),(#189,#190),(#191,
#192),(#193,#194),(#195,#196),(#197,#198),(#199,#200),(#201,#202),(#203,
#204),(#205,#206),(#207,#208),(#209,#210),(#211,#212),(#213,#214),(#215,
#216),(#217,#218)),.SURF_OF_LINEAR_EXTRUSION.,.F.,.F.,.F.,(4,1,1,1,1,1,
1,1,1,1,1,1,1,1,1,1,1,1,1,4),(2,2),(0.,0.0624088812523631,0.124817762504726,
0.156022203130908,0.187226643757089,0.249635525009452,0.312044406261816,
0.343248846887997,0.374453287514179,0.436862168766542,0.499271050018905,
0.561679931271268,0.624088812523631,0.686497693775994,0.748906575028357,
0.811315456280721,0.842519896906902,0.873724337533084,0.936133218785447,
0.99854210003781),(0.,1.),.UNSPECIFIED.);
#130=B_SPLINE_SURFACE_WITH_KNOTS('',3,1,((#243,#244),(#245,#246),(#247,
#248),(#249,#250),(#251,#252),(#253,#254),(#255,#256),(#257,#258),(#259,
#260),(#261,#262),(#263,#264),(#265,#266),(#267,#268),(#269,#270),(#271,
#272),(#273,#274),(#275,#276),(#277,#278),(#279,#280),(#281,#282),(#283,
#284),(#285,#286),(#287,#288),(#289,#290),(#291,#292)),
 .SURF_OF_LINEAR_EXTRUSION.,.F.,.F.,.F.,(4,1,1,1,1,1,1,1,1,1,1,1,1,1,1,
1,1,1,1,1,1,1,4),(2,2),(-0.0980255826995607,-0.0293962874752668,0.00491836013688019,
0.0392330077490272,0.107862302973321,0.142176950585468,0.176491598197615,
0.210806245809762,0.245120893421909,0.313750188646203,0.34806483625835,
0.382379483870497,0.451008779094791,0.519638074319085,0.588267369543379,
0.656896664767673,0.691211312379819,0.725525959991966,0.79415525521626,
0.828469902828407,0.862784550440554,0.931413845664848,1.00004314088914),
(0.,1.),.UNSPECIFIED.);
#131=B_SPLINE_SURFACE_WITH_KNOTS('',3,1,((#385,#386),(#387,#388),(#389,
#390),(#391,#392),(#393,#394),(#395,#396),(#397,#398),(#399,#400),(#401,
#402),(#403,#404),(#405,#406),(#407,#408),(#409,#410),(#411,#412),(#413,
#414),(#415,#416),(#417,#418),(#419,#420),(#421,#422),(#423,#424),(#425,
#426),(#427,#428),(#429,#430),(#431,#432),(#433,#434)),
 .SURF_OF_LINEAR_EXTRUSION.,.F.,.F.,.F.,(4,1,1,1,1,1,1,1,1,1,1,1,1,1,1,
1,1,1,1,1,1,1,4),(2,2),(-0.0980255826995607,-0.0293962874752668,0.00491836013688019,
0.0392330077490272,0.107862302973321,0.142176950585468,0.176491598197615,
0.210806245809762,0.245120893421909,0.313750188646203,0.34806483625835,
0.382379483870497,0.451008779094791,0.519638074319085,0.588267369543379,
0.656896664767673,0.691211312379819,0.725525959991966,0.79415525521626,
0.828469902828407,0.862784550440554,0.931413845664848,1.00004314088914),
(0.,1.),.UNSPECIFIED.);
#132=B_SPLINE_SURFACE_WITH_KNOTS('',3,1,((#521,#522),(#523,#524),(#525,
#526),(#527,#528),(#529,#530),(#531,#532),(#533,#534),(#535,#536),(#537,
#538),(#539,#540),(#541,#542),(#543,#544),(#545,#546),(#547,#548),(#549,
#550),(#551,#552),(#553,#554),(#555,#556),(#557,#558),(#559,#560),(#561,
#562),(#563,#564)),.SURF_OF_LINEAR_EXTRUSION.,.F.,.F.,.F.,(4,1,1,1,1,1,
1,1,1,1,1,1,1,1,1,1,1,1,1,4),(2,2),(0.,0.0624088812447397,0.124817762489479,
0.156022203111849,0.187226643734219,0.249635524978959,0.312044406223698,
0.343248846846068,0.374453287468438,0.436862168713178,0.499271049957917,
0.561679931202657,0.624088812447397,0.686497693692137,0.748906574936876,
0.811315456181616,0.842519896803986,0.873724337426356,0.936133218671095,
0.998542099915835),(0.,1.),.UNSPECIFIED.);
#133=B_SPLINE_SURFACE_WITH_KNOTS('',3,1,((#705,#706),(#707,#708),(#709,
#710),(#711,#712),(#713,#714),(#715,#716),(#717,#718),(#719,#720),(#721,
#722),(#723,#724),(#725,#726),(#727,#728),(#729,#730),(#731,#732),(#733,
#734),(#735,#736),(#737,#738),(#739,#740),(#741,#742),(#743,#744),(#745,
#746),(#747,#748),(#749,#750),(#751,#752),(#753,#754),(#755,#756),(#757,
#758),(#759,#760),(#761,#762)),.SURF_OF_LINEAR_EXTRUSION.,.F.,.F.,.F.,(4,
1,1,1,1,1,1,1,1,1,1,1,1,1,1,1,1,1,1,1,1,1,1,1,1,1,4),(2,2),(-0.242748391803243,
-0.164935414522516,-0.0871224372417887,-0.00930945996106178,0.0295970286793017,
0.0685035173196651,0.107410005960029,0.146316494600392,0.185222983240755,
0.224129471881119,0.263035960521482,0.301942449161846,0.340848937802209,
0.379755426442573,0.4575684037233,0.535381381004027,0.57428786964439,0.613194358284754,
0.652100846925117,0.69100733556548,0.729913824205844,0.768820312846207,
0.807726801486571,0.846633290126934,0.885539778767298,0.924446267407661,
1.00225924468839),(0.,1.),.UNSPECIFIED.);
#134=B_SPLINE_SURFACE_WITH_KNOTS('',3,1,((#826,#827),(#828,#829),(#830,
#831),(#832,#833),(#834,#835),(#836,#837),(#838,#839),(#840,#841),(#842,
#843),(#844,#845),(#846,#847),(#848,#849),(#850,#851),(#852,#853),(#854,
#855),(#856,#857),(#858,#859),(#860,#861),(#862,#863),(#864,#865),(#866,
#867),(#868,#869),(#870,#871),(#872,#873),(#874,#875),(#876,#877),(#878,
#879),(#880,#881),(#882,#883)),.SURF_OF_LINEAR_EXTRUSION.,.F.,.F.,.F.,(4,
1,1,1,1,1,1,1,1,1,1,1,1,1,1,1,1,1,1,1,1,1,1,1,1,1,4),(2,2),(-0.242748391803243,
-0.164935414522516,-0.0871224372417892,-0.00930945996106253,0.0295970286793008,
0.0685035173196641,0.107410005960027,0.146316494600391,0.185222983240754,
0.224129471881117,0.263035960521481,0.301942449161844,0.340848937802207,
0.379755426442571,0.457568403723297,0.535381381004024,0.574287869644387,
0.613194358284751,0.652100846925114,0.691007335565477,0.729913824205841,
0.768820312846204,0.807726801486567,0.846633290126931,0.885539778767294,
0.924446267407657,1.00225924468838),(0.,1.),.UNSPECIFIED.);
#135=ADVANCED_FACE('',(#117),#129,.T.);
#136=ADVANCED_FACE('',(#118),#130,.F.);
#137=ADVANCED_FACE('',(#119),#131,.T.);
#138=ADVANCED_FACE('',(#120),#132,.F.);
#139=ADVANCED_FACE('',(#121,#122),#12,.F.);
#140=ADVANCED_FACE('',(#123,#124),#13,.F.);
#141=ADVANCED_FACE('',(#125),#133,.T.);
#142=ADVANCED_FACE('',(#126),#134,.F.);
#143=ADVANCED_FACE('',(#127,#128),#14,.T.);
#144=CLOSED_SHELL('',(#135,#136,#137,#138,#139,#140,#141,#142,#143));
#145=STYLED_ITEM('',(#146),#153);
#146=PRESENTATION_STYLE_ASSIGNMENT((#147));
#147=SURFACE_STYLE_USAGE(.BOTH.,#148);
#148=SURFACE_SIDE_STYLE('',(#149));
#149=SURFACE_STYLE_FILL_AREA(#150);
#150=FILL_AREA_STYLE('',(#151));
#151=FILL_AREA_STYLE_COLOUR('',#152);
#152=COLOUR_RGB('',0.615686274509804,0.811764705882353,0.929411764705882);
#153=MANIFOLD_SOLID_BREP('Part 1',#144);
#154=SHAPE_DEFINITION_REPRESENTATION(#950,#155);
#155=SHAPE_REPRESENTATION('Part 1',(#156),#945);
#156=AXIS2_PLACEMENT_3D('',#174,#160,#161);
#157=AXIS2_PLACEMENT_3D('',#583,#166,#167);
#158=AXIS2_PLACEMENT_3D('',#584,#168,#169);
#159=AXIS2_PLACEMENT_3D('',#943,#172,#173);
#160=DIRECTION('',(0.,0.,1.));
#161=DIRECTION('',(1.,0.,0.));
#162=DIRECTION('',(0.,0.,-1.));
#163=DIRECTION('',(0.,0.,-1.));
#164=DIRECTION('',(0.,0.,-1.));
#165=DIRECTION('',(0.,0.,-1.));
#166=DIRECTION('',(0.,0.,-1.));
#167=DIRECTION('',(-1.,0.,0.));
#168=DIRECTION('',(0.,0.,-1.));
#169=DIRECTION('',(-1.,0.,0.));
#170=DIRECTION('',(0.,0.,1.));
#171=DIRECTION('',(0.,0.,1.));
#172=DIRECTION('',(0.,0.,-1.));
#173=DIRECTION('',(-1.,0.,0.));
#174=CARTESIAN_POINT('',(0.,0.,0.));
#175=CARTESIAN_POINT('',(0.,0.0347938752256078,0.01016));
#176=CARTESIAN_POINT('',(0.,0.0347938752256078,-0.002));
#177=CARTESIAN_POINT('',(-0.000421013093831708,0.0328943712591635,0.01016));
#178=CARTESIAN_POINT('',(-0.000421013093831708,0.0328943712591635,-0.002));
#179=CARTESIAN_POINT('',(-0.00124028332392796,0.0290919164448725,0.01016));
#180=CARTESIAN_POINT('',(-0.00124028332392796,0.0290919164448725,-0.002));
#181=CARTESIAN_POINT('',(-0.00274707563626984,0.0245411914525419,0.01016));
#182=CARTESIAN_POINT('',(-0.00274707563626984,0.0245411914525419,-0.002));
#183=CARTESIAN_POINT('',(-0.00455470396226131,0.0211441864373636,0.01016));
#184=CARTESIAN_POINT('',(-0.00455470396226131,0.0211441864373636,-0.002));
#185=CARTESIAN_POINT('',(-0.00689874430664776,0.0179624085244223,0.01016));
#186=CARTESIAN_POINT('',(-0.00689874430664776,0.0179624085244223,-0.002));
#187=CARTESIAN_POINT('',(-0.0106989657456145,0.0143346672133617,0.01016));
#188=CARTESIAN_POINT('',(-0.0106989657456145,0.0143346672133617,-0.002));
#189=CARTESIAN_POINT('',(-0.0148195566214187,0.0108401584660206,0.01016));
#190=CARTESIAN_POINT('',(-0.0148195566214187,0.0108401584660206,-0.002));
#191=CARTESIAN_POINT('',(-0.0178380346712257,0.00793823946795487,0.01016));
#192=CARTESIAN_POINT('',(-0.0178380346712257,0.00793823946795487,-0.002));
#193=CARTESIAN_POINT('',(-0.0204950276922302,0.00489538572561051,0.01016));
#194=CARTESIAN_POINT('',(-0.0204950276922302,0.00489538572561051,-0.002));
#195=CARTESIAN_POINT('',(-0.023094449016205,0.00081795856565236,0.01016));
#196=CARTESIAN_POINT('',(-0.023094449016205,0.00081795856565236,-0.002));
#197=CARTESIAN_POINT('',(-0.0250872547692833,-0.00445023387261975,0.01016));
#198=CARTESIAN_POINT('',(-0.0250872547692833,-0.00445023387261975,-0.002));
#199=CARTESIAN_POINT('',(-0.0259982519607504,-0.0100766469690834,0.01016));
#200=CARTESIAN_POINT('',(-0.0259982519607504,-0.0100766469690834,-0.002));
#201=CARTESIAN_POINT('',(-0.0256341714309326,-0.0157943682498669,0.01016));
#202=CARTESIAN_POINT('',(-0.0256341714309326,-0.0157943682498669,-0.002));
#203=CARTESIAN_POINT('',(-0.0236890815076311,-0.0212542311837824,0.01016));
#204=CARTESIAN_POINT('',(-0.0236890815076311,-0.0212542311837824,-0.00199999999999999));
#205=CARTESIAN_POINT('',(-0.0199769522168976,-0.0261225763577555,0.01016));
#206=CARTESIAN_POINT('',(-0.0199769522168976,-0.0261225763577555,-0.002));
#207=CARTESIAN_POINT('',(-0.0160123014095477,-0.0293529091825517,0.01016));
#208=CARTESIAN_POINT('',(-0.0160123014095477,-0.0293529091825517,-0.002));
#209=CARTESIAN_POINT('',(-0.0126405236305877,-0.0312500168385023,0.01016));
#210=CARTESIAN_POINT('',(-0.0126405236305877,-0.0312500168385023,-0.002));
#211=CARTESIAN_POINT('',(-0.0092584007593053,-0.032607175601853,0.01016));
#212=CARTESIAN_POINT('',(-0.0092584007593053,-0.032607175601853,-0.002));
#213=CARTESIAN_POINT('',(-0.00504751497652312,-0.0334394445557265,0.01016));
#214=CARTESIAN_POINT('',(-0.00504751497652312,-0.0334394445557265,-0.002));
#215=CARTESIAN_POINT('',(-0.00168252490462156,-0.0336467723108955,0.01016));
#216=CARTESIAN_POINT('',(-0.00168252490462156,-0.0336467723108955,-0.002));
#217=CARTESIAN_POINT('',(9.86912084037983E-12,-0.0337474754961967,0.01016));
#218=CARTESIAN_POINT('',(9.86912084037983E-12,-0.0337474754961967,-0.002));
#219=CARTESIAN_POINT('',(9.86912084037983E-12,-0.0337474754961967,0.01016));
#220=CARTESIAN_POINT('',(9.86912084037983E-12,-0.0337474754961967,0.01016));
#221=CARTESIAN_POINT('',(9.86912084037983E-12,-0.0337474754961967,-0.002));
#222=CARTESIAN_POINT('',(0.,0.0347938752256078,-0.002));
#223=CARTESIAN_POINT('',(-0.0011312419289401,0.0296899994495048,-0.002));
#224=CARTESIAN_POINT('',(-0.00332648646663567,0.0190087382726828,-0.002));
#225=CARTESIAN_POINT('',(-0.0193868995672297,0.00840437533602466,-0.002));
#226=CARTESIAN_POINT('',(-0.0265142628488655,-0.00554066217581599,-0.002));
#227=CARTESIAN_POINT('',(-0.0257465446446393,-0.0214283341451377,-0.002));
#228=CARTESIAN_POINT('',(-0.0126037479672116,-0.0329611227923896,-0.002));
#229=CARTESIAN_POINT('',(-0.00400581740962056,-0.0335077176356127,-0.002));
#230=CARTESIAN_POINT('',(9.86912084037983E-12,-0.0337474754961967,-0.002));
#231=CARTESIAN_POINT('',(0.,0.0347938752256078,-0.002));
#232=CARTESIAN_POINT('',(0.,0.0347938752256078,0.01016));
#233=CARTESIAN_POINT('',(0.,0.0347938752256078,0.01016));
#234=CARTESIAN_POINT('',(0.,0.0347938752256078,0.01016));
#235=CARTESIAN_POINT('',(-0.0011312419289401,0.0296899994495048,0.01016));
#236=CARTESIAN_POINT('',(-0.00332648646663567,0.0190087382726828,0.01016));
#237=CARTESIAN_POINT('',(-0.0193868995672297,0.00840437533602466,0.01016));
#238=CARTESIAN_POINT('',(-0.0265142628488655,-0.00554066217581599,0.01016));
#239=CARTESIAN_POINT('',(-0.0257465446446393,-0.0214283341451377,0.01016));
#240=CARTESIAN_POINT('',(-0.0126037479672116,-0.0329611227923896,0.01016));
#241=CARTESIAN_POINT('',(-0.00400581740962056,-0.0335077176356127,0.01016));
#242=CARTESIAN_POINT('',(9.86912084037983E-12,-0.0337474754961967,0.01016));
#243=CARTESIAN_POINT('',(1.3010426069826E-18,0.0441842325020156,0.01016));
#244=CARTESIAN_POINT('',(1.3010426069826E-18,0.0441842325020156,-1.73472347597681E-18));
#245=CARTESIAN_POINT('',(-0.000462976283664362,0.0420954012991989,0.01016));
#246=CARTESIAN_POINT('',(-0.000462976283664362,0.0420954012991989,-1.73472347597681E-18));
#247=CARTESIAN_POINT('',(-0.00115616554878725,0.0389661883912671,0.01016));
#248=CARTESIAN_POINT('',(-0.00115616554878725,0.0389661883912671,1.73472347597681E-18));
#249=CARTESIAN_POINT('',(-0.00208551854377906,0.0347777689288509,0.01016));
#250=CARTESIAN_POINT('',(-0.00208551854377906,0.0347777689288509,-1.73472347597681E-18));
#251=CARTESIAN_POINT('',(-0.00299853990753632,0.0306344708843379,0.01016));
#252=CARTESIAN_POINT('',(-0.00299853990753632,0.0306344708843379,-1.73472347597681E-18));
#253=CARTESIAN_POINT('',(-0.00407696328683785,0.026742625303202,0.01016));
#254=CARTESIAN_POINT('',(-0.00407696328683785,0.026742625303202,0.));
#255=CARTESIAN_POINT('',(-0.00569453327652231,0.0232189701889041,0.01016));
#256=CARTESIAN_POINT('',(-0.00569453327652231,0.0232189701889041,-1.73472347597681E-18));
#257=CARTESIAN_POINT('',(-0.00725295236224968,0.0208092519482401,0.01016));
#258=CARTESIAN_POINT('',(-0.00725295236224968,0.0208092519482401,-3.46944695195361E-18));
#259=CARTESIAN_POINT('',(-0.00932002028713682,0.0184780725180252,0.01016));
#260=CARTESIAN_POINT('',(-0.00932002028713682,0.0184780725180252,0.));
#261=CARTESIAN_POINT('',(-0.0125635681175129,0.0154071266743835,0.01016));
#262=CARTESIAN_POINT('',(-0.0125635681175129,0.0154071266743835,-3.46944695195361E-18));
#263=CARTESIAN_POINT('',(-0.0162165981045674,0.0123381229815797,0.01016));
#264=CARTESIAN_POINT('',(-0.0162165981045674,0.0123381229815797,-1.73472347597681E-18));
#265=CARTESIAN_POINT('',(-0.0196573734545381,0.0089934390622584,0.01016));
#266=CARTESIAN_POINT('',(-0.0196573734545381,0.0089934390622584,-5.20417042793042E-18));
#267=CARTESIAN_POINT('',(-0.0226864616540113,0.00538103293938527,0.01016));
#268=CARTESIAN_POINT('',(-0.0226864616540113,0.00538103293938527,1.73472347597681E-18));
#269=CARTESIAN_POINT('',(-0.0255540252581802,0.00050337483855061,0.01016));
#270=CARTESIAN_POINT('',(-0.0255540252581802,0.00050337483855061,0.));
#271=CARTESIAN_POINT('',(-0.0275529897206368,-0.00584199511180019,0.01016));
#272=CARTESIAN_POINT('',(-0.0275529897206368,-0.00584199511180019,-5.20417042793042E-18));
#273=CARTESIAN_POINT('',(-0.028119086131555,-0.0126113164140389,0.01016));
#274=CARTESIAN_POINT('',(-0.028119086131555,-0.0126113164140389,-1.73472347597681E-18));
#275=CARTESIAN_POINT('',(-0.0270542522008974,-0.0182937715270386,0.01016));
#276=CARTESIAN_POINT('',(-0.0270542522008974,-0.0182937715270386,1.73472347597681E-18));
#277=CARTESIAN_POINT('',(-0.0250231145948157,-0.0226079263384923,0.01016));
#278=CARTESIAN_POINT('',(-0.0250231145948157,-0.0226079263384923,-1.73472347597681E-18));
#279=CARTESIAN_POINT('',(-0.0222703733140886,-0.0265666583603918,0.01016));
#280=CARTESIAN_POINT('',(-0.0222703733140886,-0.0265666583603918,-5.20417042793042E-18));
#281=CARTESIAN_POINT('',(-0.0187205067897371,-0.0299121564856321,0.01016));
#282=CARTESIAN_POINT('',(-0.0187205067897371,-0.0299121564856321,0.));
#283=CARTESIAN_POINT('',(-0.0147817898228985,-0.0324488402879385,0.01016));
#284=CARTESIAN_POINT('',(-0.0147817898228985,-0.0324488402879385,-6.93889390390723E-18));
#285=CARTESIAN_POINT('',(-0.0106894687224565,-0.0343529372795984,0.01016));
#286=CARTESIAN_POINT('',(-0.0106894687224565,-0.0343529372795984,0.));
#287=CARTESIAN_POINT('',(-0.00565972520602037,-0.0354485996825181,0.01016));
#288=CARTESIAN_POINT('',(-0.00565972520602037,-0.0354485996825181,-5.20417042793042E-18));
#289=CARTESIAN_POINT('',(-0.00185022542883732,-0.0356723714041839,0.01016));
#290=CARTESIAN_POINT('',(-0.00185022542883732,-0.0356723714041839,-1.73472347597681E-18));
#291=CARTESIAN_POINT('',(6.16625077821259E-15,-0.0357831118708512,0.01016));
#292=CARTESIAN_POINT('',(6.16625077821259E-15,-0.0357831118708512,-1.73472347597681E-18));
#293=CARTESIAN_POINT('',(1.3010426069826E-18,0.0441842325020156,0.));
#294=CARTESIAN_POINT('',(-0.00023148814183218,0.0431398169006073,0.));
#295=CARTESIAN_POINT('',(-0.000694476255479441,0.0410509178599743,0.));
#296=CARTESIAN_POINT('',(-0.00127315224762403,0.0384401332482638,0.));
#297=CARTESIAN_POINT('',(-0.00167833413009311,0.0366119607601307,0.));
#298=CARTESIAN_POINT('',(-0.00190969805710486,0.0355682574557918,0.));
#299=CARTESIAN_POINT('',(-0.00214169488820165,0.0345209248282895,0.));
#300=CARTESIAN_POINT('',(-0.00242841206878191,0.0332215258577674,0.));
#301=CARTESIAN_POINT('',(-0.00289800036545662,0.0311747801424875,0.));
#302=CARTESIAN_POINT('',(-0.00353695738536629,0.0286880959399887,0.));
#303=CARTESIAN_POINT('',(-0.00432442508772536,0.0263320462183431,0.));
#304=CARTESIAN_POINT('',(-0.0050874973703937,0.0245418798095766,0.));
#305=CARTESIAN_POINT('',(-0.00573728427448128,0.0232493603091132,0.));
#306=CARTESIAN_POINT('',(-0.00647580678427902,0.0220075231824544,0.));
#307=CARTESIAN_POINT('',(-0.00759625996504359,0.0204245480538836,0.));
#308=CARTESIAN_POINT('',(-0.00932053392485716,0.0184765778525001,0.));
#309=CARTESIAN_POINT('',(-0.0117521737982063,0.0161759516514738,0.));
#310=CARTESIAN_POINT('',(-0.01439159892017,0.013869765428787,0.));
#311=CARTESIAN_POINT('',(-0.0166302879663503,0.0118962028112674,0.));
#312=CARTESIAN_POINT('',(-0.0183644740434446,0.0102498178025802,0.));
#313=CARTESIAN_POINT('',(-0.0196185003486871,0.00896863684562914,0.));
#314=CARTESIAN_POINT('',(-0.0207969999261622,0.00763547753579005,0.));
#315=CARTESIAN_POINT('',(-0.022244715912623,0.00580998044933409,0.));
#316=CARTESIAN_POINT('',(-0.0238316045725541,0.00343265488135323,0.));
#317=CARTESIAN_POINT('',(-0.0253740087419538,0.000442242622732646,0.));
#318=CARTESIAN_POINT('',(-0.0265544001461656,-0.00267355657032923,0.));
#319=CARTESIAN_POINT('',(-0.0273736759637048,-0.00589469912283044,0.));
#320=CARTESIAN_POINT('',(-0.0278359662712976,-0.00922356896103783,0.));
#321=CARTESIAN_POINT('',(-0.0278891607346903,-0.0126180494882643,0.));
#322=CARTESIAN_POINT('',(-0.0274780104515638,-0.0160217564034991,0.));
#323=CARTESIAN_POINT('',(-0.026699888784316,-0.0188148090205996,0.));
#324=CARTESIAN_POINT('',(-0.0257891838806606,-0.0209879708521903,0.));
#325=CARTESIAN_POINT('',(-0.0246764973327922,-0.023103992296212,0.));
#326=CARTESIAN_POINT('',(-0.0229593166338431,-0.0255766924201109,0.));
#327=CARTESIAN_POINT('',(-0.0204955891758559,-0.0282390132292962,0.));
#328=CARTESIAN_POINT('',(-0.0177360690653113,-0.0305468166096125,0.));
#329=CARTESIAN_POINT('',(-0.0152732403690685,-0.0321305342583013,0.));
#330=CARTESIAN_POINT('',(-0.0132487214412089,-0.0331649758229583,0.));
#331=CARTESIAN_POINT('',(-0.011205969429473,-0.0340282840199069,0.));
#332=CARTESIAN_POINT('',(-0.00867656075132032,-0.0347898013446426,0.));
#333=CARTESIAN_POINT('',(-0.00470795660046175,-0.0355053831506088,0.));
#334=CARTESIAN_POINT('',(-0.00185022542883733,-0.035672371404184,0.));
#335=CARTESIAN_POINT('',(6.16625077821259E-15,-0.0357831118708512,0.));
#336=CARTESIAN_POINT('',(6.18633562345788E-15,-0.0357831118708512,0.));
#337=CARTESIAN_POINT('',(0.,0.0441842325020156,0.));
#338=CARTESIAN_POINT('',(6.18633562345788E-15,-0.0357831118708512,0.01016));
#339=CARTESIAN_POINT('',(6.18633562345788E-15,-0.0357831118708512,0.01016));
#340=CARTESIAN_POINT('',(1.3010426069826E-18,0.0441842325020156,0.01016));
#341=CARTESIAN_POINT('',(-0.00023148814183218,0.0431398169006073,0.01016));
#342=CARTESIAN_POINT('',(-0.000694476255479441,0.0410509178599743,0.01016));
#343=CARTESIAN_POINT('',(-0.00127315224762403,0.0384401332482638,0.01016));
#344=CARTESIAN_POINT('',(-0.00167833413009311,0.0366119607601307,0.01016));
#345=CARTESIAN_POINT('',(-0.00190969805710486,0.0355682574557918,0.01016));
#346=CARTESIAN_POINT('',(-0.00214169488820165,0.0345209248282895,0.01016));
#347=CARTESIAN_POINT('',(-0.00242841206878191,0.0332215258577674,0.01016));
#348=CARTESIAN_POINT('',(-0.00289800036545662,0.0311747801424875,0.01016));
#349=CARTESIAN_POINT('',(-0.00353695738536629,0.0286880959399887,0.01016));
#350=CARTESIAN_POINT('',(-0.00432442508772536,0.0263320462183431,0.01016));
#351=CARTESIAN_POINT('',(-0.0050874973703937,0.0245418798095766,0.01016));
#352=CARTESIAN_POINT('',(-0.00573728427448128,0.0232493603091132,0.01016));
#353=CARTESIAN_POINT('',(-0.00647580678427902,0.0220075231824544,0.01016));
#354=CARTESIAN_POINT('',(-0.00759625996504359,0.0204245480538836,0.01016));
#355=CARTESIAN_POINT('',(-0.00932053392485716,0.0184765778525001,0.01016));
#356=CARTESIAN_POINT('',(-0.0117521737982063,0.0161759516514738,0.01016));
#357=CARTESIAN_POINT('',(-0.01439159892017,0.013869765428787,0.01016));
#358=CARTESIAN_POINT('',(-0.0166302879663503,0.0118962028112674,0.01016));
#359=CARTESIAN_POINT('',(-0.0183644740434446,0.0102498178025802,0.01016));
#360=CARTESIAN_POINT('',(-0.0196185003486871,0.00896863684562914,0.01016));
#361=CARTESIAN_POINT('',(-0.0207969999261622,0.00763547753579005,0.01016));
#362=CARTESIAN_POINT('',(-0.022244715912623,0.00580998044933409,0.01016));
#363=CARTESIAN_POINT('',(-0.0238316045725541,0.00343265488135323,0.01016));
#364=CARTESIAN_POINT('',(-0.0253740087419538,0.000442242622732646,0.01016));
#365=CARTESIAN_POINT('',(-0.0265544001461656,-0.00267355657032923,0.01016));
#366=CARTESIAN_POINT('',(-0.0273736759637048,-0.00589469912283044,0.01016));
#367=CARTESIAN_POINT('',(-0.0278359662712976,-0.00922356896103783,0.01016));
#368=CARTESIAN_POINT('',(-0.0278891607346903,-0.0126180494882643,0.01016));
#369=CARTESIAN_POINT('',(-0.0274780104515638,-0.0160217564034991,0.01016));
#370=CARTESIAN_POINT('',(-0.026699888784316,-0.0188148090205996,0.01016));
#371=CARTESIAN_POINT('',(-0.0257891838806606,-0.0209879708521903,0.01016));
#372=CARTESIAN_POINT('',(-0.0246764973327922,-0.023103992296212,0.01016));
#373=CARTESIAN_POINT('',(-0.0229593166338431,-0.0255766924201109,0.01016));
#374=CARTESIAN_POINT('',(-0.0204955891758559,-0.0282390132292962,0.01016));
#375=CARTESIAN_POINT('',(-0.0177360690653113,-0.0305468166096125,0.01016));
#376=CARTESIAN_POINT('',(-0.0152732403690685,-0.0321305342583013,0.01016));
#377=CARTESIAN_POINT('',(-0.0132487214412089,-0.0331649758229583,0.01016));
#378=CARTESIAN_POINT('',(-0.011205969429473,-0.0340282840199069,0.01016));
#379=CARTESIAN_POINT('',(-0.00867656075132032,-0.0347898013446426,0.01016));
#380=CARTESIAN_POINT('',(-0.00470795660046175,-0.0355053831506088,0.01016));
#381=CARTESIAN_POINT('',(-0.00185022542883733,-0.035672371404184,0.01016));
#382=CARTESIAN_POINT('',(6.16625077821259E-15,-0.0357831118708512,0.01016));
#383=CARTESIAN_POINT('',(0.,0.0441842325020156,0.01016));
#384=CARTESIAN_POINT('',(0.,0.0441842325020156,0.01016));
#385=CARTESIAN_POINT('',(-1.3010426069826E-18,0.0441842325020156,0.01016));
#386=CARTESIAN_POINT('',(-1.3010426069826E-18,0.0441842325020156,2.08166817117217E-17));
#387=CARTESIAN_POINT('',(0.000462976283664362,0.0420954012991989,0.01016));
#388=CARTESIAN_POINT('',(0.000462976283664362,0.0420954012991989,2.08166817117217E-17));
#389=CARTESIAN_POINT('',(0.00115616554878725,0.0389661883912671,0.01016));
#390=CARTESIAN_POINT('',(0.00115616554878725,0.0389661883912671,2.42861286636753E-17));
#391=CARTESIAN_POINT('',(0.00208551854377906,0.0347777689288509,0.01016));
#392=CARTESIAN_POINT('',(0.00208551854377906,0.0347777689288509,2.08166817117217E-17));
#393=CARTESIAN_POINT('',(0.00299853990753632,0.0306344708843379,0.01016));
#394=CARTESIAN_POINT('',(0.00299853990753632,0.0306344708843379,2.08166817117217E-17));
#395=CARTESIAN_POINT('',(0.00407696328683785,0.0267426253032019,0.01016));
#396=CARTESIAN_POINT('',(0.00407696328683785,0.0267426253032019,2.25514051876985E-17));
#397=CARTESIAN_POINT('',(0.00569453327652231,0.0232189701889041,0.01016));
#398=CARTESIAN_POINT('',(0.00569453327652231,0.0232189701889041,2.08166817117217E-17));
#399=CARTESIAN_POINT('',(0.00725295236224968,0.0208092519482401,0.01016));
#400=CARTESIAN_POINT('',(0.00725295236224968,0.0208092519482401,1.90819582357449E-17));
#401=CARTESIAN_POINT('',(0.00932002028713682,0.0184780725180252,0.01016));
#402=CARTESIAN_POINT('',(0.00932002028713682,0.0184780725180252,2.25514051876985E-17));
#403=CARTESIAN_POINT('',(0.0125635681175129,0.0154071266743835,0.01016));
#404=CARTESIAN_POINT('',(0.0125635681175129,0.0154071266743835,1.90819582357449E-17));
#405=CARTESIAN_POINT('',(0.0162165981045674,0.0123381229815797,0.01016));
#406=CARTESIAN_POINT('',(0.0162165981045674,0.0123381229815797,2.08166817117217E-17));
#407=CARTESIAN_POINT('',(0.0196573734545381,0.00899343906225839,0.01016));
#408=CARTESIAN_POINT('',(0.0196573734545381,0.00899343906225839,1.73472347597681E-17));
#409=CARTESIAN_POINT('',(0.0226864616540113,0.00538103293938528,0.01016));
#410=CARTESIAN_POINT('',(0.0226864616540113,0.00538103293938528,2.42861286636753E-17));
#411=CARTESIAN_POINT('',(0.0255540252581802,0.000503374838550606,0.01016));
#412=CARTESIAN_POINT('',(0.0255540252581802,0.000503374838550606,2.25514051876985E-17));
#413=CARTESIAN_POINT('',(0.0275529897206368,-0.00584199511180019,0.01016));
#414=CARTESIAN_POINT('',(0.0275529897206368,-0.00584199511180019,1.73472347597681E-17));
#415=CARTESIAN_POINT('',(0.028119086131555,-0.0126113164140389,0.01016));
#416=CARTESIAN_POINT('',(0.028119086131555,-0.0126113164140389,2.08166817117217E-17));
#417=CARTESIAN_POINT('',(0.0270542522008974,-0.0182937715270386,0.01016));
#418=CARTESIAN_POINT('',(0.0270542522008974,-0.0182937715270386,2.42861286636753E-17));
#419=CARTESIAN_POINT('',(0.0250231145948157,-0.0226079263384923,0.01016));
#420=CARTESIAN_POINT('',(0.0250231145948157,-0.0226079263384923,2.08166817117217E-17));
#421=CARTESIAN_POINT('',(0.0222703733140885,-0.0265666583603918,0.01016));
#422=CARTESIAN_POINT('',(0.0222703733140885,-0.0265666583603918,1.73472347597681E-17));
#423=CARTESIAN_POINT('',(0.0187205067897372,-0.0299121564856321,0.01016));
#424=CARTESIAN_POINT('',(0.0187205067897372,-0.0299121564856321,2.25514051876985E-17));
#425=CARTESIAN_POINT('',(0.0147817898228984,-0.0324488402879386,0.01016));
#426=CARTESIAN_POINT('',(0.0147817898228984,-0.0324488402879386,1.56125112837913E-17));
#427=CARTESIAN_POINT('',(0.0106894687224572,-0.0343529372795978,0.01016));
#428=CARTESIAN_POINT('',(0.0106894687224572,-0.0343529372795978,2.25514051876985E-17));
#429=CARTESIAN_POINT('',(0.00565972520601485,-0.0354485996825234,0.01016));
#430=CARTESIAN_POINT('',(0.00565972520601485,-0.0354485996825234,1.73472347597681E-17));
#431=CARTESIAN_POINT('',(0.00185022542884893,-0.0356723714041728,0.01016));
#432=CARTESIAN_POINT('',(0.00185022542884893,-0.0356723714041728,2.08166817117217E-17));
#433=CARTESIAN_POINT('',(6.21024228136119E-15,-0.0357831118708512,0.01016));
#434=CARTESIAN_POINT('',(6.21024228136119E-15,-0.0357831118708512,2.08166817117217E-17));
#435=CARTESIAN_POINT('',(-1.3010426069826E-18,0.0441842325020156,0.));
#436=CARTESIAN_POINT('',(0.00023148814183218,0.0431398169006073,0.));
#437=CARTESIAN_POINT('',(0.000694476255479441,0.0410509178599743,0.));
#438=CARTESIAN_POINT('',(0.00127315224762403,0.0384401332482638,0.));
#439=CARTESIAN_POINT('',(0.00167833413009311,0.0366119607601307,0.));
#440=CARTESIAN_POINT('',(0.00190969805710487,0.0355682574557918,0.));
#441=CARTESIAN_POINT('',(0.00214169488820165,0.0345209248282895,0.));
#442=CARTESIAN_POINT('',(0.00242841206878191,0.0332215258577674,0.));
#443=CARTESIAN_POINT('',(0.00289800036545662,0.0311747801424875,0.));
#444=CARTESIAN_POINT('',(0.00353695738536629,0.0286880959399887,0.));
#445=CARTESIAN_POINT('',(0.00432442508772536,0.026332046218343,0.));
#446=CARTESIAN_POINT('',(0.0050874973703937,0.0245418798095766,0.));
#447=CARTESIAN_POINT('',(0.00573728427448128,0.0232493603091132,0.));
#448=CARTESIAN_POINT('',(0.00647580678427902,0.0220075231824544,0.));
#449=CARTESIAN_POINT('',(0.00759625996504359,0.0204245480538836,0.));
#450=CARTESIAN_POINT('',(0.00932053392485716,0.0184765778525001,0.));
#451=CARTESIAN_POINT('',(0.0117521737982063,0.0161759516514738,0.));
#452=CARTESIAN_POINT('',(0.01439159892017,0.013869765428787,0.));
#453=CARTESIAN_POINT('',(0.0166302879663503,0.0118962028112674,0.));
#454=CARTESIAN_POINT('',(0.0183644740434446,0.0102498178025802,0.));
#455=CARTESIAN_POINT('',(0.0196185003486871,0.00896863684562914,0.));
#456=CARTESIAN_POINT('',(0.0207969999261622,0.00763547753579005,0.));
#457=CARTESIAN_POINT('',(0.022244715912623,0.0058099804493341,0.));
#458=CARTESIAN_POINT('',(0.0238316045725541,0.00343265488135323,0.));
#459=CARTESIAN_POINT('',(0.0253740087419538,0.000442242622732644,0.));
#460=CARTESIAN_POINT('',(0.0265544001461656,-0.00267355657032921,0.));
#461=CARTESIAN_POINT('',(0.0273736759637048,-0.00589469912283044,0.));
#462=CARTESIAN_POINT('',(0.0278359662712976,-0.00922356896103785,0.));
#463=CARTESIAN_POINT('',(0.0278891607346903,-0.0126180494882643,0.));
#464=CARTESIAN_POINT('',(0.0274780104515638,-0.0160217564034991,0.));
#465=CARTESIAN_POINT('',(0.026699888784316,-0.0188148090205996,0.));
#466=CARTESIAN_POINT('',(0.0257891838806606,-0.0209879708521903,0.));
#467=CARTESIAN_POINT('',(0.0246764973327922,-0.023103992296212,0.));
#468=CARTESIAN_POINT('',(0.022959316633843,-0.0255766924201109,0.));
#469=CARTESIAN_POINT('',(0.020495589175856,-0.0282390132292962,0.));
#470=CARTESIAN_POINT('',(0.0177360690653113,-0.0305468166096125,0.));
#471=CARTESIAN_POINT('',(0.0152732403690685,-0.0321305342583012,0.));
#472=CARTESIAN_POINT('',(0.0132487214412089,-0.0331649758229583,0.));
#473=CARTESIAN_POINT('',(0.011205969429473,-0.034028284019907,0.));
#474=CARTESIAN_POINT('',(0.00867656075132082,-0.0347898013446421,0.));
#475=CARTESIAN_POINT('',(0.00470795660045914,-0.0355053831506113,0.));
#476=CARTESIAN_POINT('',(0.00185022542884894,-0.0356723714041728,0.));
#477=CARTESIAN_POINT('',(6.21024228136119E-15,-0.0357831118708512,0.));
#478=CARTESIAN_POINT('',(-1.3010426069826E-18,0.0441842325020156,0.01016));
#479=CARTESIAN_POINT('',(0.00023148814183218,0.0431398169006073,0.01016));
#480=CARTESIAN_POINT('',(0.000694476255479441,0.0410509178599743,0.01016));
#481=CARTESIAN_POINT('',(0.00127315224762403,0.0384401332482638,0.01016));
#482=CARTESIAN_POINT('',(0.00167833413009311,0.0366119607601307,0.01016));
#483=CARTESIAN_POINT('',(0.00190969805710487,0.0355682574557918,0.01016));
#484=CARTESIAN_POINT('',(0.00214169488820165,0.0345209248282895,0.01016));
#485=CARTESIAN_POINT('',(0.00242841206878191,0.0332215258577674,0.01016));
#486=CARTESIAN_POINT('',(0.00289800036545662,0.0311747801424875,0.01016));
#487=CARTESIAN_POINT('',(0.00353695738536629,0.0286880959399887,0.01016));
#488=CARTESIAN_POINT('',(0.00432442508772536,0.026332046218343,0.01016));
#489=CARTESIAN_POINT('',(0.0050874973703937,0.0245418798095766,0.01016));
#490=CARTESIAN_POINT('',(0.00573728427448128,0.0232493603091132,0.01016));
#491=CARTESIAN_POINT('',(0.00647580678427902,0.0220075231824544,0.01016));
#492=CARTESIAN_POINT('',(0.00759625996504359,0.0204245480538836,0.01016));
#493=CARTESIAN_POINT('',(0.00932053392485716,0.0184765778525001,0.01016));
#494=CARTESIAN_POINT('',(0.0117521737982063,0.0161759516514738,0.01016));
#495=CARTESIAN_POINT('',(0.01439159892017,0.013869765428787,0.01016));
#496=CARTESIAN_POINT('',(0.0166302879663503,0.0118962028112674,0.01016));
#497=CARTESIAN_POINT('',(0.0183644740434446,0.0102498178025802,0.01016));
#498=CARTESIAN_POINT('',(0.0196185003486871,0.00896863684562914,0.01016));
#499=CARTESIAN_POINT('',(0.0207969999261622,0.00763547753579005,0.01016));
#500=CARTESIAN_POINT('',(0.022244715912623,0.0058099804493341,0.01016));
#501=CARTESIAN_POINT('',(0.0238316045725541,0.00343265488135323,0.01016));
#502=CARTESIAN_POINT('',(0.0253740087419538,0.000442242622732644,0.01016));
#503=CARTESIAN_POINT('',(0.0265544001461656,-0.00267355657032921,0.01016));
#504=CARTESIAN_POINT('',(0.0273736759637048,-0.00589469912283044,0.01016));
#505=CARTESIAN_POINT('',(0.0278359662712976,-0.00922356896103785,0.01016));
#506=CARTESIAN_POINT('',(0.0278891607346903,-0.0126180494882643,0.01016));
#507=CARTESIAN_POINT('',(0.0274780104515638,-0.0160217564034991,0.01016));
#508=CARTESIAN_POINT('',(0.026699888784316,-0.0188148090205996,0.01016));
#509=CARTESIAN_POINT('',(0.0257891838806606,-0.0209879708521903,0.01016));
#510=CARTESIAN_POINT('',(0.0246764973327922,-0.023103992296212,0.01016));
#511=CARTESIAN_POINT('',(0.022959316633843,-0.0255766924201109,0.01016));
#512=CARTESIAN_POINT('',(0.020495589175856,-0.0282390132292962,0.01016));
#513=CARTESIAN_POINT('',(0.0177360690653113,-0.0305468166096125,0.01016));
#514=CARTESIAN_POINT('',(0.0152732403690685,-0.0321305342583012,0.01016));
#515=CARTESIAN_POINT('',(0.0132487214412089,-0.0331649758229583,0.01016));
#516=CARTESIAN_POINT('',(0.011205969429473,-0.034028284019907,0.01016));
#517=CARTESIAN_POINT('',(0.00867656075132082,-0.0347898013446421,0.01016));
#518=CARTESIAN_POINT('',(0.00470795660045914,-0.0355053831506113,0.01016));
#519=CARTESIAN_POINT('',(0.00185022542884894,-0.0356723714041728,0.01016));
#520=CARTESIAN_POINT('',(6.21024228136119E-15,-0.0357831118708512,0.01016));
#521=CARTESIAN_POINT('',(0.,0.0347938752256078,0.01016));
#522=CARTESIAN_POINT('',(0.,0.0347938752256078,-0.002));
#523=CARTESIAN_POINT('',(0.00042101309378028,0.0328943712593956,0.01016));
#524=CARTESIAN_POINT('',(0.00042101309378028,0.0328943712593956,-0.002));
#525=CARTESIAN_POINT('',(0.00124028332377923,0.0290919164455694,0.01016));
#526=CARTESIAN_POINT('',(0.00124028332377923,0.0290919164455694,-0.002));
#527=CARTESIAN_POINT('',(0.00274707563581624,0.024541191453745,0.01016));
#528=CARTESIAN_POINT('',(0.00274707563581624,0.024541191453745,-0.00199999999999999));
#529=CARTESIAN_POINT('',(0.00455470396133822,0.0211441864388814,0.01016));
#530=CARTESIAN_POINT('',(0.00455470396133822,0.0211441864388814,-0.002));
#531=CARTESIAN_POINT('',(0.00689874430505904,0.0179624085261769,0.01016));
#532=CARTESIAN_POINT('',(0.00689874430505904,0.0179624085261769,-0.002));
#533=CARTESIAN_POINT('',(0.010698965743234,0.0143346672154269,0.01016));
#534=CARTESIAN_POINT('',(0.010698965743234,0.0143346672154269,-0.002));
#535=CARTESIAN_POINT('',(0.0148195566185433,0.0108401584685125,0.01016));
#536=CARTESIAN_POINT('',(0.0148195566185433,0.0108401584685125,-0.00200000000000001));
#537=CARTESIAN_POINT('',(0.0178380346683293,0.00793823947093598,0.01016));
#538=CARTESIAN_POINT('',(0.0178380346683293,0.00793823947093598,-0.002));
#539=CARTESIAN_POINT('',(0.0204950276895762,0.00489538572918348,0.01016));
#540=CARTESIAN_POINT('',(0.0204950276895762,0.00489538572918348,-0.002));
#541=CARTESIAN_POINT('',(0.0230944490139728,0.000817958569986329,0.01016));
#542=CARTESIAN_POINT('',(0.0230944490139728,0.000817958569986329,-0.002));
#543=CARTESIAN_POINT('',(0.0250872547678235,-0.00445023386730439,0.01016));
#544=CARTESIAN_POINT('',(0.0250872547678235,-0.00445023386730439,-0.002));
#545=CARTESIAN_POINT('',(0.0259982519603467,-0.0100766469627771,0.01016));
#546=CARTESIAN_POINT('',(0.0259982519603467,-0.0100766469627771,-0.002));
#547=CARTESIAN_POINT('',(0.0256341714321857,-0.0157943682429678,0.01016));
#548=CARTESIAN_POINT('',(0.0256341714321857,-0.0157943682429678,-0.002));
#549=CARTESIAN_POINT('',(0.0236890815114577,-0.0212542311767332,0.01016));
#550=CARTESIAN_POINT('',(0.0236890815114577,-0.0212542311767332,-0.002));
#551=CARTESIAN_POINT('',(0.0199769522232387,-0.0261225763512106,0.01016));
#552=CARTESIAN_POINT('',(0.0199769522232387,-0.0261225763512106,-0.002));
#553=CARTESIAN_POINT('',(0.0160123014172966,-0.0293529091771031,0.01016));
#554=CARTESIAN_POINT('',(0.0160123014172966,-0.0293529091771031,-0.002));
#555=CARTESIAN_POINT('',(0.0126405236389857,-0.0312500168344354,0.01016));
#556=CARTESIAN_POINT('',(0.0126405236389857,-0.0312500168344354,-0.002));
#557=CARTESIAN_POINT('',(0.00925840076804427,-0.032607175599422,0.01016));
#558=CARTESIAN_POINT('',(0.00925840076804427,-0.032607175599422,-0.002));
#559=CARTESIAN_POINT('',(0.00504751498578186,-0.0334394445546928,0.01016));
#560=CARTESIAN_POINT('',(0.00504751498578186,-0.0334394445546928,-0.002));
#561=CARTESIAN_POINT('',(0.00168252491428034,-0.0336467723103071,0.01016));
#562=CARTESIAN_POINT('',(0.00168252491428034,-0.0336467723103071,-0.002));
#563=CARTESIAN_POINT('',(-3.84845692640024E-15,-0.0337474754956062,0.01016));
#564=CARTESIAN_POINT('',(-3.84845692640024E-15,-0.0337474754956062,-0.002));
#565=CARTESIAN_POINT('',(0.,0.0347938752256078,-0.002));
#566=CARTESIAN_POINT('',(0.0011312419289401,0.0296899994495048,-0.002));
#567=CARTESIAN_POINT('',(0.00332648646663567,0.0190087382726828,-0.002));
#568=CARTESIAN_POINT('',(0.0193868995672297,0.00840437533602466,-0.002));
#569=CARTESIAN_POINT('',(0.0265142628488655,-0.00554066217581599,-0.002));
#570=CARTESIAN_POINT('',(0.0257465446446393,-0.0214283341451377,-0.002));
#571=CARTESIAN_POINT('',(0.0126037479705346,-0.0329611227894736,-0.002));
#572=CARTESIAN_POINT('',(0.00400581741619513,-0.0335077176351947,-0.002));
#573=CARTESIAN_POINT('',(-3.84845692640024E-15,-0.0337474754956062,-0.002));
#574=CARTESIAN_POINT('',(0.,0.0347938752256078,0.01016));
#575=CARTESIAN_POINT('',(0.0011312419289401,0.0296899994495048,0.01016));
#576=CARTESIAN_POINT('',(0.00332648646663567,0.0190087382726828,0.01016));
#577=CARTESIAN_POINT('',(0.0193868995672297,0.00840437533602466,0.01016));
#578=CARTESIAN_POINT('',(0.0265142628488655,-0.00554066217581599,0.01016));
#579=CARTESIAN_POINT('',(0.0257465446446393,-0.0214283341451377,0.01016));
#580=CARTESIAN_POINT('',(0.0126037479705346,-0.0329611227894736,0.01016));
#581=CARTESIAN_POINT('',(0.00400581741619513,-0.0335077176351947,0.01016));
#582=CARTESIAN_POINT('',(-3.84845692640024E-15,-0.0337474754956062,0.01016));
#583=CARTESIAN_POINT('',(-0.0253136732810892,0.00042134480032577,0.01016));
#584=CARTESIAN_POINT('',(-0.0240925684104741,0.00829178881342583,0.));
#585=CARTESIAN_POINT('',(1.7347234759768E-18,0.0580479489534051,0.));
#586=CARTESIAN_POINT('',(-0.000524929812036562,0.0556795991926091,0.));
#587=CARTESIAN_POINT('',(-0.00131232820720676,0.0521270575688798,0.));
#588=CARTESIAN_POINT('',(-0.00236217802563893,0.0473904033340484,0.));
#589=CARTESIAN_POINT('',(-0.00314960216061666,0.0438377428325723,0.));
#590=CARTESIAN_POINT('',(-0.00380568018846907,0.0408776880244185,0.));
#591=CARTESIAN_POINT('',(-0.00433074218921333,0.038508780730339,0.));
#592=CARTESIAN_POINT('',(-0.00465857656012152,0.0370294978974564,0.));
#593=CARTESIAN_POINT('',(-0.00492143247039903,0.0358440082236073,0.));
#594=CARTESIAN_POINT('',(-0.00518414375744579,0.0346552861912314,0.));
#595=CARTESIAN_POINT('',(-0.00550546517569735,0.033210509183021,0.));
#596=CARTESIAN_POINT('',(-0.00590126957693364,0.0315422975125216,0.));
#597=CARTESIAN_POINT('',(-0.00632232935457303,0.0299480066564725,0.));
#598=CARTESIAN_POINT('',(-0.00678247223959853,0.0284361869371627,0.));
#599=CARTESIAN_POINT('',(-0.00729409172904891,0.0270102918245112,0.));
#600=CARTESIAN_POINT('',(-0.00786714457071672,0.0256752924680645,0.));
#601=CARTESIAN_POINT('',(-0.00840612000560513,0.0246343882098592,0.));
#602=CARTESIAN_POINT('',(-0.00887920176259454,0.0238437849793627,0.));
#603=CARTESIAN_POINT('',(-0.00925646865019148,0.0232724166332053,0.));
#604=CARTESIAN_POINT('',(-0.00966714988401849,0.0227067092602518,0.));
#605=CARTESIAN_POINT('',(-0.010273649372418,0.0219415871777456,0.));
#606=CARTESIAN_POINT('',(-0.0111466917149551,0.0209557039696702,0.));
#607=CARTESIAN_POINT('',(-0.0127480478295382,0.0193387221584813,0.));
#608=CARTESIAN_POINT('',(-0.0150725388972649,0.0172446551618258,0.));
#609=CARTESIAN_POINT('',(-0.0176349398119704,0.0150258364420219,0.));
#610=CARTESIAN_POINT('',(-0.0197095745656717,0.0131227053981045,0.));
#611=CARTESIAN_POINT('',(-0.0212510569351219,0.0116112355697049,0.));
#612=CARTESIAN_POINT('',(-0.0227436729146091,0.00998711351501383,0.));
#613=CARTESIAN_POINT('',(-0.0241129553638537,0.00830132413692038,0.));
#614=CARTESIAN_POINT('',(-0.0253599160928209,0.00655832281785963,0.));
#615=CARTESIAN_POINT('',(-0.0268589562866314,0.00415815953201072,0.));
#616=CARTESIAN_POINT('',(-0.0284189537979549,0.00102621195755282,0.));
#617=CARTESIAN_POINT('',(-0.0297767546844038,-0.00290658723443689,0.));
#618=CARTESIAN_POINT('',(-0.0306276150763663,-0.00697559925817191,0.));
#619=CARTESIAN_POINT('',(-0.0309524816285607,-0.0112151720672238,0.));
#620=CARTESIAN_POINT('',(-0.0306946424743966,-0.014828611848944,0.));
#621=CARTESIAN_POINT('',(-0.0301169993693865,-0.0177219233695377,0.));
#622=CARTESIAN_POINT('',(-0.0294843778470676,-0.0198762423949694,0.));
#623=CARTESIAN_POINT('',(-0.0287805890112454,-0.0216462418435192,0.));
#624=CARTESIAN_POINT('',(-0.0281045016959758,-0.0230359429123252,0.));
#625=CARTESIAN_POINT('',(-0.0273627619678652,-0.0243902947060552,0.));
#626=CARTESIAN_POINT('',(-0.0263227210571822,-0.02600928261682,0.));
#627=CARTESIAN_POINT('',(-0.0249258255934256,-0.0278243162370166,0.));
#628=CARTESIAN_POINT('',(-0.0233995449751117,-0.0295165872288863,0.));
#629=CARTESIAN_POINT('',(-0.0217632389879376,-0.0310809089237937,0.));
#630=CARTESIAN_POINT('',(-0.0200333947136546,-0.0325126403994626,0.));
#631=CARTESIAN_POINT('',(-0.0182260680565185,-0.0338046308818408,0.));
#632=CARTESIAN_POINT('',(-0.0166643712017178,-0.0347588527287017,0.));
#633=CARTESIAN_POINT('',(-0.0153878144675076,-0.0354433777158304,0.));
#634=CARTESIAN_POINT('',(-0.0140906499058918,-0.0360745493670764,0.));
#635=CARTESIAN_POINT('',(-0.0124537024012262,-0.0367484717483161,0.));
#636=CARTESIAN_POINT('',(-0.0105158167937669,-0.0373722919851866,0.));
#637=CARTESIAN_POINT('',(-0.00861751275680794,-0.0378388559109945,0.));
#638=CARTESIAN_POINT('',(-0.00615333841141578,-0.0382885456437945,0.));
#639=CARTESIAN_POINT('',(-0.00380608194972053,-0.0385385630300024,0.));
#640=CARTESIAN_POINT('',(-0.00186451174905786,-0.0386750700852752,0.));
#641=CARTESIAN_POINT('',(-0.000787563177588001,-0.038741516418156,0.));
#642=CARTESIAN_POINT('',(-0.000262226846385079,-0.038772785624141,0.));
#643=CARTESIAN_POINT('',(1.5387322492566E-14,-0.038788480535091,0.));
#644=CARTESIAN_POINT('',(1.53951287482079E-14,-0.038788480535091,0.));
#645=CARTESIAN_POINT('',(0.,0.0580479489534051,0.));
#646=CARTESIAN_POINT('',(-4.33680868994202E-19,0.0580479489534051,0.));
#647=CARTESIAN_POINT('',(0.000524929812036562,0.0556795991926091,0.));
#648=CARTESIAN_POINT('',(0.00131232820720677,0.0521270575688798,0.));
#649=CARTESIAN_POINT('',(0.00236217802563893,0.0473904033340484,0.));
#650=CARTESIAN_POINT('',(0.00314960216061664,0.0438377428325723,0.));
#651=CARTESIAN_POINT('',(0.00380568018846906,0.0408776880244185,0.));
#652=CARTESIAN_POINT('',(0.00433074218921332,0.0385087807303391,0.));
#653=CARTESIAN_POINT('',(0.00465857656012152,0.0370294978974565,0.));
#654=CARTESIAN_POINT('',(0.00492143247039901,0.0358440082236074,0.));
#655=CARTESIAN_POINT('',(0.00518414375744579,0.0346552861912315,0.));
#656=CARTESIAN_POINT('',(0.00550546517569734,0.0332105091830212,0.));
#657=CARTESIAN_POINT('',(0.00590126957693363,0.0315422975125217,0.));
#658=CARTESIAN_POINT('',(0.00632232935457303,0.0299480066564726,0.));
#659=CARTESIAN_POINT('',(0.00678247223959851,0.0284361869371628,0.));
#660=CARTESIAN_POINT('',(0.0072940917290489,0.0270102918245112,0.));
#661=CARTESIAN_POINT('',(0.00786714457071668,0.0256752924680646,0.));
#662=CARTESIAN_POINT('',(0.00840612000560513,0.0246343882098592,0.));
#663=CARTESIAN_POINT('',(0.00887920176259453,0.0238437849793627,0.));
#664=CARTESIAN_POINT('',(0.00925646865019142,0.0232724166332054,0.));
#665=CARTESIAN_POINT('',(0.00966714988401847,0.0227067092602518,0.));
#666=CARTESIAN_POINT('',(0.0102736493724179,0.0219415871777457,0.));
#667=CARTESIAN_POINT('',(0.011146691714955,0.0209557039696704,0.));
#668=CARTESIAN_POINT('',(0.0127480478295382,0.0193387221584814,0.));
#669=CARTESIAN_POINT('',(0.0150725388972648,0.0172446551618258,0.));
#670=CARTESIAN_POINT('',(0.0176349398119702,0.015025836442022,0.));
#671=CARTESIAN_POINT('',(0.0197095745656716,0.0131227053981046,0.));
#672=CARTESIAN_POINT('',(0.0212510569351217,0.0116112355697051,0.));
#673=CARTESIAN_POINT('',(0.022743672914609,0.00998711351501392,0.));
#674=CARTESIAN_POINT('',(0.0241129553638535,0.00830132413692053,0.));
#675=CARTESIAN_POINT('',(0.0253599160928209,0.00655832281785975,0.));
#676=CARTESIAN_POINT('',(0.0268589562866314,0.00415815953201086,0.));
#677=CARTESIAN_POINT('',(0.0284189537979548,0.00102621195755296,0.));
#678=CARTESIAN_POINT('',(0.0297767546844037,-0.00290658723443667,0.));
#679=CARTESIAN_POINT('',(0.0306276150763662,-0.00697559925817185,0.));
#680=CARTESIAN_POINT('',(0.0309524816285607,-0.0112151720672236,0.));
#681=CARTESIAN_POINT('',(0.0306946424743966,-0.0148286118489437,0.));
#682=CARTESIAN_POINT('',(0.0301169993693865,-0.0177219233695375,0.));
#683=CARTESIAN_POINT('',(0.0294843778470676,-0.0198762423949691,0.));
#684=CARTESIAN_POINT('',(0.0287805890112455,-0.0216462418435189,0.));
#685=CARTESIAN_POINT('',(0.028104501695976,-0.0230359429123249,0.));
#686=CARTESIAN_POINT('',(0.0273627619678653,-0.0243902947060551,0.));
#687=CARTESIAN_POINT('',(0.0263227210571824,-0.0260092826168197,0.));
#688=CARTESIAN_POINT('',(0.0249258255934258,-0.0278243162370164,0.));
#689=CARTESIAN_POINT('',(0.023399544975112,-0.0295165872288859,0.));
#690=CARTESIAN_POINT('',(0.0217632389879378,-0.0310809089237935,0.));
#691=CARTESIAN_POINT('',(0.0200333947136547,-0.0325126403994625,0.));
#692=CARTESIAN_POINT('',(0.0182260680565188,-0.0338046308818407,0.));
#693=CARTESIAN_POINT('',(0.0166643712017179,-0.0347588527287016,0.));
#694=CARTESIAN_POINT('',(0.015387814467508,-0.0354433777158302,0.));
#695=CARTESIAN_POINT('',(0.014090649905892,-0.0360745493670763,0.));
#696=CARTESIAN_POINT('',(0.0124537024012264,-0.0367484717483161,0.));
#697=CARTESIAN_POINT('',(0.0105158167937671,-0.0373722919851863,0.));
#698=CARTESIAN_POINT('',(0.00861751275680965,-0.0378388559109942,0.));
#699=CARTESIAN_POINT('',(0.00615333841141345,-0.0382885456437961,0.));
#700=CARTESIAN_POINT('',(0.00380608194971717,-0.0385385630299982,0.));
#701=CARTESIAN_POINT('',(0.00186451174907056,-0.0386750700852691,0.));
#702=CARTESIAN_POINT('',(0.00078756317761101,-0.0387415164181519,0.));
#703=CARTESIAN_POINT('',(0.000262226846415765,-0.0387727856241394,0.));
#704=CARTESIAN_POINT('',(1.54074886529742E-14,-0.038788480535091,0.));
#705=CARTESIAN_POINT('',(1.7347234759768E-18,0.0580479489534051,-0.002));
#706=CARTESIAN_POINT('',(1.7347234759768E-18,0.0580479489534051,0.));
#707=CARTESIAN_POINT('',(-0.000524929812036565,0.0556795991926091,-0.002));
#708=CARTESIAN_POINT('',(-0.000524929812036565,0.0556795991926091,0.));
#709=CARTESIAN_POINT('',(-0.0015752280054517,0.0509434260671949,-0.002));
#710=CARTESIAN_POINT('',(-0.0015752280054517,0.0509434260671949,4.33680868994202E-19));
#711=CARTESIAN_POINT('',(-0.00314804387952235,0.0438360080020063,-0.002));
#712=CARTESIAN_POINT('',(-0.00314804387952235,0.0438360080020063,-8.67361737988404E-19));
#713=CARTESIAN_POINT('',(-0.00446640642875707,0.0379223293769218,-0.002));
#714=CARTESIAN_POINT('',(-0.00446640642875707,0.0379223293769218,8.67361737988404E-19));
#715=CARTESIAN_POINT('',(-0.00550387836879325,0.0331714661062361,-0.002));
#716=CARTESIAN_POINT('',(-0.00550387836879325,0.0331714661062361,-4.33680868994202E-19));
#717=CARTESIAN_POINT('',(-0.00630172186457943,0.0299080978532844,-0.002));
#718=CARTESIAN_POINT('',(-0.00630172186457943,0.0299080978532844,4.33680868994202E-19));
#719=CARTESIAN_POINT('',(-0.00726229340771335,0.0269666535562007,-0.002));
#720=CARTESIAN_POINT('',(-0.00726229340771335,0.0269666535562007,4.33680868994202E-19));
#721=CARTESIAN_POINT('',(-0.00847508823107811,0.024377934625185,-0.002));
#722=CARTESIAN_POINT('',(-0.00847508823107811,0.024377934625185,4.33680868994202E-19));
#723=CARTESIAN_POINT('',(-0.0100046470416285,0.0221630924445033,-0.002));
#724=CARTESIAN_POINT('',(-0.0100046470416285,0.0221630924445033,-8.67361737988404E-19));
#725=CARTESIAN_POINT('',(-0.0122844377971318,0.0197551095450577,-0.002));
#726=CARTESIAN_POINT('',(-0.0122844377971318,0.0197551095450577,1.30104260698261E-18));
#727=CARTESIAN_POINT('',(-0.0150729729449981,0.0172451391498691,-0.002));
#728=CARTESIAN_POINT('',(-0.0150729729449981,0.0172451391498691,0.));
#729=CARTESIAN_POINT('',(-0.0181443956228397,0.0145825627586421,-0.002));
#730=CARTESIAN_POINT('',(-0.0181443956228397,0.0145825627586421,0.));
#731=CARTESIAN_POINT('',(-0.0212833925769857,0.0116608938677806,-0.002));
#732=CARTESIAN_POINT('',(-0.0212833925769857,0.0116608938677806,0.));
#733=CARTESIAN_POINT('',(-0.0251448815276525,0.00721786599363751,-0.002));
#734=CARTESIAN_POINT('',(-0.0251448815276525,0.00721786599363751,4.33680868994202E-19));
#735=CARTESIAN_POINT('',(-0.0286676295233104,0.00111156891974671,-0.002));
#736=CARTESIAN_POINT('',(-0.0286676295233104,0.00111156891974671,-8.67361737988404E-19));
#737=CARTESIAN_POINT('',(-0.0305185021195747,-0.00556689805064723,-0.002));
#738=CARTESIAN_POINT('',(-0.0305185021195747,-0.00556689805064723,4.33680868994202E-19));
#739=CARTESIAN_POINT('',(-0.0309530185893182,-0.0112139754599586,-0.002));
#740=CARTESIAN_POINT('',(-0.0309530185893182,-0.0112139754599586,-4.33680868994202E-19));
#741=CARTESIAN_POINT('',(-0.0306414106398894,-0.015553018089546,-0.002));
#742=CARTESIAN_POINT('',(-0.0306414106398894,-0.015553018089546,0.));
#743=CARTESIAN_POINT('',(-0.0295970431491491,-0.0198868704040213,-0.002));
#744=CARTESIAN_POINT('',(-0.0295970431491491,-0.0198868704040213,8.67361737988404E-19));
#745=CARTESIAN_POINT('',(-0.0276647587652517,-0.0241266349770133,-0.002));
#746=CARTESIAN_POINT('',(-0.0276647587652517,-0.0241266349770133,-4.33680868994202E-19));
#747=CARTESIAN_POINT('',(-0.0249879566889828,-0.0278872495011032,-0.002));
#748=CARTESIAN_POINT('',(-0.0249879566889828,-0.0278872495011032,4.33680868994202E-19));
#749=CARTESIAN_POINT('',(-0.0218089828848131,-0.0311475018123469,-0.002));
#750=CARTESIAN_POINT('',(-0.0218089828848131,-0.0311475018123469,4.33680868994202E-19));
#751=CARTESIAN_POINT('',(-0.0182620074122815,-0.0338756065730334,-0.002));
#752=CARTESIAN_POINT('',(-0.0182620074122815,-0.0338756065730334,4.33680868994202E-19));
#753=CARTESIAN_POINT('',(-0.0144326862365472,-0.0360309329204197,-0.002));
#754=CARTESIAN_POINT('',(-0.0144326862365472,-0.0360309329204197,0.));
#755=CARTESIAN_POINT('',(-0.0104906971982462,-0.03745518359775,-0.002));
#756=CARTESIAN_POINT('',(-0.0104906971982462,-0.03745518359775,0.));
#757=CARTESIAN_POINT('',(-0.00548844400534391,-0.0384813765189331,-0.002));
#758=CARTESIAN_POINT('',(-0.00548844400534391,-0.0384813765189331,0.));
#759=CARTESIAN_POINT('',(-0.00209781477118831,-0.038662921247491,-0.002));
#760=CARTESIAN_POINT('',(-0.00209781477118831,-0.038662921247491,0.));
#761=CARTESIAN_POINT('',(1.5387322492566E-14,-0.038788480535091,-0.002));
#762=CARTESIAN_POINT('',(1.5387322492566E-14,-0.038788480535091,0.));
#763=CARTESIAN_POINT('',(0.,0.0580479489534051,-0.002));
#764=CARTESIAN_POINT('',(0.,0.0580479489534051,-0.002));
#765=CARTESIAN_POINT('',(1.7347234759768E-18,0.0580479489534051,-0.002));
#766=CARTESIAN_POINT('',(-0.000524929812036562,0.0556795991926091,-0.002));
#767=CARTESIAN_POINT('',(-0.00131232820720676,0.0521270575688798,-0.002));
#768=CARTESIAN_POINT('',(-0.00236217802563893,0.0473904033340484,-0.002));
#769=CARTESIAN_POINT('',(-0.00314960216061666,0.0438377428325723,-0.002));
#770=CARTESIAN_POINT('',(-0.00380568018846907,0.0408776880244185,-0.002));
#771=CARTESIAN_POINT('',(-0.00433074218921333,0.038508780730339,-0.002));
#772=CARTESIAN_POINT('',(-0.00465857656012152,0.0370294978974564,-0.002));
#773=CARTESIAN_POINT('',(-0.00492143247039903,0.0358440082236073,-0.002));
#774=CARTESIAN_POINT('',(-0.00518414375744579,0.0346552861912314,-0.002));
#775=CARTESIAN_POINT('',(-0.00550546517569735,0.033210509183021,-0.002));
#776=CARTESIAN_POINT('',(-0.00590126957693364,0.0315422975125216,-0.002));
#777=CARTESIAN_POINT('',(-0.00632232935457303,0.0299480066564725,-0.002));
#778=CARTESIAN_POINT('',(-0.00678247223959853,0.0284361869371627,-0.002));
#779=CARTESIAN_POINT('',(-0.00729409172904891,0.0270102918245112,-0.002));
#780=CARTESIAN_POINT('',(-0.00786714457071672,0.0256752924680645,-0.002));
#781=CARTESIAN_POINT('',(-0.00840612000560513,0.0246343882098592,-0.002));
#782=CARTESIAN_POINT('',(-0.00887920176259454,0.0238437849793627,-0.002));
#783=CARTESIAN_POINT('',(-0.00925646865019148,0.0232724166332053,-0.002));
#784=CARTESIAN_POINT('',(-0.00966714988401849,0.0227067092602518,-0.002));
#785=CARTESIAN_POINT('',(-0.010273649372418,0.0219415871777456,-0.002));
#786=CARTESIAN_POINT('',(-0.0111466917149551,0.0209557039696702,-0.002));
#787=CARTESIAN_POINT('',(-0.0127480478295382,0.0193387221584813,-0.002));
#788=CARTESIAN_POINT('',(-0.0150725388972649,0.0172446551618258,-0.002));
#789=CARTESIAN_POINT('',(-0.0176349398119704,0.0150258364420219,-0.002));
#790=CARTESIAN_POINT('',(-0.0197095745656717,0.0131227053981045,-0.002));
#791=CARTESIAN_POINT('',(-0.0212510569351219,0.0116112355697049,-0.002));
#792=CARTESIAN_POINT('',(-0.0227436729146091,0.00998711351501383,-0.002));
#793=CARTESIAN_POINT('',(-0.0241129553638537,0.00830132413692038,-0.002));
#794=CARTESIAN_POINT('',(-0.0253599160928209,0.00655832281785963,-0.002));
#795=CARTESIAN_POINT('',(-0.0268589562866314,0.00415815953201072,-0.002));
#796=CARTESIAN_POINT('',(-0.0284189537979549,0.00102621195755282,-0.002));
#797=CARTESIAN_POINT('',(-0.0297767546844038,-0.00290658723443689,-0.002));
#798=CARTESIAN_POINT('',(-0.0306276150763663,-0.00697559925817191,-0.002));
#799=CARTESIAN_POINT('',(-0.0309524816285607,-0.0112151720672238,-0.002));
#800=CARTESIAN_POINT('',(-0.0306946424743966,-0.014828611848944,-0.002));
#801=CARTESIAN_POINT('',(-0.0301169993693865,-0.0177219233695377,-0.002));
#802=CARTESIAN_POINT('',(-0.0294843778470676,-0.0198762423949694,-0.002));
#803=CARTESIAN_POINT('',(-0.0287805890112454,-0.0216462418435192,-0.002));
#804=CARTESIAN_POINT('',(-0.0281045016959758,-0.0230359429123252,-0.002));
#805=CARTESIAN_POINT('',(-0.0273627619678652,-0.0243902947060552,-0.002));
#806=CARTESIAN_POINT('',(-0.0263227210571822,-0.02600928261682,-0.002));
#807=CARTESIAN_POINT('',(-0.0249258255934256,-0.0278243162370166,-0.002));
#808=CARTESIAN_POINT('',(-0.0233995449751117,-0.0295165872288863,-0.002));
#809=CARTESIAN_POINT('',(-0.0217632389879376,-0.0310809089237937,-0.002));
#810=CARTESIAN_POINT('',(-0.0200333947136546,-0.0325126403994626,-0.002));
#811=CARTESIAN_POINT('',(-0.0182260680565185,-0.0338046308818408,-0.002));
#812=CARTESIAN_POINT('',(-0.0166643712017178,-0.0347588527287017,-0.002));
#813=CARTESIAN_POINT('',(-0.0153878144675076,-0.0354433777158304,-0.002));
#814=CARTESIAN_POINT('',(-0.0140906499058918,-0.0360745493670764,-0.002));
#815=CARTESIAN_POINT('',(-0.0124537024012262,-0.0367484717483161,-0.002));
#816=CARTESIAN_POINT('',(-0.0105158167937669,-0.0373722919851866,-0.002));
#817=CARTESIAN_POINT('',(-0.00861751275680794,-0.0378388559109945,-0.002));
#818=CARTESIAN_POINT('',(-0.00615333841141578,-0.0382885456437945,-0.002));
#819=CARTESIAN_POINT('',(-0.00380608194972053,-0.0385385630300024,-0.002));
#820=CARTESIAN_POINT('',(-0.00186451174905786,-0.0386750700852752,-0.002));
#821=CARTESIAN_POINT('',(-0.000787563177588001,-0.038741516418156,-0.002));
#822=CARTESIAN_POINT('',(-0.000262226846385079,-0.038772785624141,-0.002));
#823=CARTESIAN_POINT('',(1.5387322492566E-14,-0.038788480535091,-0.002));
#824=CARTESIAN_POINT('',(1.53951287482079E-14,-0.038788480535091,-0.002));
#825=CARTESIAN_POINT('',(1.53951287482079E-14,-0.038788480535091,-0.002));
#826=CARTESIAN_POINT('',(-4.33680868994202E-19,0.0580479489534051,-0.002));
#827=CARTESIAN_POINT('',(-4.33680868994202E-19,0.0580479489534051,-4.33680868994202E-19));
#828=CARTESIAN_POINT('',(0.000524929812036563,0.0556795991926091,-0.002));
#829=CARTESIAN_POINT('',(0.000524929812036563,0.0556795991926091,0.));
#830=CARTESIAN_POINT('',(0.0015752280054517,0.0509434260671949,-0.002));
#831=CARTESIAN_POINT('',(0.0015752280054517,0.0509434260671949,-8.67361737988404E-19));
#832=CARTESIAN_POINT('',(0.00314804387952233,0.0438360080020063,-0.002));
#833=CARTESIAN_POINT('',(0.00314804387952233,0.0438360080020063,8.67361737988404E-19));
#834=CARTESIAN_POINT('',(0.00446640642875706,0.0379223293769218,-0.002));
#835=CARTESIAN_POINT('',(0.00446640642875706,0.0379223293769218,4.33680868994202E-19));
#836=CARTESIAN_POINT('',(0.00550387836879324,0.0331714661062362,-0.002));
#837=CARTESIAN_POINT('',(0.00550387836879324,0.0331714661062362,0.));
#838=CARTESIAN_POINT('',(0.00630172186457943,0.0299080978532845,-0.002));
#839=CARTESIAN_POINT('',(0.00630172186457943,0.0299080978532845,4.33680868994202E-19));
#840=CARTESIAN_POINT('',(0.00726229340771331,0.0269666535562007,-0.002));
#841=CARTESIAN_POINT('',(0.00726229340771331,0.0269666535562007,-4.33680868994202E-19));
#842=CARTESIAN_POINT('',(0.00847508823107811,0.024377934625185,-0.002));
#843=CARTESIAN_POINT('',(0.00847508823107811,0.024377934625185,0.));
#844=CARTESIAN_POINT('',(0.0100046470416284,0.0221630924445033,-0.002));
#845=CARTESIAN_POINT('',(0.0100046470416284,0.0221630924445033,4.33680868994202E-19));
#846=CARTESIAN_POINT('',(0.0122844377971317,0.0197551095450579,-0.002));
#847=CARTESIAN_POINT('',(0.0122844377971317,0.0197551095450579,0.));
#848=CARTESIAN_POINT('',(0.0150729729449979,0.0172451391498693,-0.002));
#849=CARTESIAN_POINT('',(0.0150729729449979,0.0172451391498693,0.));
#850=CARTESIAN_POINT('',(0.0181443956228396,0.0145825627586422,-0.002));
#851=CARTESIAN_POINT('',(0.0181443956228396,0.0145825627586422,4.33680868994202E-19));
#852=CARTESIAN_POINT('',(0.0212833925769855,0.0116608938677808,-0.002));
#853=CARTESIAN_POINT('',(0.0212833925769855,0.0116608938677808,0.));
#854=CARTESIAN_POINT('',(0.0251448815276524,0.00721786599363763,-0.002));
#855=CARTESIAN_POINT('',(0.0251448815276524,0.00721786599363763,0.));
#856=CARTESIAN_POINT('',(0.0286676295233104,0.00111156891974697,-0.002));
#857=CARTESIAN_POINT('',(0.0286676295233104,0.00111156891974697,-4.33680868994202E-19));
#858=CARTESIAN_POINT('',(0.0305185021195746,-0.00556689805064708,-0.002));
#859=CARTESIAN_POINT('',(0.0305185021195746,-0.00556689805064708,1.73472347597681E-18));
#860=CARTESIAN_POINT('',(0.0309530185893182,-0.0112139754599584,-0.002));
#861=CARTESIAN_POINT('',(0.0309530185893182,-0.0112139754599584,-8.67361737988404E-19));
#862=CARTESIAN_POINT('',(0.0306414106398895,-0.0155530180895454,-0.002));
#863=CARTESIAN_POINT('',(0.0306414106398895,-0.0155530180895454,8.67361737988404E-19));
#864=CARTESIAN_POINT('',(0.0295970431491492,-0.0198868704040212,-0.002));
#865=CARTESIAN_POINT('',(0.0295970431491492,-0.0198868704040212,-8.67361737988404E-19));
#866=CARTESIAN_POINT('',(0.0276647587652519,-0.0241266349770129,-0.002));
#867=CARTESIAN_POINT('',(0.0276647587652519,-0.0241266349770129,8.67361737988404E-19));
#868=CARTESIAN_POINT('',(0.0249879566889831,-0.0278872495011029,-0.002));
#869=CARTESIAN_POINT('',(0.0249879566889831,-0.0278872495011029,-8.67361737988404E-19));
#870=CARTESIAN_POINT('',(0.0218089828848134,-0.0311475018123465,-0.002));
#871=CARTESIAN_POINT('',(0.0218089828848134,-0.0311475018123465,4.33680868994202E-19));
#872=CARTESIAN_POINT('',(0.0182620074122819,-0.0338756065730332,-0.002));
#873=CARTESIAN_POINT('',(0.0182620074122819,-0.0338756065730332,-8.67361737988404E-19));
#874=CARTESIAN_POINT('',(0.0144326862365468,-0.0360309329204198,-0.002));
#875=CARTESIAN_POINT('',(0.0144326862365468,-0.0360309329204198,0.));
#876=CARTESIAN_POINT('',(0.0104906971982486,-0.0374551835977489,-0.002));
#877=CARTESIAN_POINT('',(0.0104906971982486,-0.0374551835977489,0.));
#878=CARTESIAN_POINT('',(0.00548844400533476,-0.0384813765189371,-0.002));
#879=CARTESIAN_POINT('',(0.00548844400533476,-0.0384813765189371,-4.33680868994202E-19));
#880=CARTESIAN_POINT('',(0.00209781477121845,-0.0386629212474786,-0.002));
#881=CARTESIAN_POINT('',(0.00209781477121845,-0.0386629212474786,0.));
#882=CARTESIAN_POINT('',(1.54074886529742E-14,-0.038788480535091,-0.002));
#883=CARTESIAN_POINT('',(1.54074886529742E-14,-0.038788480535091,0.));
#884=CARTESIAN_POINT('',(-4.33680868994202E-19,0.0580479489534051,-0.002));
#885=CARTESIAN_POINT('',(0.000524929812036562,0.0556795991926091,-0.002));
#886=CARTESIAN_POINT('',(0.00131232820720677,0.0521270575688798,-0.002));
#887=CARTESIAN_POINT('',(0.00236217802563893,0.0473904033340484,-0.002));
#888=CARTESIAN_POINT('',(0.00314960216061664,0.0438377428325723,-0.002));
#889=CARTESIAN_POINT('',(0.00380568018846906,0.0408776880244185,-0.002));
#890=CARTESIAN_POINT('',(0.00433074218921332,0.0385087807303391,-0.002));
#891=CARTESIAN_POINT('',(0.00465857656012152,0.0370294978974565,-0.002));
#892=CARTESIAN_POINT('',(0.00492143247039901,0.0358440082236074,-0.002));
#893=CARTESIAN_POINT('',(0.00518414375744579,0.0346552861912315,-0.002));
#894=CARTESIAN_POINT('',(0.00550546517569734,0.0332105091830212,-0.002));
#895=CARTESIAN_POINT('',(0.00590126957693363,0.0315422975125217,-0.002));
#896=CARTESIAN_POINT('',(0.00632232935457303,0.0299480066564726,-0.002));
#897=CARTESIAN_POINT('',(0.00678247223959851,0.0284361869371628,-0.002));
#898=CARTESIAN_POINT('',(0.0072940917290489,0.0270102918245112,-0.002));
#899=CARTESIAN_POINT('',(0.00786714457071668,0.0256752924680646,-0.002));
#900=CARTESIAN_POINT('',(0.00840612000560513,0.0246343882098592,-0.002));
#901=CARTESIAN_POINT('',(0.00887920176259453,0.0238437849793627,-0.002));
#902=CARTESIAN_POINT('',(0.00925646865019142,0.0232724166332054,-0.002));
#903=CARTESIAN_POINT('',(0.00966714988401847,0.0227067092602518,-0.002));
#904=CARTESIAN_POINT('',(0.0102736493724179,0.0219415871777457,-0.002));
#905=CARTESIAN_POINT('',(0.011146691714955,0.0209557039696704,-0.002));
#906=CARTESIAN_POINT('',(0.0127480478295382,0.0193387221584814,-0.002));
#907=CARTESIAN_POINT('',(0.0150725388972648,0.0172446551618258,-0.002));
#908=CARTESIAN_POINT('',(0.0176349398119702,0.015025836442022,-0.002));
#909=CARTESIAN_POINT('',(0.0197095745656716,0.0131227053981046,-0.002));
#910=CARTESIAN_POINT('',(0.0212510569351217,0.0116112355697051,-0.002));
#911=CARTESIAN_POINT('',(0.022743672914609,0.00998711351501392,-0.002));
#912=CARTESIAN_POINT('',(0.0241129553638535,0.00830132413692053,-0.002));
#913=CARTESIAN_POINT('',(0.0253599160928209,0.00655832281785975,-0.002));
#914=CARTESIAN_POINT('',(0.0268589562866314,0.00415815953201086,-0.002));
#915=CARTESIAN_POINT('',(0.0284189537979548,0.00102621195755296,-0.002));
#916=CARTESIAN_POINT('',(0.0297767546844037,-0.00290658723443667,-0.002));
#917=CARTESIAN_POINT('',(0.0306276150763662,-0.00697559925817185,-0.002));
#918=CARTESIAN_POINT('',(0.0309524816285607,-0.0112151720672236,-0.002));
#919=CARTESIAN_POINT('',(0.0306946424743966,-0.0148286118489437,-0.002));
#920=CARTESIAN_POINT('',(0.0301169993693865,-0.0177219233695375,-0.002));
#921=CARTESIAN_POINT('',(0.0294843778470676,-0.0198762423949691,-0.002));
#922=CARTESIAN_POINT('',(0.0287805890112455,-0.0216462418435189,-0.002));
#923=CARTESIAN_POINT('',(0.028104501695976,-0.0230359429123249,-0.002));
#924=CARTESIAN_POINT('',(0.0273627619678653,-0.0243902947060551,-0.002));
#925=CARTESIAN_POINT('',(0.0263227210571824,-0.0260092826168197,-0.002));
#926=CARTESIAN_POINT('',(0.0249258255934258,-0.0278243162370164,-0.002));
#927=CARTESIAN_POINT('',(0.023399544975112,-0.0295165872288859,-0.002));
#928=CARTESIAN_POINT('',(0.0217632389879378,-0.0310809089237935,-0.002));
#929=CARTESIAN_POINT('',(0.0200333947136547,-0.0325126403994625,-0.002));
#930=CARTESIAN_POINT('',(0.0182260680565188,-0.0338046308818407,-0.002));
#931=CARTESIAN_POINT('',(0.0166643712017179,-0.0347588527287016,-0.002));
#932=CARTESIAN_POINT('',(0.015387814467508,-0.0354433777158302,-0.002));
#933=CARTESIAN_POINT('',(0.014090649905892,-0.0360745493670763,-0.002));
#934=CARTESIAN_POINT('',(0.0124537024012264,-0.0367484717483161,-0.002));
#935=CARTESIAN_POINT('',(0.0105158167937671,-0.0373722919851863,-0.002));
#936=CARTESIAN_POINT('',(0.00861751275680965,-0.0378388559109942,-0.002));
#937=CARTESIAN_POINT('',(0.00615333841141345,-0.0382885456437961,-0.002));
#938=CARTESIAN_POINT('',(0.00380608194971717,-0.0385385630299982,-0.002));
#939=CARTESIAN_POINT('',(0.00186451174907056,-0.0386750700852691,-0.002));
#940=CARTESIAN_POINT('',(0.00078756317761101,-0.0387415164181519,-0.002));
#941=CARTESIAN_POINT('',(0.000262226846415765,-0.0387727856241394,-0.002));
#942=CARTESIAN_POINT('',(1.54074886529742E-14,-0.038788480535091,-0.002));
#943=CARTESIAN_POINT('',(-0.0240925684104741,0.00829178881342583,-0.002));
#944=MECHANICAL_DESIGN_GEOMETRIC_PRESENTATION_REPRESENTATION('',(#145),
#945);
#945=(
GEOMETRIC_REPRESENTATION_CONTEXT(3)
GLOBAL_UNCERTAINTY_ASSIGNED_CONTEXT((#946))
GLOBAL_UNIT_ASSIGNED_CONTEXT((#949,#948,#947))
REPRESENTATION_CONTEXT('Part 1','TOP_LEVEL_ASSEMBLY_PART')
);
#946=UNCERTAINTY_MEASURE_WITH_UNIT(LENGTH_MEASURE(2.E-5),#949,
'DISTANCE_ACCURACY_VALUE','Maximum Tolerance applied to model');
#947=(
NAMED_UNIT(*)
SI_UNIT($,.STERADIAN.)
SOLID_ANGLE_UNIT()
);
#948=(
NAMED_UNIT(*)
PLANE_ANGLE_UNIT()
SI_UNIT($,.RADIAN.)
);
#949=(
LENGTH_UNIT()
NAMED_UNIT(*)
SI_UNIT($,.METRE.)
);
#950=PRODUCT_DEFINITION_SHAPE('','',#951);
#951=PRODUCT_DEFINITION('','',#953,#952);
#952=PRODUCT_DEFINITION_CONTEXT('',#959,'design');
#953=PRODUCT_DEFINITION_FORMATION_WITH_SPECIFIED_SOURCE('','',#955,
 .NOT_KNOWN.);
#954=PRODUCT_RELATED_PRODUCT_CATEGORY('','',(#955));
#955=PRODUCT('Part 1','Part 1','Part 1',(#957));
#956=PRODUCT_CATEGORY('','');
#957=PRODUCT_CONTEXT('',#959,'mechanical');
#958=APPLICATION_PROTOCOL_DEFINITION('international standard',
'ap242_managed_model_based_3d_engineering',2020,#959);
#959=APPLICATION_CONTEXT('managed model based 3d engineering');
ENDSEC;
END-ISO-10303-21;
