ISO-10303-21;
HEADER;
/* Generated by software containing ST-Developer
 * from STEP Tools, Inc. (www.steptools.com) 
 */
/* OPTION: using custom schema-name function */

FILE_DESCRIPTION(
/* description */ (''),
/* implementation_level */ '2;1');

FILE_NAME(
/* name */ 'cat.stp',
/* time_stamp */ '2024-07-03T13:06:38-05:00',
/* author */ (''),
/* organization */ (''),
/* preprocessor_version */ 'ST-DEVELOPER v19.4',
/* originating_system */ 'SIEMENS PLM Software NX2212.8101',
/* authorisation */ '');

FILE_SCHEMA (('AUTOMOTIVE_DESIGN { 1 0 10303 214 3 1 1 1 }'));
ENDSEC;

DATA;
#10=PROPERTY_DEFINITION_REPRESENTATION(#14,#12);
#11=PROPERTY_DEFINITION_REPRESENTATION(#15,#13);
#12=REPRESENTATION('',(#16),#867);
#13=REPRESENTATION('',(#17),#867);
#14=PROPERTY_DEFINITION('pmi validation property','',#21);
#15=PROPERTY_DEFINITION('pmi validation property','',#21);
#16=VALUE_REPRESENTATION_ITEM('number of annotations',COUNT_MEASURE(0.));
#17=VALUE_REPRESENTATION_ITEM('number of views',COUNT_MEASURE(0.));
#18=SHAPE_REPRESENTATION_RELATIONSHIP('None',
'relationship between 10000120262axm000_a_objects-None and 10000120262
axm000_a_objects-None',#30,#19);
#19=ADVANCED_BREP_SHAPE_REPRESENTATION(
'10000120262axm000_a_objects-None',(#40),#867);
#20=SHAPE_DEFINITION_REPRESENTATION(#21,#30);
#21=PRODUCT_DEFINITION_SHAPE('','',#22);
#22=PRODUCT_DEFINITION(' ','',#24,#23);
#23=PRODUCT_DEFINITION_CONTEXT('part definition',#29,'design');
#24=PRODUCT_DEFINITION_FORMATION_WITH_SPECIFIED_SOURCE(' ',' ',#26,
 .NOT_KNOWN.);
#25=PRODUCT_RELATED_PRODUCT_CATEGORY('part','',(#26));
#26=PRODUCT('10000120262axm000_a_objects','10000120262axm000_a_objects',
' ',(#27));
#27=PRODUCT_CONTEXT(' ',#29,'mechanical');
#28=APPLICATION_PROTOCOL_DEFINITION('international standard',
'automotive_design',2010,#29);
#29=APPLICATION_CONTEXT(
'core data for automotive mechanical design processes');
#30=SHAPE_REPRESENTATION('10000120262axm000_a_objects-None',(#296),#867);
#31=PRESENTATION_LAYER_ASSIGNMENT('1','Layer 1',(#40));
#32=STYLED_ITEM('',(#33),#40);
#33=PRESENTATION_STYLE_ASSIGNMENT((#34));
#34=SURFACE_STYLE_USAGE(.BOTH.,#35);
#35=SURFACE_SIDE_STYLE('',(#36));
#36=SURFACE_STYLE_FILL_AREA(#37);
#37=FILL_AREA_STYLE('',(#38));
#38=FILL_AREA_STYLE_COLOUR('',#39);
#39=COLOUR_RGB('medium steel',0.611764705882353,0.658823529411765,0.670588235294118);
#40=MANIFOLD_SOLID_BREP('',#41);
#41=CLOSED_SHELL('',(#94,#95,#96,#97,#98,#99,#100,#101,#102,#103,#104,#105,
#106,#107,#108));
#42=SURFACE_OF_LINEAR_EXTRUSION('',#120,#84);
#43=SURFACE_OF_LINEAR_EXTRUSION('',#121,#86);
#44=SURFACE_OF_LINEAR_EXTRUSION('',#122,#88);
#45=SURFACE_OF_LINEAR_EXTRUSION('',#123,#89);
#46=B_SPLINE_SURFACE_WITH_KNOTS('',3,1,((#507,#508),(#509,#510),(#511,#512),
(#513,#514),(#515,#516),(#517,#518),(#519,#520),(#521,#522),(#523,#524),
(#525,#526),(#527,#528),(#529,#530),(#531,#532),(#533,#534)),
 .UNSPECIFIED.,.F.,.F.,.F.,(4,2,2,2,2,2,4),(2,2),(0.,0.25,0.375,0.500000000000001,
0.625000000000001,0.750000000000001,1.),(0.,1.),.UNSPECIFIED.);
#47=B_SPLINE_SURFACE_WITH_KNOTS('',3,1,((#563,#564),(#565,#566),(#567,#568),
(#569,#570),(#571,#572),(#573,#574),(#575,#576),(#577,#578),(#579,#580),
(#581,#582),(#583,#584),(#585,#586),(#587,#588),(#589,#590),(#591,#592),
(#593,#594),(#595,#596),(#597,#598),(#599,#600),(#601,#602),(#603,#604),
(#605,#606),(#607,#608),(#609,#610)),.UNSPECIFIED.,.F.,.F.,.F.,(4,2,2,2,
2,2,2,2,2,2,2,4),(2,2),(0.,0.125,0.1875,0.250000000000001,0.375,0.5,0.625,
0.75,0.8125,0.875,0.9375,1.),(0.,1.),.UNSPECIFIED.);
#48=B_SPLINE_SURFACE_WITH_KNOTS('',3,1,((#629,#630),(#631,#632),(#633,#634),
(#635,#636),(#637,#638),(#639,#640),(#641,#642),(#643,#644),(#645,#646),
(#647,#648),(#649,#650),(#651,#652)),.UNSPECIFIED.,.F.,.F.,.F.,(4,2,2,2,
2,4),(2,2),(0.,0.25,0.5,0.625,0.75,1.),(0.,1.),.UNSPECIFIED.);
#49=B_SPLINE_SURFACE_WITH_KNOTS('',3,1,((#657,#658),(#659,#660),(#661,#662),
(#663,#664),(#665,#666),(#667,#668)),.UNSPECIFIED.,.F.,.F.,.F.,(4,2,4),
(2,2),(0.,0.5,1.),(0.,1.),.UNSPECIFIED.);
#50=B_SPLINE_SURFACE_WITH_KNOTS('',3,1,((#736,#737),(#738,#739),(#740,#741),
(#742,#743),(#744,#745),(#746,#747),(#748,#749),(#750,#751),(#752,#753),
(#754,#755),(#756,#757),(#758,#759),(#760,#761),(#762,#763),(#764,#765),
(#766,#767)),.UNSPECIFIED.,.F.,.F.,.F.,(4,2,2,2,2,2,2,4),(2,2),(0.,0.125,
0.25,0.375,0.5,0.625000000000001,0.750000000000001,1.),(0.,1.),
 .UNSPECIFIED.);
#51=B_SPLINE_SURFACE_WITH_KNOTS('',3,1,((#769,#770),(#771,#772),(#773,#774),
(#775,#776),(#777,#778),(#779,#780),(#781,#782),(#783,#784),(#785,#786),
(#787,#788),(#789,#790),(#791,#792),(#793,#794),(#795,#796),(#797,#798),
(#799,#800),(#801,#802),(#803,#804),(#805,#806),(#807,#808),(#809,#810),
(#811,#812),(#813,#814),(#815,#816),(#817,#818),(#819,#820)),
 .UNSPECIFIED.,.F.,.F.,.F.,(4,2,2,2,2,2,2,2,2,2,2,2,4),(2,2),(0.,0.0625,
0.125,0.1875,0.25,0.375,0.5,0.625,0.75,0.8125,0.875,0.9375,1.),(0.,1.),
 .UNSPECIFIED.);
#52=B_SPLINE_SURFACE_WITH_KNOTS('',3,1,((#822,#823),(#824,#825),(#826,#827),
(#828,#829),(#830,#831),(#832,#833),(#834,#835),(#836,#837),(#838,#839),
(#840,#841),(#842,#843),(#844,#845),(#846,#847),(#848,#849),(#850,#851),
(#852,#853)),.UNSPECIFIED.,.F.,.F.,.F.,(4,2,2,2,2,2,2,4),(2,2),(0.,0.25,
0.375,0.500000000000001,0.625000000000001,0.750000000000001,0.875,1.),(0.,
1.),.UNSPECIFIED.);
#53=B_SPLINE_SURFACE_WITH_KNOTS('',3,1,((#854,#855),(#856,#857),(#858,#859),
(#860,#861),(#862,#863),(#864,#865)),.UNSPECIFIED.,.F.,.F.,.F.,(4,2,4),
(2,2),(0.,0.5,1.),(0.,1.),.UNSPECIFIED.);
#54=FACE_OUTER_BOUND('',#134,.T.);
#55=FACE_OUTER_BOUND('',#135,.T.);
#56=FACE_OUTER_BOUND('',#136,.T.);
#57=FACE_OUTER_BOUND('',#137,.T.);
#58=FACE_OUTER_BOUND('',#138,.T.);
#59=FACE_OUTER_BOUND('',#139,.T.);
#60=FACE_OUTER_BOUND('',#140,.T.);
#61=FACE_OUTER_BOUND('',#141,.T.);
#62=FACE_OUTER_BOUND('',#144,.T.);
#63=FACE_OUTER_BOUND('',#145,.T.);
#64=FACE_OUTER_BOUND('',#146,.T.);
#65=FACE_OUTER_BOUND('',#147,.T.);
#66=LINE('',#505,#78);
#67=LINE('',#506,#79);
#68=LINE('',#562,#80);
#69=LINE('',#628,#81);
#70=LINE('',#669,#82);
#71=LINE('',#670,#83);
#72=LINE('',#672,#85);
#73=LINE('',#674,#87);
#74=LINE('',#734,#90);
#75=LINE('',#735,#91);
#76=LINE('',#768,#92);
#77=LINE('',#821,#93);
#78=VECTOR('',#334,1.);
#79=VECTOR('',#335,1.);
#80=VECTOR('',#336,1.);
#81=VECTOR('',#337,1.);
#82=VECTOR('',#338,1.);
#83=VECTOR('',#339,1.);
#84=VECTOR('',#342,1.);
#85=VECTOR('',#343,1.);
#86=VECTOR('',#346,1.);
#87=VECTOR('',#347,1.);
#88=VECTOR('',#350,1.);
#89=VECTOR('',#353,1.);
#90=VECTOR('',#356,1.);
#91=VECTOR('',#357,1.);
#92=VECTOR('',#358,1.);
#93=VECTOR('',#359,1.);
#94=ADVANCED_FACE('',(#124,#125),#109,.F.);
#95=ADVANCED_FACE('',(#126,#127),#110,.T.);
#96=ADVANCED_FACE('',(#54),#46,.T.);
#97=ADVANCED_FACE('',(#55),#47,.T.);
#98=ADVANCED_FACE('',(#56),#48,.T.);
#99=ADVANCED_FACE('',(#57),#49,.T.);
#100=ADVANCED_FACE('',(#58),#42,.F.);
#101=ADVANCED_FACE('',(#59),#43,.F.);
#102=ADVANCED_FACE('',(#60),#44,.F.);
#103=ADVANCED_FACE('',(#61),#45,.F.);
#104=ADVANCED_FACE('',(#128,#129),#111,.F.);
#105=ADVANCED_FACE('',(#62),#50,.T.);
#106=ADVANCED_FACE('',(#63),#51,.T.);
#107=ADVANCED_FACE('',(#64),#52,.T.);
#108=ADVANCED_FACE('',(#65),#53,.T.);
#109=PLANE('',#301);
#110=PLANE('',#306);
#111=PLANE('',#311);
#112=ELLIPSE('',#297,38.,25.);
#113=ELLIPSE('',#298,25.,11.);
#114=ELLIPSE('',#299,38.,25.);
#115=ELLIPSE('',#300,25.,10.5);
#116=ELLIPSE('',#302,38.,25.);
#117=ELLIPSE('',#303,25.,11.);
#118=ELLIPSE('',#304,38.,25.);
#119=ELLIPSE('',#305,25.,10.5);
#120=ELLIPSE('',#307,25.,10.5);
#121=ELLIPSE('',#308,38.,25.);
#122=ELLIPSE('',#309,25.,11.);
#123=ELLIPSE('',#310,38.,25.);
#124=FACE_BOUND('',#130,.T.);
#125=FACE_BOUND('',#131,.T.);
#126=FACE_BOUND('',#132,.T.);
#127=FACE_BOUND('',#133,.T.);
#128=FACE_BOUND('',#142,.T.);
#129=FACE_BOUND('',#143,.T.);
#130=EDGE_LOOP('',(#148,#149,#150,#151));
#131=EDGE_LOOP('',(#152,#153,#154,#155));
#132=EDGE_LOOP('',(#156,#157,#158,#159));
#133=EDGE_LOOP('',(#160,#161,#162,#163));
#134=EDGE_LOOP('',(#164,#165,#166,#167));
#135=EDGE_LOOP('',(#168,#169,#170,#171));
#136=EDGE_LOOP('',(#172,#173,#174,#175));
#137=EDGE_LOOP('',(#176,#177,#178,#179));
#138=EDGE_LOOP('',(#180,#181,#182,#183));
#139=EDGE_LOOP('',(#184,#185,#186,#187));
#140=EDGE_LOOP('',(#188,#189,#190,#191));
#141=EDGE_LOOP('',(#192,#193,#194,#195));
#142=EDGE_LOOP('',(#196,#197,#198,#199));
#143=EDGE_LOOP('',(#200,#201,#202,#203));
#144=EDGE_LOOP('',(#204,#205,#206,#207));
#145=EDGE_LOOP('',(#208,#209,#210,#211));
#146=EDGE_LOOP('',(#212,#213,#214,#215));
#147=EDGE_LOOP('',(#216,#217,#218,#219));
#148=ORIENTED_EDGE('',*,*,#244,.T.);
#149=ORIENTED_EDGE('',*,*,#245,.T.);
#150=ORIENTED_EDGE('',*,*,#246,.T.);
#151=ORIENTED_EDGE('',*,*,#247,.T.);
#152=ORIENTED_EDGE('',*,*,#248,.F.);
#153=ORIENTED_EDGE('',*,*,#249,.F.);
#154=ORIENTED_EDGE('',*,*,#250,.F.);
#155=ORIENTED_EDGE('',*,*,#251,.F.);
#156=ORIENTED_EDGE('',*,*,#252,.T.);
#157=ORIENTED_EDGE('',*,*,#253,.T.);
#158=ORIENTED_EDGE('',*,*,#254,.T.);
#159=ORIENTED_EDGE('',*,*,#255,.T.);
#160=ORIENTED_EDGE('',*,*,#256,.F.);
#161=ORIENTED_EDGE('',*,*,#257,.F.);
#162=ORIENTED_EDGE('',*,*,#258,.F.);
#163=ORIENTED_EDGE('',*,*,#259,.F.);
#164=ORIENTED_EDGE('',*,*,#260,.F.);
#165=ORIENTED_EDGE('',*,*,#261,.F.);
#166=ORIENTED_EDGE('',*,*,#245,.F.);
#167=ORIENTED_EDGE('',*,*,#262,.T.);
#168=ORIENTED_EDGE('',*,*,#263,.F.);
#169=ORIENTED_EDGE('',*,*,#264,.F.);
#170=ORIENTED_EDGE('',*,*,#246,.F.);
#171=ORIENTED_EDGE('',*,*,#261,.T.);
#172=ORIENTED_EDGE('',*,*,#265,.F.);
#173=ORIENTED_EDGE('',*,*,#266,.F.);
#174=ORIENTED_EDGE('',*,*,#247,.F.);
#175=ORIENTED_EDGE('',*,*,#264,.T.);
#176=ORIENTED_EDGE('',*,*,#267,.F.);
#177=ORIENTED_EDGE('',*,*,#262,.F.);
#178=ORIENTED_EDGE('',*,*,#244,.F.);
#179=ORIENTED_EDGE('',*,*,#266,.T.);
#180=ORIENTED_EDGE('',*,*,#251,.T.);
#181=ORIENTED_EDGE('',*,*,#268,.F.);
#182=ORIENTED_EDGE('',*,*,#255,.F.);
#183=ORIENTED_EDGE('',*,*,#269,.T.);
#184=ORIENTED_EDGE('',*,*,#250,.T.);
#185=ORIENTED_EDGE('',*,*,#270,.F.);
#186=ORIENTED_EDGE('',*,*,#252,.F.);
#187=ORIENTED_EDGE('',*,*,#268,.T.);
#188=ORIENTED_EDGE('',*,*,#249,.T.);
#189=ORIENTED_EDGE('',*,*,#271,.F.);
#190=ORIENTED_EDGE('',*,*,#253,.F.);
#191=ORIENTED_EDGE('',*,*,#270,.T.);
#192=ORIENTED_EDGE('',*,*,#248,.T.);
#193=ORIENTED_EDGE('',*,*,#269,.F.);
#194=ORIENTED_EDGE('',*,*,#254,.F.);
#195=ORIENTED_EDGE('',*,*,#271,.T.);
#196=ORIENTED_EDGE('',*,*,#263,.T.);
#197=ORIENTED_EDGE('',*,*,#260,.T.);
#198=ORIENTED_EDGE('',*,*,#267,.T.);
#199=ORIENTED_EDGE('',*,*,#265,.T.);
#200=ORIENTED_EDGE('',*,*,#272,.T.);
#201=ORIENTED_EDGE('',*,*,#273,.T.);
#202=ORIENTED_EDGE('',*,*,#274,.T.);
#203=ORIENTED_EDGE('',*,*,#275,.T.);
#204=ORIENTED_EDGE('',*,*,#273,.F.);
#205=ORIENTED_EDGE('',*,*,#276,.T.);
#206=ORIENTED_EDGE('',*,*,#257,.T.);
#207=ORIENTED_EDGE('',*,*,#277,.F.);
#208=ORIENTED_EDGE('',*,*,#274,.F.);
#209=ORIENTED_EDGE('',*,*,#277,.T.);
#210=ORIENTED_EDGE('',*,*,#256,.T.);
#211=ORIENTED_EDGE('',*,*,#278,.F.);
#212=ORIENTED_EDGE('',*,*,#275,.F.);
#213=ORIENTED_EDGE('',*,*,#278,.T.);
#214=ORIENTED_EDGE('',*,*,#259,.T.);
#215=ORIENTED_EDGE('',*,*,#279,.F.);
#216=ORIENTED_EDGE('',*,*,#272,.F.);
#217=ORIENTED_EDGE('',*,*,#279,.T.);
#218=ORIENTED_EDGE('',*,*,#258,.T.);
#219=ORIENTED_EDGE('',*,*,#276,.F.);
#220=VERTEX_POINT('',#367);
#221=VERTEX_POINT('',#368);
#222=VERTEX_POINT('',#381);
#223=VERTEX_POINT('',#400);
#224=VERTEX_POINT('',#414);
#225=VERTEX_POINT('',#415);
#226=VERTEX_POINT('',#417);
#227=VERTEX_POINT('',#419);
#228=VERTEX_POINT('',#423);
#229=VERTEX_POINT('',#424);
#230=VERTEX_POINT('',#426);
#231=VERTEX_POINT('',#428);
#232=VERTEX_POINT('',#452);
#233=VERTEX_POINT('',#453);
#234=VERTEX_POINT('',#466);
#235=VERTEX_POINT('',#473);
#236=VERTEX_POINT('',#503);
#237=VERTEX_POINT('',#504);
#238=VERTEX_POINT('',#561);
#239=VERTEX_POINT('',#627);
#240=VERTEX_POINT('',#683);
#241=VERTEX_POINT('',#684);
#242=VERTEX_POINT('',#697);
#243=VERTEX_POINT('',#720);
#244=EDGE_CURVE('',#220,#221,#280,.T.);
#245=EDGE_CURVE('',#221,#222,#281,.T.);
#246=EDGE_CURVE('',#222,#223,#282,.T.);
#247=EDGE_CURVE('',#223,#220,#283,.T.);
#248=EDGE_CURVE('',#224,#225,#112,.T.);
#249=EDGE_CURVE('',#226,#224,#113,.T.);
#250=EDGE_CURVE('',#227,#226,#114,.T.);
#251=EDGE_CURVE('',#225,#227,#115,.T.);
#252=EDGE_CURVE('',#228,#229,#116,.T.);
#253=EDGE_CURVE('',#229,#230,#117,.T.);
#254=EDGE_CURVE('',#230,#231,#118,.T.);
#255=EDGE_CURVE('',#231,#228,#119,.T.);
#256=EDGE_CURVE('',#232,#233,#284,.T.);
#257=EDGE_CURVE('',#234,#232,#285,.T.);
#258=EDGE_CURVE('',#235,#234,#286,.T.);
#259=EDGE_CURVE('',#233,#235,#287,.T.);
#260=EDGE_CURVE('',#236,#237,#288,.T.);
#261=EDGE_CURVE('',#222,#236,#66,.T.);
#262=EDGE_CURVE('',#221,#237,#67,.T.);
#263=EDGE_CURVE('',#238,#236,#289,.T.);
#264=EDGE_CURVE('',#223,#238,#68,.T.);
#265=EDGE_CURVE('',#239,#238,#290,.T.);
#266=EDGE_CURVE('',#220,#239,#69,.T.);
#267=EDGE_CURVE('',#237,#239,#291,.T.);
#268=EDGE_CURVE('',#228,#227,#70,.T.);
#269=EDGE_CURVE('',#231,#225,#71,.T.);
#270=EDGE_CURVE('',#229,#226,#72,.T.);
#271=EDGE_CURVE('',#230,#224,#73,.T.);
#272=EDGE_CURVE('',#240,#241,#292,.T.);
#273=EDGE_CURVE('',#241,#242,#293,.T.);
#274=EDGE_CURVE('',#242,#243,#294,.T.);
#275=EDGE_CURVE('',#243,#240,#295,.T.);
#276=EDGE_CURVE('',#241,#234,#74,.T.);
#277=EDGE_CURVE('',#242,#232,#75,.T.);
#278=EDGE_CURVE('',#243,#233,#76,.T.);
#279=EDGE_CURVE('',#240,#235,#77,.T.);
#280=B_SPLINE_CURVE_WITH_KNOTS('',3,(#361,#362,#363,#364,#365,#366),
 .UNSPECIFIED.,.F.,.F.,(4,2,4),(0.,0.5,1.),.UNSPECIFIED.);
#281=B_SPLINE_CURVE_WITH_KNOTS('',3,(#369,#370,#371,#372,#373,#374,#375,
#376,#377,#378,#379,#380),.UNSPECIFIED.,.F.,.F.,(4,2,2,2,2,4),(0.,0.25,
0.375,0.5,0.75,1.),.UNSPECIFIED.);
#282=B_SPLINE_CURVE_WITH_KNOTS('',3,(#382,#383,#384,#385,#386,#387,#388,
#389,#390,#391,#392,#393,#394,#395,#396,#397,#398,#399),.UNSPECIFIED.,.F.,
 .F.,(4,2,2,2,2,2,2,2,4),(0.,0.125,0.25,0.375,0.5,0.625,0.75,0.875,1.),
 .UNSPECIFIED.);
#283=B_SPLINE_CURVE_WITH_KNOTS('',3,(#401,#402,#403,#404,#405,#406,#407,
#408,#409,#410,#411,#412),.UNSPECIFIED.,.F.,.F.,(4,2,2,2,2,4),(0.,0.25,
0.5,0.625,0.75,1.),.UNSPECIFIED.);
#284=B_SPLINE_CURVE_WITH_KNOTS('',3,(#430,#431,#432,#433,#434,#435,#436,
#437,#438,#439,#440,#441,#442,#443,#444,#445,#446,#447,#448,#449,#450,#451),
 .UNSPECIFIED.,.F.,.F.,(4,2,2,2,2,2,2,2,2,2,4),(0.,0.125,0.1875,0.25,0.375,
0.5,0.625,0.75,0.8125,0.875,1.),.UNSPECIFIED.);
#285=B_SPLINE_CURVE_WITH_KNOTS('',3,(#454,#455,#456,#457,#458,#459,#460,
#461,#462,#463,#464,#465),.UNSPECIFIED.,.F.,.F.,(4,2,2,2,2,4),(0.,0.25,
0.375,0.5,0.75,1.),.UNSPECIFIED.);
#286=B_SPLINE_CURVE_WITH_KNOTS('',3,(#467,#468,#469,#470,#471,#472),
 .UNSPECIFIED.,.F.,.F.,(4,2,4),(0.,0.5,1.),.UNSPECIFIED.);
#287=B_SPLINE_CURVE_WITH_KNOTS('',3,(#474,#475,#476,#477,#478,#479,#480,
#481,#482,#483,#484,#485),.UNSPECIFIED.,.F.,.F.,(4,2,2,2,2,4),(0.,0.250000000000001,
0.500000000000002,0.625000000000001,0.750000000000001,1.),.UNSPECIFIED.);
#288=B_SPLINE_CURVE_WITH_KNOTS('',3,(#487,#488,#489,#490,#491,#492,#493,
#494,#495,#496,#497,#498,#499,#500,#501,#502),.UNSPECIFIED.,.F.,.F.,(4,
2,2,2,2,2,2,4),(0.,0.25,0.375,0.5,0.625,0.75,0.875,1.),.UNSPECIFIED.);
#289=B_SPLINE_CURVE_WITH_KNOTS('',3,(#535,#536,#537,#538,#539,#540,#541,
#542,#543,#544,#545,#546,#547,#548,#549,#550,#551,#552,#553,#554,#555,#556,
#557,#558,#559,#560),.UNSPECIFIED.,.F.,.F.,(4,2,2,2,2,2,2,2,2,2,2,2,4),
(0.,0.0625000000000001,0.125,0.1875,0.25,0.375,0.5,0.625,0.75,0.8125,0.875,
0.9375,1.),.UNSPECIFIED.);
#290=B_SPLINE_CURVE_WITH_KNOTS('',3,(#611,#612,#613,#614,#615,#616,#617,
#618,#619,#620,#621,#622,#623,#624,#625,#626),.UNSPECIFIED.,.F.,.F.,(4,
2,2,2,2,2,2,4),(0.,0.125,0.25,0.375,0.5,0.625,0.75,1.),.UNSPECIFIED.);
#291=B_SPLINE_CURVE_WITH_KNOTS('',3,(#653,#654,#655,#656),.UNSPECIFIED.,
 .F.,.F.,(4,4),(0.,1.),.UNSPECIFIED.);
#292=B_SPLINE_CURVE_WITH_KNOTS('',3,(#677,#678,#679,#680,#681,#682),
 .UNSPECIFIED.,.F.,.F.,(4,2,4),(0.,0.5,1.),.UNSPECIFIED.);
#293=B_SPLINE_CURVE_WITH_KNOTS('',3,(#685,#686,#687,#688,#689,#690,#691,
#692,#693,#694,#695,#696),.UNSPECIFIED.,.F.,.F.,(4,2,2,2,2,4),(0.,0.25,
0.375,0.5,0.75,1.),.UNSPECIFIED.);
#294=B_SPLINE_CURVE_WITH_KNOTS('',3,(#698,#699,#700,#701,#702,#703,#704,
#705,#706,#707,#708,#709,#710,#711,#712,#713,#714,#715,#716,#717,#718,#719),
 .UNSPECIFIED.,.F.,.F.,(4,2,2,2,2,2,2,2,2,2,4),(0.,0.125,0.1875,0.25,0.375,
0.5,0.625,0.75,0.8125,0.875,1.),.UNSPECIFIED.);
#295=B_SPLINE_CURVE_WITH_KNOTS('',3,(#721,#722,#723,#724,#725,#726,#727,
#728,#729,#730,#731,#732),.UNSPECIFIED.,.F.,.F.,(4,2,2,2,2,4),(0.,0.250000000000001,
0.500000000000002,0.625000000000001,0.750000000000001,1.),.UNSPECIFIED.);
#296=AXIS2_PLACEMENT_3D('',#360,#312,#313);
#297=AXIS2_PLACEMENT_3D('',#413,#314,#315);
#298=AXIS2_PLACEMENT_3D('',#416,#316,#317);
#299=AXIS2_PLACEMENT_3D('',#418,#318,#319);
#300=AXIS2_PLACEMENT_3D('',#420,#320,#321);
#301=AXIS2_PLACEMENT_3D('',#421,#322,#323);
#302=AXIS2_PLACEMENT_3D('',#422,#324,#325);
#303=AXIS2_PLACEMENT_3D('',#425,#326,#327);
#304=AXIS2_PLACEMENT_3D('',#427,#328,#329);
#305=AXIS2_PLACEMENT_3D('',#429,#330,#331);
#306=AXIS2_PLACEMENT_3D('',#486,#332,#333);
#307=AXIS2_PLACEMENT_3D('',#671,#340,#341);
#308=AXIS2_PLACEMENT_3D('',#673,#344,#345);
#309=AXIS2_PLACEMENT_3D('',#675,#348,#349);
#310=AXIS2_PLACEMENT_3D('',#676,#351,#352);
#311=AXIS2_PLACEMENT_3D('',#733,#354,#355);
#312=DIRECTION('',(0.,0.,1.));
#313=DIRECTION('',(1.,0.,0.));
#314=DIRECTION('',(0.,0.,1.));
#315=DIRECTION('',(1.,0.,0.));
#316=DIRECTION('',(0.,0.,1.));
#317=DIRECTION('',(0.,1.,0.));
#318=DIRECTION('',(0.,0.,1.));
#319=DIRECTION('',(1.,0.,0.));
#320=DIRECTION('',(0.,0.,1.));
#321=DIRECTION('',(0.,1.,0.));
#322=DIRECTION('',(0.,0.,-1.));
#323=DIRECTION('',(-1.,0.,0.));
#324=DIRECTION('',(0.,0.,1.));
#325=DIRECTION('',(1.,0.,0.));
#326=DIRECTION('',(0.,0.,1.));
#327=DIRECTION('',(0.,1.,0.));
#328=DIRECTION('',(0.,0.,1.));
#329=DIRECTION('',(1.,0.,0.));
#330=DIRECTION('',(0.,0.,1.));
#331=DIRECTION('',(0.,1.,0.));
#332=DIRECTION('',(0.,0.,-1.));
#333=DIRECTION('',(-1.,0.,0.));
#334=DIRECTION('',(0.,0.,-1.));
#335=DIRECTION('',(0.,0.,-1.));
#336=DIRECTION('',(0.,0.,-1.));
#337=DIRECTION('',(0.,0.,-1.));
#338=DIRECTION('',(0.,0.,1.));
#339=DIRECTION('',(0.,0.,1.));
#340=DIRECTION('',(0.,0.,1.));
#341=DIRECTION('',(0.,1.,0.));
#342=DIRECTION('',(0.,0.,1.));
#343=DIRECTION('',(0.,0.,1.));
#344=DIRECTION('',(0.,0.,1.));
#345=DIRECTION('',(1.,0.,0.));
#346=DIRECTION('',(0.,0.,1.));
#347=DIRECTION('',(0.,0.,1.));
#348=DIRECTION('',(0.,0.,1.));
#349=DIRECTION('',(0.,1.,0.));
#350=DIRECTION('',(0.,0.,1.));
#351=DIRECTION('',(0.,0.,1.));
#352=DIRECTION('',(1.,0.,0.));
#353=DIRECTION('',(0.,0.,1.));
#354=DIRECTION('',(0.,0.,-1.));
#355=DIRECTION('',(-1.,0.,0.));
#356=DIRECTION('',(0.,0.,-1.));
#357=DIRECTION('',(0.,0.,-1.));
#358=DIRECTION('',(0.,0.,-1.));
#359=DIRECTION('',(0.,0.,-1.));
#360=CARTESIAN_POINT('',(0.,0.,0.));
#361=CARTESIAN_POINT('',(52.5822896851772,68.9387119791741,13.1));
#362=CARTESIAN_POINT('',(49.4695584448371,69.4389647988698,13.1));
#363=CARTESIAN_POINT('',(46.2691763901474,69.6873828585839,13.1));
#364=CARTESIAN_POINT('',(39.8714018396382,69.6684238717679,13.1));
#365=CARTESIAN_POINT('',(36.6743522540968,69.4010487371284,13.1));
#366=CARTESIAN_POINT('',(33.568191421197,68.8823004580225,13.1));
#367=CARTESIAN_POINT('',(52.5822896851772,68.9387119791741,13.1));
#368=CARTESIAN_POINT('',(33.568191421197,68.8823004580225,13.1));
#369=CARTESIAN_POINT('',(33.568191421197,68.8823004580225,13.1));
#370=CARTESIAN_POINT('',(32.25934610348,72.2499548077656,13.1));
#371=CARTESIAN_POINT('',(30.5729952047069,74.9353479798932,13.1));
#372=CARTESIAN_POINT('',(27.3145505360451,77.4119472784992,13.1));
#373=CARTESIAN_POINT('',(26.08156167265,77.9708070112592,13.1));
#374=CARTESIAN_POINT('',(23.4792027913478,78.2897231304556,13.1));
#375=CARTESIAN_POINT('',(22.1452290220417,78.0309558612763,13.1));
#376=CARTESIAN_POINT('',(18.5796486800325,76.2556470413452,13.1));
#377=CARTESIAN_POINT('',(16.7289626242847,73.8917993862606,13.1));
#378=CARTESIAN_POINT('',(13.788855963495,67.7360525638008,13.1));
#379=CARTESIAN_POINT('',(12.7143327230689,63.8827133676362,13.1));
#380=CARTESIAN_POINT('',(12.0998030341316,59.6709382069938,13.1));
#381=CARTESIAN_POINT('',(12.0998030341316,59.6709382069938,13.1));
#382=CARTESIAN_POINT('',(12.0998030341316,59.6709382069938,13.1));
#383=CARTESIAN_POINT('',(7.4519042730722,55.7844296084165,13.1));
#384=CARTESIAN_POINT('',(4.37065447111418,50.9120059444489,13.1));
#385=CARTESIAN_POINT('',(2.63869969469034,40.5958352921104,13.1));
#386=CARTESIAN_POINT('',(4.0456829192865,35.25325199433,13.1));
#387=CARTESIAN_POINT('',(10.6696327535889,26.1532806237531,13.1));
#388=CARTESIAN_POINT('',(15.8315440708893,22.3599267898334,13.1));
#389=CARTESIAN_POINT('',(28.2603270837255,17.1469473010835,13.1));
#390=CARTESIAN_POINT('',(35.5231007715583,15.7322034527657,13.1));
#391=CARTESIAN_POINT('',(50.1116241891803,15.6272224203925,13.1));
#392=CARTESIAN_POINT('',(57.4172023664183,16.9372591502488,13.1));
#393=CARTESIAN_POINT('',(70.0056104000005,21.9658512300314,13.1));
#394=CARTESIAN_POINT('',(75.2831675658065,25.6787166947609,13.1));
#395=CARTESIAN_POINT('',(82.1931563214369,34.6617773591879,13.1));
#396=CARTESIAN_POINT('',(83.7769947878493,39.970893864264,13.1));
#397=CARTESIAN_POINT('',(82.3872089959154,50.3187288548921,13.1));
#398=CARTESIAN_POINT('',(79.4612617533146,55.2489927610206,13.1));
#399=CARTESIAN_POINT('',(74.935753443568,59.2084041005869,13.1));
#400=CARTESIAN_POINT('',(74.935753443568,59.2084041005869,13.1));
#401=CARTESIAN_POINT('',(74.935753443568,59.2084041005869,13.1));
#402=CARTESIAN_POINT('',(74.3219280456043,63.4891223115732,13.1));
#403=CARTESIAN_POINT('',(73.2135647305868,67.4252906124861,13.1));
#404=CARTESIAN_POINT('',(70.1505272468953,73.7323804190535,13.1));
#405=CARTESIAN_POINT('',(68.2059583627764,76.1581685235434,13.1));
#406=CARTESIAN_POINT('',(64.5285918738076,77.9962917675221,13.1));
#407=CARTESIAN_POINT('',(63.1652490015386,78.2771540113395,13.1));
#408=CARTESIAN_POINT('',(60.4842542456889,78.0129645167688,13.1));
#409=CARTESIAN_POINT('',(59.1979971074804,77.4809776252696,13.1));
#410=CARTESIAN_POINT('',(55.768346109131,75.0428883268148,13.1));
#411=CARTESIAN_POINT('',(53.970163323202,72.33809673196,13.1));
#412=CARTESIAN_POINT('',(52.5822896851772,68.9387119791741,13.1));
#413=CARTESIAN_POINT('',(43.24737847119,42.678165754702,13.1));
#414=CARTESIAN_POINT('',(53.8680472672891,66.6818714856373,13.1));
#415=CARTESIAN_POINT('',(32.2582480231703,66.6099765266996,13.1));
#416=CARTESIAN_POINT('',(62.49737847119,51.178165754702,13.1));
#417=CARTESIAN_POINT('',(73.0567959636592,58.1827031786456,13.1));
#418=CARTESIAN_POINT('',(43.24737847119,42.678165754702,13.1));
#419=CARTESIAN_POINT('',(13.9730937560845,58.6179146526812,13.1));
#420=CARTESIAN_POINT('',(23.99737847119,51.178165754702,13.1));
#421=CARTESIAN_POINT('',(53.8680472672891,66.6818714856373,13.1));
#422=CARTESIAN_POINT('',(43.24737847119,42.678165754702,0.));
#423=CARTESIAN_POINT('',(13.9730937560845,58.6179146526812,0.));
#424=CARTESIAN_POINT('',(73.0567959636592,58.1827031786456,0.));
#425=CARTESIAN_POINT('',(62.49737847119,51.178165754702,0.));
#426=CARTESIAN_POINT('',(53.8680472672891,66.6818714856373,0.));
#427=CARTESIAN_POINT('',(43.24737847119,42.678165754702,0.));
#428=CARTESIAN_POINT('',(32.2582480231703,66.6099765266996,0.));
#429=CARTESIAN_POINT('',(23.99737847119,51.178165754702,0.));
#430=CARTESIAN_POINT('',(10.2350963484716,60.707520714939,0.));
#431=CARTESIAN_POINT('',(5.47027550901403,56.536398089348,0.));
#432=CARTESIAN_POINT('',(2.25884984725603,51.2378862832211,0.));
#433=CARTESIAN_POINT('',(1.0495475101626,42.7383537596604,0.));
#434=CARTESIAN_POINT('',(1.24787698816849,39.842363856587,0.));
#435=CARTESIAN_POINT('',(2.80199178877642,34.294285135333,0.));
#436=CARTESIAN_POINT('',(4.14967327773334,31.6463705703106,0.));
#437=CARTESIAN_POINT('',(9.57785127981823,24.3987238473277,0.));
#438=CARTESIAN_POINT('',(15.0325427241836,20.492743635875,0.));
#439=CARTESIAN_POINT('',(27.9135141666458,15.1581859637778,0.));
#440=CARTESIAN_POINT('',(35.3493051918468,13.7321133001995,0.));
#441=CARTESIAN_POINT('',(50.2779784448477,13.6272643984344,0.));
#442=CARTESIAN_POINT('',(57.7535768182141,14.948849216701,0.));
#443=CARTESIAN_POINT('',(70.7842112156171,20.093181733586,0.));
#444=CARTESIAN_POINT('',(76.3467995693833,23.9117630519441,0.));
#445=CARTESIAN_POINT('',(81.9869615785038,31.0537084118483,0.));
#446=CARTESIAN_POINT('',(83.4145472976231,33.6709547888092,0.));
#447=CARTESIAN_POINT('',(85.1435230357123,39.1805874892653,0.));
#448=CARTESIAN_POINT('',(85.436647533703,42.0700172277351,0.));
#449=CARTESIAN_POINT('',(84.5021912917168,50.5958797736985,0.));
#450=CARTESIAN_POINT('',(81.4501832510214,55.9669147759735,0.));
#451=CARTESIAN_POINT('',(76.806381724267,60.2181236267446,0.));
#452=CARTESIAN_POINT('',(10.2350963484716,60.707520714939,0.));
#453=CARTESIAN_POINT('',(76.806381724267,60.2181236267446,0.));
#454=CARTESIAN_POINT('',(34.8095634810722,71.0956564741149,0.));
#455=CARTESIAN_POINT('',(33.356283449126,74.3252820359767,0.));
#456=CARTESIAN_POINT('',(31.5148767974792,77.0109535757175,0.));
#457=CARTESIAN_POINT('',(27.5343129371273,79.5472171242801,0.));
#458=CARTESIAN_POINT('',(25.9643625707187,80.1064081363931,0.));
#459=CARTESIAN_POINT('',(22.7008781341318,80.2365568464035,0.));
#460=CARTESIAN_POINT('',(21.0735316551671,79.7968144070227,0.));
#461=CARTESIAN_POINT('',(16.9230323094654,77.5039740314746,0.));
#462=CARTESIAN_POINT('',(15.0038840787984,74.8957335106084,0.));
#463=CARTESIAN_POINT('',(11.9756757133157,68.6045072809077,0.));
#464=CARTESIAN_POINT('',(10.8931397795062,64.8215134344469,0.));
#465=CARTESIAN_POINT('',(10.2350963484716,60.707520714939,0.));
#466=CARTESIAN_POINT('',(34.8095634810722,71.0956564741149,0.));
#467=CARTESIAN_POINT('',(51.364054399027,71.1395831355422,0.));
#468=CARTESIAN_POINT('',(48.6374142948007,71.5050138410022,0.));
#469=CARTESIAN_POINT('',(45.860109418416,71.6853043552645,0.));
#470=CARTESIAN_POINT('',(40.3074106320868,71.6705936842497,0.));
#471=CARTESIAN_POINT('',(37.5321515396189,71.475593525475,0.));
#472=CARTESIAN_POINT('',(34.8095634810722,71.0956564741149,0.));
#473=CARTESIAN_POINT('',(51.364054399027,71.1395831355422,0.));
#474=CARTESIAN_POINT('',(76.806381724267,60.2181236267446,0.));
#475=CARTESIAN_POINT('',(76.1457636980918,64.4165378437558,0.));
#476=CARTESIAN_POINT('',(75.025879458334,68.2948867965978,0.));
#477=CARTESIAN_POINT('',(71.8676231742382,74.7511887763895,0.));
#478=CARTESIAN_POINT('',(69.8472776969589,77.4206774424582,0.));
#479=CARTESIAN_POINT('',(65.6015767901669,79.7584560950227,0.));
#480=CARTESIAN_POINT('',(63.9584968899605,80.2126071908232,0.));
#481=CARTESIAN_POINT('',(60.6456696753289,80.1394095210818,0.));
#482=CARTESIAN_POINT('',(59.032290006483,79.6171049226097,0.));
#483=CARTESIAN_POINT('',(54.8792212017384,77.1350950768317,0.));
#484=CARTESIAN_POINT('',(52.9060374610116,74.4172769444561,0.));
#485=CARTESIAN_POINT('',(51.364054399027,71.1395831355422,0.));
#486=CARTESIAN_POINT('',(13.9730937560845,58.6179146526812,0.));
#487=CARTESIAN_POINT('',(12.0998030341316,59.6709382069938,3.));
#488=CARTESIAN_POINT('',(12.5550577638884,62.7910975696279,3.));
#489=CARTESIAN_POINT('',(13.2576982631428,65.8432386686807,3.));
#490=CARTESIAN_POINT('',(14.9506620725484,70.245757597795,3.));
#491=CARTESIAN_POINT('',(15.6273070577198,71.6868022403828,3.));
#492=CARTESIAN_POINT('',(17.3083940690139,74.362888156992,3.));
#493=CARTESIAN_POINT('',(18.3043073652293,75.5990558101003,3.));
#494=CARTESIAN_POINT('',(20.8304346676154,77.5330572188856,3.));
#495=CARTESIAN_POINT('',(22.3540726678195,78.1631683273001,3.));
#496=CARTESIAN_POINT('',(25.5215262255189,78.1926094077844,3.));
#497=CARTESIAN_POINT('',(27.0713836585233,77.5797528722721,3.));
#498=CARTESIAN_POINT('',(29.6030719199238,75.6887251029148,3.));
#499=CARTESIAN_POINT('',(30.6165622455277,74.4554005644326,3.));
#500=CARTESIAN_POINT('',(32.3166040703681,71.7850665424467,3.));
#501=CARTESIAN_POINT('',(32.9948711740216,70.3574514159401,3.));
#502=CARTESIAN_POINT('',(33.568191421197,68.8823004580225,3.));
#503=CARTESIAN_POINT('',(12.0998030341316,59.6709382069938,3.));
#504=CARTESIAN_POINT('',(33.568191421197,68.8823004580225,3.));
#505=CARTESIAN_POINT('',(12.0998030341316,59.6709382069938,6.55));
#506=CARTESIAN_POINT('',(33.568191421197,68.8823004580225,6.55));
#507=CARTESIAN_POINT('',(33.568191421197,68.8823004580225,3.));
#508=CARTESIAN_POINT('',(33.568191421197,68.8823004580225,13.1));
#509=CARTESIAN_POINT('',(32.25934610348,72.2499548077657,3.));
#510=CARTESIAN_POINT('',(32.25934610348,72.2499548077657,13.1));
#511=CARTESIAN_POINT('',(30.5729952047069,74.9353479798932,3.));
#512=CARTESIAN_POINT('',(30.5729952047069,74.9353479798932,13.1));
#513=CARTESIAN_POINT('',(27.3145505360451,77.4119472784992,3.));
#514=CARTESIAN_POINT('',(27.3145505360451,77.4119472784992,13.1));
#515=CARTESIAN_POINT('',(26.0815616726501,77.9708070112592,3.));
#516=CARTESIAN_POINT('',(26.0815616726501,77.9708070112592,13.1));
#517=CARTESIAN_POINT('',(23.4792027913478,78.2897231304556,3.));
#518=CARTESIAN_POINT('',(23.4792027913478,78.2897231304556,13.1));
#519=CARTESIAN_POINT('',(22.1452290220417,78.0309558612763,3.));
#520=CARTESIAN_POINT('',(22.1452290220417,78.0309558612763,13.1));
#521=CARTESIAN_POINT('',(19.7681754607022,76.8474166479889,3.));
#522=CARTESIAN_POINT('',(19.7681754607022,76.8474166479889,13.1));
#523=CARTESIAN_POINT('',(18.7116718466628,75.9462048029778,3.));
#524=CARTESIAN_POINT('',(18.7116718466628,75.9462048029778,13.1));
#525=CARTESIAN_POINT('',(16.8271653638814,73.7023320834602,3.));
#526=CARTESIAN_POINT('',(16.8271653638814,73.7023320834602,13.1));
#527=CARTESIAN_POINT('',(15.9939359590873,72.3528626806457,3.));
#528=CARTESIAN_POINT('',(15.9939359590873,72.3528626806457,13.1));
#529=CARTESIAN_POINT('',(13.788855963495,67.7360525638009,3.));
#530=CARTESIAN_POINT('',(13.788855963495,67.7360525638009,13.1));
#531=CARTESIAN_POINT('',(12.7143327230689,63.8827133676362,3.));
#532=CARTESIAN_POINT('',(12.7143327230689,63.8827133676362,13.1));
#533=CARTESIAN_POINT('',(12.0998030341316,59.6709382069938,3.));
#534=CARTESIAN_POINT('',(12.0998030341316,59.6709382069938,13.1));
#535=CARTESIAN_POINT('',(74.935753443568,59.2084041005869,3.));
#536=CARTESIAN_POINT('',(77.2207692285788,57.2092215135669,3.));
#537=CARTESIAN_POINT('',(79.1739396113211,54.9378654799362,3.));
#538=CARTESIAN_POINT('',(82.1427754102093,49.6262292201779,3.));
#539=CARTESIAN_POINT('',(83.060283124883,46.6681310481346,3.));
#540=CARTESIAN_POINT('',(83.3817134709509,40.6609605379787,3.));
#541=CARTESIAN_POINT('',(82.7749325124558,37.6109356247931,3.));
#542=CARTESIAN_POINT('',(80.3212322174553,32.0896652379887,3.));
#543=CARTESIAN_POINT('',(78.5128867313174,29.6215695900355,3.));
#544=CARTESIAN_POINT('',(72.0882854283901,23.2194044691527,3.));
#545=CARTESIAN_POINT('',(66.572063132602,20.286319907545,3.));
#546=CARTESIAN_POINT('',(55.0381788536786,16.5086906068385,3.));
#547=CARTESIAN_POINT('',(48.9627268084913,15.6445481431394,3.));
#548=CARTESIAN_POINT('',(36.8494229042766,15.7137326686503,3.));
#549=CARTESIAN_POINT('',(30.7853073567531,16.6473683674571,3.));
#550=CARTESIAN_POINT('',(19.317642032941,20.5751908312296,3.));
#551=CARTESIAN_POINT('',(13.845743103294,23.5895848857962,3.));
#552=CARTESIAN_POINT('',(7.55651525899452,30.1562611805926,3.));
#553=CARTESIAN_POINT('',(5.83305558769451,32.6450767390841,3.));
#554=CARTESIAN_POINT('',(3.54388473536599,38.2686899061361,3.));
#555=CARTESIAN_POINT('',(3.05239233438109,41.3380181772381,3.));
#556=CARTESIAN_POINT('',(3.59105016979978,47.3289785311584,3.));
#557=CARTESIAN_POINT('',(4.61388023593161,50.2600319496632,3.));
#558=CARTESIAN_POINT('',(7.73812317915101,55.4775990946404,3.));
#559=CARTESIAN_POINT('',(9.76716737743799,57.7204205638295,3.));
#560=CARTESIAN_POINT('',(12.0998030341316,59.6709382069938,3.));
#561=CARTESIAN_POINT('',(74.935753443568,59.2084041005869,3.));
#562=CARTESIAN_POINT('',(74.935753443568,59.2084041005869,6.55));
#563=CARTESIAN_POINT('',(12.0998030341316,59.6709382069938,3.));
#564=CARTESIAN_POINT('',(12.0998030341316,59.6709382069938,13.1));
#565=CARTESIAN_POINT('',(7.4519042730722,55.7844296084165,3.));
#566=CARTESIAN_POINT('',(7.4519042730722,55.7844296084165,13.1));
#567=CARTESIAN_POINT('',(4.37065447111418,50.9120059444489,3.));
#568=CARTESIAN_POINT('',(4.37065447111418,50.9120059444489,13.1));
#569=CARTESIAN_POINT('',(3.0716883887963,43.174877955195,3.));
#570=CARTESIAN_POINT('',(3.0716883887963,43.174877955195,13.1));
#571=CARTESIAN_POINT('',(3.18930753841281,40.5401311651102,3.));
#572=CARTESIAN_POINT('',(3.18930753841281,40.5401311651102,13.1));
#573=CARTESIAN_POINT('',(4.50639402707807,35.4404036881527,3.));
#574=CARTESIAN_POINT('',(4.50639402707807,35.4404036881527,13.1));
#575=CARTESIAN_POINT('',(5.70167037786211,32.9782591516857,3.));
#576=CARTESIAN_POINT('',(5.70167037786211,32.9782591516857,13.1));
#577=CARTESIAN_POINT('',(10.6696327535889,26.1532806237531,3.));
#578=CARTESIAN_POINT('',(10.6696327535889,26.1532806237531,13.1));
#579=CARTESIAN_POINT('',(15.8315440708893,22.3599267898334,3.));
#580=CARTESIAN_POINT('',(15.8315440708893,22.3599267898334,13.1));
#581=CARTESIAN_POINT('',(28.2603270837255,17.1469473010835,3.));
#582=CARTESIAN_POINT('',(28.2603270837255,17.1469473010835,13.1));
#583=CARTESIAN_POINT('',(35.5231007715583,15.7322034527657,3.));
#584=CARTESIAN_POINT('',(35.5231007715583,15.7322034527657,13.1));
#585=CARTESIAN_POINT('',(50.1116241891803,15.6272224203925,3.));
#586=CARTESIAN_POINT('',(50.1116241891803,15.6272224203925,13.1));
#587=CARTESIAN_POINT('',(57.4172023664183,16.9372591502488,3.));
#588=CARTESIAN_POINT('',(57.4172023664183,16.9372591502488,13.1));
#589=CARTESIAN_POINT('',(70.0056104000005,21.9658512300314,3.));
#590=CARTESIAN_POINT('',(70.0056104000005,21.9658512300314,13.1));
#591=CARTESIAN_POINT('',(75.2831675658065,25.6787166947609,3.));
#592=CARTESIAN_POINT('',(75.2831675658065,25.6787166947609,13.1));
#593=CARTESIAN_POINT('',(80.4656591325293,32.4160121930811,3.));
#594=CARTESIAN_POINT('',(80.4656591325293,32.4160121930811,13.1));
#595=CARTESIAN_POINT('',(81.7397005418108,34.8546032593081,3.));
#596=CARTESIAN_POINT('',(81.7397005418108,34.8546032593081,13.1));
#597=CARTESIAN_POINT('',(83.223820344884,39.9266145608558,3.));
#598=CARTESIAN_POINT('',(83.223820344884,39.9266145608558,13.1));
#599=CARTESIAN_POINT('',(83.4295483398659,42.557852611921,3.));
#600=CARTESIAN_POINT('',(83.4295483398659,42.557852611921,13.1));
#601=CARTESIAN_POINT('',(82.7346554438989,47.7317701072351,3.));
#602=CARTESIAN_POINT('',(82.7346554438989,47.7317701072351,13.1));
#603=CARTESIAN_POINT('',(81.8367723319726,50.2695046687834,3.));
#604=CARTESIAN_POINT('',(81.8367723319726,50.2695046687834,13.1));
#605=CARTESIAN_POINT('',(79.0673126183747,55.0171088851616,3.));
#606=CARTESIAN_POINT('',(79.0673126183747,55.0171088851616,13.1));
#607=CARTESIAN_POINT('',(77.1985075984412,57.2286984308038,3.));
#608=CARTESIAN_POINT('',(77.1985075984412,57.2286984308038,13.1));
#609=CARTESIAN_POINT('',(74.935753443568,59.2084041005869,3.));
#610=CARTESIAN_POINT('',(74.935753443568,59.2084041005869,13.1));
#611=CARTESIAN_POINT('',(52.5822896851772,68.9387119791741,3.));
#612=CARTESIAN_POINT('',(53.1938857944347,70.4367233483014,3.));
#613=CARTESIAN_POINT('',(53.9136903692718,71.8721434898466,3.));
#614=CARTESIAN_POINT('',(55.7052368892799,74.5394119736032,3.));
#615=CARTESIAN_POINT('',(56.7869752136326,75.7839325420098,3.));
#616=CARTESIAN_POINT('',(59.4605519079682,77.6498113266213,3.));
#617=CARTESIAN_POINT('',(61.0419669504984,78.2153754838952,3.));
#618=CARTESIAN_POINT('',(64.2836863307899,78.1369538594215,3.));
#619=CARTESIAN_POINT('',(65.8602388818561,77.4835935656521,3.));
#620=CARTESIAN_POINT('',(68.4408066763525,75.5451749827821,3.));
#621=CARTESIAN_POINT('',(69.4927564816073,74.2828751703884,3.));
#622=CARTESIAN_POINT('',(71.2435545636183,71.5735283184357,3.));
#623=CARTESIAN_POINT('',(71.9538139095976,70.1070555156606,3.));
#624=CARTESIAN_POINT('',(73.7352378403229,65.5917780470496,3.));
#625=CARTESIAN_POINT('',(74.475822081286,62.4158904067181,3.));
#626=CARTESIAN_POINT('',(74.935753443568,59.2084041005869,3.));
#627=CARTESIAN_POINT('',(52.5822896851772,68.9387119791741,3.));
#628=CARTESIAN_POINT('',(52.5822896851772,68.9387119791741,6.55));
#629=CARTESIAN_POINT('',(74.935753443568,59.2084041005869,3.));
#630=CARTESIAN_POINT('',(74.935753443568,59.2084041005869,13.1));
#631=CARTESIAN_POINT('',(74.3219280456043,63.4891223115732,3.));
#632=CARTESIAN_POINT('',(74.3219280456043,63.4891223115732,13.1));
#633=CARTESIAN_POINT('',(73.2135647305868,67.4252906124861,3.));
#634=CARTESIAN_POINT('',(73.2135647305868,67.4252906124861,13.1));
#635=CARTESIAN_POINT('',(70.1505272468953,73.7323804190535,3.));
#636=CARTESIAN_POINT('',(70.1505272468953,73.7323804190535,13.1));
#637=CARTESIAN_POINT('',(68.2059583627764,76.1581685235434,3.));
#638=CARTESIAN_POINT('',(68.2059583627764,76.1581685235434,13.1));
#639=CARTESIAN_POINT('',(64.5285918738076,77.9962917675221,3.));
#640=CARTESIAN_POINT('',(64.5285918738076,77.9962917675221,13.1));
#641=CARTESIAN_POINT('',(63.1652490015386,78.2771540113395,3.));
#642=CARTESIAN_POINT('',(63.1652490015386,78.2771540113395,13.1));
#643=CARTESIAN_POINT('',(60.4842542456889,78.0129645167688,3.));
#644=CARTESIAN_POINT('',(60.4842542456889,78.0129645167688,13.1));
#645=CARTESIAN_POINT('',(59.1979971074804,77.4809776252696,3.));
#646=CARTESIAN_POINT('',(59.1979971074804,77.4809776252696,13.1));
#647=CARTESIAN_POINT('',(55.768346109131,75.0428883268148,3.));
#648=CARTESIAN_POINT('',(55.768346109131,75.0428883268148,13.1));
#649=CARTESIAN_POINT('',(53.970163323202,72.33809673196,3.));
#650=CARTESIAN_POINT('',(53.970163323202,72.33809673196,13.1));
#651=CARTESIAN_POINT('',(52.5822896851772,68.9387119791741,3.));
#652=CARTESIAN_POINT('',(52.5822896851772,68.9387119791741,13.1));
#653=CARTESIAN_POINT('',(33.568191421197,68.8823004580225,3.));
#654=CARTESIAN_POINT('',(39.903141132254,69.9402766664745,3.));
#655=CARTESIAN_POINT('',(46.2411776744754,69.9578038693602,3.));
#656=CARTESIAN_POINT('',(52.5822896851772,68.9387119791741,3.));
#657=CARTESIAN_POINT('',(52.5822896851772,68.9387119791741,3.));
#658=CARTESIAN_POINT('',(52.5822896851772,68.9387119791741,13.1));
#659=CARTESIAN_POINT('',(49.4695584448371,69.4389647988698,3.));
#660=CARTESIAN_POINT('',(49.4695584448371,69.4389647988698,13.1));
#661=CARTESIAN_POINT('',(46.2691763901474,69.6873828585839,3.));
#662=CARTESIAN_POINT('',(46.2691763901474,69.6873828585839,13.1));
#663=CARTESIAN_POINT('',(39.8714018396382,69.6684238717679,3.));
#664=CARTESIAN_POINT('',(39.8714018396382,69.6684238717679,13.1));
#665=CARTESIAN_POINT('',(36.6743522540967,69.4010487371284,3.));
#666=CARTESIAN_POINT('',(36.6743522540967,69.4010487371284,13.1));
#667=CARTESIAN_POINT('',(33.568191421197,68.8823004580225,3.));
#668=CARTESIAN_POINT('',(33.568191421197,68.8823004580225,13.1));
#669=CARTESIAN_POINT('',(13.9730937560845,58.6179146526812,0.));
#670=CARTESIAN_POINT('',(32.2582480231703,66.6099765266996,0.));
#671=CARTESIAN_POINT('',(23.99737847119,51.178165754702,0.));
#672=CARTESIAN_POINT('',(73.0567959636592,58.1827031786456,0.));
#673=CARTESIAN_POINT('',(43.24737847119,42.678165754702,0.));
#674=CARTESIAN_POINT('',(53.8680472672891,66.6818714856373,0.));
#675=CARTESIAN_POINT('',(62.49737847119,51.178165754702,0.));
#676=CARTESIAN_POINT('',(43.24737847119,42.678165754702,0.));
#677=CARTESIAN_POINT('',(51.364054399027,71.1395831355422,3.));
#678=CARTESIAN_POINT('',(48.6374142948007,71.5050138410022,3.));
#679=CARTESIAN_POINT('',(45.860109418416,71.6853043552645,3.));
#680=CARTESIAN_POINT('',(40.3074106320868,71.6705936842497,3.));
#681=CARTESIAN_POINT('',(37.5321515396189,71.475593525475,3.));
#682=CARTESIAN_POINT('',(34.8095634810722,71.0956564741149,3.));
#683=CARTESIAN_POINT('',(51.364054399027,71.1395831355422,3.));
#684=CARTESIAN_POINT('',(34.8095634810722,71.0956564741149,3.));
#685=CARTESIAN_POINT('',(34.8095634810722,71.0956564741149,3.));
#686=CARTESIAN_POINT('',(33.356283449126,74.3252820359767,3.));
#687=CARTESIAN_POINT('',(31.5148767974792,77.0109535757175,3.));
#688=CARTESIAN_POINT('',(27.5343129371273,79.5472171242801,3.));
#689=CARTESIAN_POINT('',(25.9643625707187,80.1064081363931,3.));
#690=CARTESIAN_POINT('',(22.7008781341318,80.2365568464035,3.));
#691=CARTESIAN_POINT('',(21.0735316551671,79.7968144070227,3.));
#692=CARTESIAN_POINT('',(16.9230323094654,77.5039740314746,3.));
#693=CARTESIAN_POINT('',(15.0038840787984,74.8957335106084,3.));
#694=CARTESIAN_POINT('',(11.9756757133157,68.6045072809076,3.));
#695=CARTESIAN_POINT('',(10.8931397795061,64.8215134344469,3.));
#696=CARTESIAN_POINT('',(10.2350963484716,60.707520714939,3.));
#697=CARTESIAN_POINT('',(10.2350963484716,60.707520714939,3.));
#698=CARTESIAN_POINT('',(10.2350963484716,60.707520714939,3.));
#699=CARTESIAN_POINT('',(5.47027550901402,56.536398089348,3.));
#700=CARTESIAN_POINT('',(2.25884984725603,51.2378862832211,3.));
#701=CARTESIAN_POINT('',(1.0495475101626,42.7383537596604,3.));
#702=CARTESIAN_POINT('',(1.24787698816849,39.842363856587,3.));
#703=CARTESIAN_POINT('',(2.80199178877644,34.2942851353329,3.));
#704=CARTESIAN_POINT('',(4.14967327773335,31.6463705703105,3.));
#705=CARTESIAN_POINT('',(9.57785127981825,24.3987238473277,3.));
#706=CARTESIAN_POINT('',(15.0325427241836,20.4927436358749,3.));
#707=CARTESIAN_POINT('',(27.9135141666459,15.1581859637778,3.));
#708=CARTESIAN_POINT('',(35.3493051918468,13.7321133001995,3.));
#709=CARTESIAN_POINT('',(50.2779784448477,13.6272643984344,3.));
#710=CARTESIAN_POINT('',(57.7535768182141,14.948849216701,3.));
#711=CARTESIAN_POINT('',(70.7842112156171,20.0931817335861,3.));
#712=CARTESIAN_POINT('',(76.3467995693833,23.9117630519441,3.));
#713=CARTESIAN_POINT('',(81.9869615785038,31.0537084118483,3.));
#714=CARTESIAN_POINT('',(83.4145472976231,33.6709547888092,3.));
#715=CARTESIAN_POINT('',(85.1435230357123,39.1805874892653,3.));
#716=CARTESIAN_POINT('',(85.436647533703,42.0700172277351,3.));
#717=CARTESIAN_POINT('',(84.5021912917168,50.5958797736985,3.));
#718=CARTESIAN_POINT('',(81.4501832510214,55.9669147759735,3.));
#719=CARTESIAN_POINT('',(76.806381724267,60.2181236267446,3.));
#720=CARTESIAN_POINT('',(76.806381724267,60.2181236267446,3.));
#721=CARTESIAN_POINT('',(76.806381724267,60.2181236267446,3.));
#722=CARTESIAN_POINT('',(76.1457636980918,64.4165378437558,3.));
#723=CARTESIAN_POINT('',(75.025879458334,68.2948867965978,3.));
#724=CARTESIAN_POINT('',(71.8676231742382,74.7511887763895,3.));
#725=CARTESIAN_POINT('',(69.8472776969589,77.4206774424582,3.));
#726=CARTESIAN_POINT('',(65.6015767901669,79.7584560950227,3.));
#727=CARTESIAN_POINT('',(63.9584968899605,80.2126071908232,3.));
#728=CARTESIAN_POINT('',(60.6456696753289,80.1394095210818,3.));
#729=CARTESIAN_POINT('',(59.032290006483,79.6171049226097,3.));
#730=CARTESIAN_POINT('',(54.8792212017384,77.1350950768317,3.));
#731=CARTESIAN_POINT('',(52.9060374610116,74.4172769444561,3.));
#732=CARTESIAN_POINT('',(51.364054399027,71.1395831355422,3.));
#733=CARTESIAN_POINT('',(53.8680472672891,66.6818714856373,3.));
#734=CARTESIAN_POINT('',(34.8095634810722,71.0956564741149,1.5));
#735=CARTESIAN_POINT('',(10.2350963484716,60.707520714939,1.5));
#736=CARTESIAN_POINT('',(34.8095634810722,71.0956564741149,0.));
#737=CARTESIAN_POINT('',(34.8095634810722,71.0956564741149,3.));
#738=CARTESIAN_POINT('',(34.0829234650991,72.7104692550459,0.));
#739=CARTESIAN_POINT('',(34.0829234650991,72.7104692550459,3.));
#740=CARTESIAN_POINT('',(33.2496699678716,74.1741759344699,0.));
#741=CARTESIAN_POINT('',(33.2496699678716,74.1741759344699,3.));
#742=CARTESIAN_POINT('',(31.3040757680844,76.7423531243779,0.));
#743=CARTESIAN_POINT('',(31.3040757680844,76.7423531243779,3.));
#744=CARTESIAN_POINT('',(30.1880221773619,77.8563747585717,0.));
#745=CARTESIAN_POINT('',(30.1880221773619,77.8563747585717,3.));
#746=CARTESIAN_POINT('',(27.5343129371273,79.5472171242801,0.));
#747=CARTESIAN_POINT('',(27.5343129371273,79.5472171242801,3.));
#748=CARTESIAN_POINT('',(25.9643625707187,80.1064081363931,0.));
#749=CARTESIAN_POINT('',(25.9643625707187,80.1064081363931,3.));
#750=CARTESIAN_POINT('',(22.7008781341318,80.2365568464035,0.));
#751=CARTESIAN_POINT('',(22.7008781341318,80.2365568464035,3.));
#752=CARTESIAN_POINT('',(21.0735316551671,79.7968144070227,0.));
#753=CARTESIAN_POINT('',(21.0735316551671,79.7968144070227,3.));
#754=CARTESIAN_POINT('',(18.3065320913659,78.2682541566573,0.));
#755=CARTESIAN_POINT('',(18.3065320913659,78.2682541566573,3.));
#756=CARTESIAN_POINT('',(17.1387387742169,77.2088950815887,0.));
#757=CARTESIAN_POINT('',(17.1387387742169,77.2088950815887,3.));
#758=CARTESIAN_POINT('',(15.1123364118178,74.741560109232,0.));
#759=CARTESIAN_POINT('',(15.1123364118178,74.741560109232,3.));
#760=CARTESIAN_POINT('',(14.2468319874277,73.3229269531832,0.));
#761=CARTESIAN_POINT('',(14.2468319874277,73.3229269531832,3.));
#762=CARTESIAN_POINT('',(11.9756757133157,68.6045072809076,0.));
#763=CARTESIAN_POINT('',(11.9756757133157,68.6045072809076,3.));
#764=CARTESIAN_POINT('',(10.8931397795062,64.8215134344469,0.));
#765=CARTESIAN_POINT('',(10.8931397795062,64.8215134344469,3.));
#766=CARTESIAN_POINT('',(10.2350963484716,60.707520714939,0.));
#767=CARTESIAN_POINT('',(10.2350963484716,60.707520714939,3.));
#768=CARTESIAN_POINT('',(76.806381724267,60.2181236267446,1.5));
#769=CARTESIAN_POINT('',(10.2350963484716,60.707520714939,0.));
#770=CARTESIAN_POINT('',(10.2350963484716,60.707520714939,3.));
#771=CARTESIAN_POINT('',(7.85268592874282,58.6219594021435,0.));
#772=CARTESIAN_POINT('',(7.85268592874282,58.6219594021435,3.));
#773=CARTESIAN_POINT('',(5.85580088666068,56.273033559916,0.));
#774=CARTESIAN_POINT('',(5.85580088666068,56.273033559916,3.));
#775=CARTESIAN_POINT('',(2.8548535701193,51.1662845359862,0.));
#776=CARTESIAN_POINT('',(2.8548535701193,51.1662845359862,3.));
#777=CARTESIAN_POINT('',(1.85574906822489,48.4047087753676,0.));
#778=CARTESIAN_POINT('',(1.85574906822489,48.4047087753676,3.));
#779=CARTESIAN_POINT('',(1.0495475101626,42.7383537596604,0.));
#780=CARTESIAN_POINT('',(1.0495475101626,42.7383537596604,3.));
#781=CARTESIAN_POINT('',(1.24787698816849,39.842363856587,0.));
#782=CARTESIAN_POINT('',(1.24787698816849,39.842363856587,3.));
#783=CARTESIAN_POINT('',(2.80199178877642,34.2942851353329,0.));
#784=CARTESIAN_POINT('',(2.80199178877642,34.2942851353329,3.));
#785=CARTESIAN_POINT('',(4.14967327773334,31.6463705703106,0.));
#786=CARTESIAN_POINT('',(4.14967327773334,31.6463705703106,3.));
#787=CARTESIAN_POINT('',(9.57785127981823,24.3987238473277,0.));
#788=CARTESIAN_POINT('',(9.57785127981823,24.3987238473277,3.));
#789=CARTESIAN_POINT('',(15.0325427241836,20.492743635875,0.));
#790=CARTESIAN_POINT('',(15.0325427241836,20.492743635875,3.));
#791=CARTESIAN_POINT('',(27.9135141666458,15.1581859637778,0.));
#792=CARTESIAN_POINT('',(27.9135141666458,15.1581859637778,3.));
#793=CARTESIAN_POINT('',(35.3493051918468,13.7321133001995,0.));
#794=CARTESIAN_POINT('',(35.3493051918468,13.7321133001995,3.));
#795=CARTESIAN_POINT('',(50.2779784448477,13.6272643984344,0.));
#796=CARTESIAN_POINT('',(50.2779784448477,13.6272643984344,3.));
#797=CARTESIAN_POINT('',(57.7535768182141,14.948849216701,0.));
#798=CARTESIAN_POINT('',(57.7535768182141,14.948849216701,3.));
#799=CARTESIAN_POINT('',(70.7842112156171,20.093181733586,0.));
#800=CARTESIAN_POINT('',(70.7842112156171,20.093181733586,3.));
#801=CARTESIAN_POINT('',(76.3467995693833,23.9117630519441,0.));
#802=CARTESIAN_POINT('',(76.3467995693833,23.9117630519441,3.));
#803=CARTESIAN_POINT('',(81.9869615785038,31.0537084118483,0.));
#804=CARTESIAN_POINT('',(81.9869615785038,31.0537084118483,3.));
#805=CARTESIAN_POINT('',(83.4145472976231,33.6709547888092,0.));
#806=CARTESIAN_POINT('',(83.4145472976231,33.6709547888092,3.));
#807=CARTESIAN_POINT('',(85.1435230357123,39.1805874892653,0.));
#808=CARTESIAN_POINT('',(85.1435230357123,39.1805874892653,3.));
#809=CARTESIAN_POINT('',(85.436647533703,42.0700172277351,0.));
#810=CARTESIAN_POINT('',(85.436647533703,42.0700172277351,3.));
#811=CARTESIAN_POINT('',(84.8136767057121,47.7539255917107,0.));
#812=CARTESIAN_POINT('',(84.8136767057121,47.7539255917107,3.));
#813=CARTESIAN_POINT('',(83.9019302384201,50.5388074394673,0.));
#814=CARTESIAN_POINT('',(83.9019302384201,50.5388074394673,3.));
#815=CARTESIAN_POINT('',(81.0564104722473,55.706460993612,0.));
#816=CARTESIAN_POINT('',(81.0564104722473,55.706460993612,3.));
#817=CARTESIAN_POINT('',(79.1282824876442,58.0925192013591,0.));
#818=CARTESIAN_POINT('',(79.1282824876442,58.0925192013591,3.));
#819=CARTESIAN_POINT('',(76.806381724267,60.2181236267446,0.));
#820=CARTESIAN_POINT('',(76.806381724267,60.2181236267446,3.));
#821=CARTESIAN_POINT('',(51.364054399027,71.1395831355422,1.5));
#822=CARTESIAN_POINT('',(76.806381724267,60.2181236267446,0.));
#823=CARTESIAN_POINT('',(76.806381724267,60.2181236267446,3.));
#824=CARTESIAN_POINT('',(76.1457636980918,64.4165378437558,0.));
#825=CARTESIAN_POINT('',(76.1457636980918,64.4165378437558,3.));
#826=CARTESIAN_POINT('',(75.0258794583341,68.2948867965978,0.));
#827=CARTESIAN_POINT('',(75.0258794583341,68.2948867965978,3.));
#828=CARTESIAN_POINT('',(72.6571872452622,73.1371132814415,0.));
#829=CARTESIAN_POINT('',(72.6571872452622,73.1371132814415,3.));
#830=CARTESIAN_POINT('',(71.7521565830982,74.5935591659843,0.));
#831=CARTESIAN_POINT('',(71.7521565830982,74.5935591659843,3.));
#832=CARTESIAN_POINT('',(69.6428934321897,77.1204686884975,0.));
#833=CARTESIAN_POINT('',(69.6428934321897,77.1204686884975,3.));
#834=CARTESIAN_POINT('',(68.4320440613615,78.199936993313,0.));
#835=CARTESIAN_POINT('',(68.4320440613615,78.199936993313,3.));
#836=CARTESIAN_POINT('',(65.6015767901669,79.7584560950227,0.));
#837=CARTESIAN_POINT('',(65.6015767901669,79.7584560950227,3.));
#838=CARTESIAN_POINT('',(63.9584968899605,80.2126071908232,0.));
#839=CARTESIAN_POINT('',(63.9584968899605,80.2126071908232,3.));
#840=CARTESIAN_POINT('',(60.6456696753289,80.1394095210818,0.));
#841=CARTESIAN_POINT('',(60.6456696753289,80.1394095210818,3.));
#842=CARTESIAN_POINT('',(59.032290006483,79.6171049226097,0.));
#843=CARTESIAN_POINT('',(59.032290006483,79.6171049226097,3.));
#844=CARTESIAN_POINT('',(56.2635774699866,77.962431692091,0.));
#845=CARTESIAN_POINT('',(56.2635774699866,77.962431692091,3.));
#846=CARTESIAN_POINT('',(55.0823064363113,76.849398007118,0.));
#847=CARTESIAN_POINT('',(55.0823064363113,76.849398007118,3.));
#848=CARTESIAN_POINT('',(53.0205082905902,74.2617069885945,0.));
#849=CARTESIAN_POINT('',(53.0205082905902,74.2617069885945,3.));
#850=CARTESIAN_POINT('',(52.1350459300193,72.7784300399991,0.));
#851=CARTESIAN_POINT('',(52.1350459300193,72.7784300399991,3.));
#852=CARTESIAN_POINT('',(51.364054399027,71.1395831355422,0.));
#853=CARTESIAN_POINT('',(51.364054399027,71.1395831355422,3.));
#854=CARTESIAN_POINT('',(51.364054399027,71.1395831355422,0.));
#855=CARTESIAN_POINT('',(51.364054399027,71.1395831355422,3.));
#856=CARTESIAN_POINT('',(48.6374142948007,71.5050138410022,0.));
#857=CARTESIAN_POINT('',(48.6374142948007,71.5050138410022,3.));
#858=CARTESIAN_POINT('',(45.860109418416,71.6853043552645,0.));
#859=CARTESIAN_POINT('',(45.860109418416,71.6853043552645,3.));
#860=CARTESIAN_POINT('',(40.3074106320868,71.6705936842497,0.));
#861=CARTESIAN_POINT('',(40.3074106320868,71.6705936842497,3.));
#862=CARTESIAN_POINT('',(37.5321515396189,71.475593525475,0.));
#863=CARTESIAN_POINT('',(37.5321515396189,71.475593525475,3.));
#864=CARTESIAN_POINT('',(34.8095634810722,71.0956564741149,0.));
#865=CARTESIAN_POINT('',(34.8095634810722,71.0956564741149,3.));
#866=MECHANICAL_DESIGN_GEOMETRIC_PRESENTATION_REPRESENTATION('',(#32),#867);
#867=(
GEOMETRIC_REPRESENTATION_CONTEXT(3)
GLOBAL_UNCERTAINTY_ASSIGNED_CONTEXT((#868))
GLOBAL_UNIT_ASSIGNED_CONTEXT((#874,#870,#869))
REPRESENTATION_CONTEXT('cat','TOP_LEVEL_ASSEMBLY_PART')
);
#868=UNCERTAINTY_MEASURE_WITH_UNIT(LENGTH_MEASURE(0.0508),#874,
'DISTANCE_ACCURACY_VALUE','Maximum Tolerance applied to model');
#869=(
NAMED_UNIT(*)
SI_UNIT($,.STERADIAN.)
SOLID_ANGLE_UNIT()
);
#870=(
CONVERSION_BASED_UNIT('DEGREE',#872)
NAMED_UNIT(#871)
PLANE_ANGLE_UNIT()
);
#871=DIMENSIONAL_EXPONENTS(0.,0.,0.,0.,0.,0.,0.);
#872=PLANE_ANGLE_MEASURE_WITH_UNIT(PLANE_ANGLE_MEASURE(0.0174532925),#873);
#873=(
NAMED_UNIT(*)
PLANE_ANGLE_UNIT()
SI_UNIT($,.RADIAN.)
);
#874=(
LENGTH_UNIT()
NAMED_UNIT(*)
SI_UNIT(.MILLI.,.METRE.)
);
ENDSEC;
END-ISO-10303-21;
